SplineFontDB: 3.0
FontName: CMUBright-Roman
FullName: CMU Bright Roman
FamilyName: CMU Bright
Weight: Medium
Copyright: Converted by Andrey V. Panov from TeX fonts
UComments: "2009-6-18: Created." 
Version: 0.7.0
ItalicAngle: 0
UnderlinePosition: -100
UnderlineWidth: 50
Ascent: 800
Descent: 200
LayerCount: 2
Layer: 0 0 "+BBcEMAQ0BD0EOAQ5 +BD8EOwQwBD0A"  1
Layer: 1 0 "+BB8ENQRABDUENAQ9BDgEOQAA +BD8EOwQwBD0A"  0
NeedsXUIDChange: 1
XUID: [1067 621342]
FSType: 0
OS2Version: 0
OS2_WeightWidthSlopeOnly: 0
OS2_UseTypoMetrics: 1
CreationTime: 1245318007
ModificationTime: 1245318382
PfmFamily: 17
TTFWeight: 500
TTFWidth: 5
LineGap: 200
VLineGap: 90
OS2TypoAscent: 0
OS2TypoAOffset: 1
OS2TypoDescent: 0
OS2TypoDOffset: 1
OS2TypoLinegap: 200
OS2WinAscent: 897
OS2WinAOffset: 0
OS2WinDescent: 264
OS2WinDOffset: 0
HheadAscent: 897
HheadAOffset: 0
HheadDescent: -264
HheadDOffset: 0
Lookup: 1 0 0 "Case substitutions"  {"Case substitutions subtable"  } ['case' ('cyrl' <'dflt' > 'grek' <'dflt' > 'latn' <'dflt' > ) ]
Lookup: 3 0 0 "Greek alternatives"  {"Greek alternatives subtable"  } ['salt' ('grek' <'dflt' > ) ]
Lookup: 1 0 0 "Greek substitutions"  {"Greek substitutions subtable"  } ['locl' ('grek' <'dflt' > ) ]
Lookup: 4 0 1 "Latin Dutch ligatures"  {"Latin Dutch ligatures subtable"  } ['liga' ('latn' <'NLD ' > ) ]
Lookup: 4 0 1 "Latin ligatures excepting Turkic"  {"Latin ligatures excepting Turkic subtable"  } ['liga' ('latn' <'dflt' 'NLD ' 'VIT ' > ) ]
Lookup: 4 0 1 "Latin ligatures"  {"Latin ligatures subtable"  } ['liga' ('latn' <'dflt' 'NLD ' 'VIT ' 'TRK ' 'AZE ' > ) ]
Lookup: 4 0 1 "Cyrillic ligatures"  {"Cyrillic ligatures subtable"  } ['liga' ('cyrl' <'dflt' 'MKD ' 'SRB ' > ) ]
Lookup: 3 0 0 "Latin alternatives"  {"Latin alternatives subtable"  } ['salt' ('latn' <'dflt' > ) ]
Lookup: 3 0 0 "Stilistic set 01"  {"Stilistic set 01 subtable"  } ['ss01' ('latn' <'dflt' > 'grek' <'dflt' > 'cyrl' <'dflt' > ) ]

StartChar: .notdef
Encoding: 0 0 0
Width: 760
Flags: HW
HStem: 10 60<105 655> 705 60<105 655>
VStem: 10 60<112 663> 690 60<112 663>
DStem2: 105 705 70 663 0.702289 -0.711892<5.31938 389.612 448.699 832.991> 70 112 105 70 0.702289 0.711892<0 384.292 443.379 827.672>
LayerCount: 2
Fore
SplineSet
10 10 m 1
 10 765 l 1
 750 765 l 1
 750 10 l 1
 10 10 l 1
70 112 m 1
 346 388 l 1
 70 663 l 1
 70 112 l 1
105 70 m 1
 655 70 l 1
 380 346 l 1
 105 70 l 1
105 705 m 1
 380 429 l 1
 655 705 l 1
 105 705 l 1
414 388 m 1
 690 112 l 1
 690 663 l 1
 414 388 l 1
EndSplineSet
EndChar

StartChar: uni262D
Encoding: 9773 9773 1
Width: 700
Flags: HW
TeX: 117 0
HStem: -1 21G<56 93 593.5 601> 39 76<321.786 462.78> 102 51<140.549 177.987>
VStem: 129 54<101.776 137.734> 556 82<197.341 366.709>
DStem2: 123 357 178 301 0.707107 0.707107<0 86.9741 130.108 182.434>
LayerCount: 2
Fore
SplineSet
40 18 m 0
 40 64 129 102 129 128 c 0
 129 148 134 153 148 153 c 0xb8
 162 153 164 157 182 180 c 1
 229 156 307 115 390 115 c 0
 438 115 463 128 463 129 c 0
 463 135 406 186 240 363 c 1
 178 301 l 1
 123 357 l 1
 252 486 l 1
 347 470 l 1
 271 393 l 1
 484 190 l 1
 513 165 l 1
 519 165 556 218 556 295 c 0
 556 473 346 588 346 593 c 1
 394 593 638 478 638 267 c 0
 638 167 592 118 580 100 c 1
 636 44 637 42 637 38 c 0xd8
 637 17 605 -1 597 -1 c 2
 596 -1 l 2
 591 -1 590 1 529 62 c 1
 500 51 474 39 428 39 c 0xd8
 297 39 201 138 188 138 c 0
 183 138 182 134 182 130 c 0
 182 126 183 123 183 118 c 0
 183 108 178 102 168 102 c 0
 131 102 122 0 64 -0 c 0
 48 0 40 7 40 18 c 0
EndSplineSet
EndChar

StartChar: longs
Encoding: 383 383 2
Width: 321
Flags: HW
TeX: 108 0
HStem: 0 21G<113 177> 652 51<200.942 361.897>
VStem: 113 64<0 627.15>
AnchorPoint: "above" 279 695 basechar 0
AnchorPoint: "below" 145 0 basechar 0
LayerCount: 2
Fore
SplineSet
113 0 m 1
 113 536 l 1
 114 567 110 618 167 665 c 0
 195 688 231 703 279 703 c 0
 315 703 345 698 363 695 c 1
 363 638 l 1
 334 647 312 652 278 652 c 0
 237 652 177 638 177 580 c 2
 177 0 l 1
 113 0 l 1
EndSplineSet
EndChar

StartChar: florin
Encoding: 402 402 3
Width: 650
Flags: HW
TeX: 102 0
HStem: -175 53<53.725 194.9> 422 50<250 324 396 510> 652 51<455.027 622.961>
DStem2: 224 -52 294 -17 0.205446 0.978669<-56.1836 484.433 548.159 701>
LayerCount: 2
Fore
SplineSet
18 -146 m 1
 46 -95 l 1
 70 -113 92 -122 124 -122 c 0
 158 -122 200 -107 216 -77 c 0
 220 -70 222 -61 224 -52 c 2
 324 422 l 1
 238 422 l 1
 250 472 l 1
 334 472 l 1
 356 568 356 574 368 598 c 0
 384 629 440 703 550 703 c 0
 586 703 616 697 632 695 c 1
 620 638 l 1
 594 647 572 652 538 652 c 0
 472 652 440 623 428 605 c 0
 420 592 420 585 396 472 c 1
 522 472 l 1
 510 422 l 1
 388 422 l 1
 294 -17 l 2
 288 -42 286 -68 272 -91 c 1
 260 -116 212 -175 134 -175 c 0
 86 -175 52 -164 18 -146 c 1
EndSplineSet
EndChar

StartChar: uni01EB
Encoding: 491 491 4
Width: 525
Flags: HW
HStem: -185 60<256.167 387.242> -8 52<187.514 274> 434 51<181.552 342.161>
VStem: 40 65<132.193 333.51> 196 56<-117.982 -59.1321> 419 64<132.341 340.962>
LayerCount: 2
Fore
SplineSet
40 236 m 0
 40 361 142 485 262 485 c 0
 382 485 483 375 483 236 c 0
 483 148 440 67 369 22 c 0
 306 -18 252 -47 252 -89 c 0
 252 -103 263 -125 310 -125 c 0
 340 -125 362 -118 387 -110 c 1
 400 -158 l 1
 375 -170 336 -185 294 -185 c 0
 230 -184 196 -152 196 -114 c 0
 196 -71 234 -36 274 -8 c 1
 262 -8 l 2
 144 -8 40 95 40 236 c 0
105 245 m 0
 105 84 199 44 262 44 c 0
 332 44 419 90 419 245 c 0
 419 396 324 434 262 434 c 0
 199 434 105 397 105 245 c 0
EndSplineSet
EndChar

StartChar: uni03F5
Encoding: 1013 1013 5
Width: 452
Flags: HW
HStem: -8 54<256.047 393> 206 61<104 335> 427 54<256.047 393>
CounterMasks: 1 e0
LayerCount: 2
Fore
SplineSet
43 236 m 0
 43 383 198 481 393 481 c 1
 393 427 l 1
 282 425 137 394 104 267 c 1
 335 267 l 1
 335 206 l 1
 104 206 l 1
 137 79 282 48 393 46 c 1
 393 -8 l 1
 198 -8 43 89 43 236 c 0
EndSplineSet
EndChar

StartChar: circumflex.cap
Encoding: 65536 -1 6
Width: 525
Flags: HW
HStem: 727 170
VStem: 106 313
DStem2: 106 727 157 727 0.610386 0.792104<31.1297 198.194>
AnchorPoint: "above" 262 711 mark 0
LayerCount: 2
Fore
SplineSet
106 727 m 1
 237 897 l 1
 300 897 l 1
 419 727 l 1
 368 727 l 1
 262 857 l 1
 157 727 l 1
 106 727 l 1
EndSplineSet
EndChar

StartChar: caron.cap
Encoding: 65539 -1 9
Width: 525
Flags: HW
HStem: 727 162
VStem: 110 305
DStem2: 161 889 110 889 0.610891 -0.791715<0 157.317>
AnchorPoint: "above" 262 711 mark 0
LayerCount: 2
Fore
SplineSet
110 889 m 1
 161 889 l 1
 263 769 l 1
 365 889 l 1
 415 889 l 1
 291 727 l 1
 235 727 l 1
 110 889 l 1
EndSplineSet
EndChar

StartChar: ring.cap
Encoding: 65540 -1 10
Width: 525
Flags: HW
HStem: 677 50<212.325 312.026> 844 50<212.061 312.53>
VStem: 146 58<735.243 835.956> 320 59<734.985 836.276>
AnchorPoint: "above" 262 711 mark 0
LayerCount: 2
Fore
SplineSet
146 786 m 0
 146 842 194 894 262 894 c 0
 320 894 379 852 379 786 c 0
 379 728 330 677 262 677 c 0
 206 677 146 719 146 786 c 0
204 785 m 0
 204 750 216 727 260 727 c 0
 308 727 320 748 320 786 c 0
 320 821 310 844 264 844 c 0
 216 844 204 823 204 785 c 0
EndSplineSet
EndChar

StartChar: breve.cap
Encoding: 65541 -1 11
Width: 525
Flags: HW
HStem: 727 55<191.756 333.376>
VStem: 92 51<829.081 889> 384 50<829.62 889>
AnchorPoint: "above" 263 711 mark 0
LayerCount: 2
Fore
SplineSet
92 889 m 1
 143 889 l 1
 147 817 208 782 264 782 c 0
 308 782 380 811 384 889 c 1
 434 889 l 1
 432 788 348 727 262 727 c 0
 178 727 94 789 92 889 c 1
EndSplineSet
EndChar

StartChar: uni026A
Encoding: 618 618 12
Width: 163
Flags: HW
HStem: 0 50<39 49 114 124> 422 50<39 49 114 124>
VStem: 39 85<0 50 422 472>
AnchorPoint: "affricate-below" 163 -167 basechar 0
AnchorPoint: "affricate-above" 163 695 basechar 0
AnchorPoint: "below" 82 0 basechar 0
AnchorPoint: "above" 82 484 basechar 0
LayerCount: 2
Back
SplineSet
49 0 m 1
 49 472 l 1
 114 472 l 1
 114 0 l 1
 49 0 l 1
EndSplineSet
Fore
SplineSet
39 0 m 1
 39 50 l 1
 49 50 l 1
 49 422 l 1
 39 422 l 1
 39 472 l 1
 124 472 l 1
 124 422 l 1
 114 422 l 1
 114 50 l 1
 124 50 l 1
 124 0 l 1
 39 0 l 1
EndSplineSet
EndChar

StartChar: grave
Encoding: 96 96 13
Width: 525
Flags: HW
TeX: 666 0
HStem: 538 129
VStem: 101 215
LayerCount: 2
Fore
SplineSet
101 667 m 1
 166 667 l 1
 316 538 l 1
 275 538 l 2
 262 538 259 542 101 667 c 1
EndSplineSet
EndChar

StartChar: acute
Encoding: 180 180 14
Width: 525
Flags: HW
TeX: 666 0
HStem: 538 129
VStem: 207 215
LayerCount: 2
Fore
SplineSet
207 538 m 1
 357 667 l 1
 422 667 l 1
 258 537 264 538 245 538 c 2
 207 538 l 1
EndSplineSet
EndChar

StartChar: circumflex
Encoding: 710 710 15
Width: 525
Flags: HW
TeX: 666 0
HStem: 537 138
VStem: 106 312
DStem2: 106 537 156 537 0.685694 0.72789<34.2847 184.125> 288 675 262 643 0.685694 -0.72789<5.46445 155.304>
LayerCount: 2
Fore
SplineSet
106 537 m 1
 236 675 l 1
 288 675 l 1
 418 537 l 1
 368 537 l 1
 262 643 l 1
 156 537 l 1
 106 537 l 1
EndSplineSet
EndChar

StartChar: tilde
Encoding: 732 732 16
Width: 525
Flags: HW
TeX: 666 0
HStem: 535 51<267.566 377.392> 584 50<147.073 255.22>
VStem: 87 50<535 573.175> 387 50<595.035 635>
LayerCount: 2
Fore
SplineSet
87 535 m 1xb0
 90 600 140 634 188 634 c 0x70
 243 634 285 586 335 586 c 0
 349 586 383 592 387 635 c 1
 437 635 l 1
 434 571 386 535 335 535 c 0xb0
 284 536 236 584 189 584 c 0x70
 175 584 142 578 137 535 c 1
 87 535 l 1xb0
EndSplineSet
EndChar

StartChar: ring
Encoding: 730 730 19
Width: 675
Flags: HW
TeX: 666 0
HStem: 510 33<288.414 385.865> 639 33<289.119 384.71>
VStem: 220 59<549.678 632.242> 395 58<549.072 631.302>
LayerCount: 2
Fore
SplineSet
220 591 m 0
 220 629 263 672 337 672 c 0
 413 672 453 627 453 591 c 0
 453 554 411 510 336 510 c 0
 260 510 220 555 220 591 c 0
279 591 m 0
 279 552 303 544 335 543 c 1
 354 544 395 541 395 590 c 0
 395 629 371 638 339 639 c 0
 319 639 279 640 279 591 c 0
EndSplineSet
EndChar

StartChar: caron
Encoding: 711 711 20
Width: 525
Flags: HW
TeX: 666 0
HStem: 536 131
VStem: 114 297
DStem2: 165 667 114 667 0.684496 -0.729016<0 138.524> 263 569 288 536 0.684496 0.729016<0 137.84>
LayerCount: 2
Fore
SplineSet
114 667 m 1
 165 667 l 1
 263 569 l 1
 360 667 l 1
 411 667 l 1
 288 536 l 1
 237 536 l 1
 114 667 l 1
EndSplineSet
EndChar

StartChar: breve
Encoding: 728 728 21
Width: 525
Flags: HW
TeX: 666 0
HStem: 526 55<180.588 343.548> 647 20G<91 143.5 379.5 433>
VStem: 91 50<619.453 667> 382 51<617.727 667>
LayerCount: 2
Fore
SplineSet
91 667 m 1
 141 667 l 1
 146 592 232 581 262 581 c 0
 292 581 377 592 382 667 c 1
 433 667 l 1
 430 574 343 526 262 526 c 0
 183 526 94 574 91 667 c 1
EndSplineSet
EndChar

StartChar: macron
Encoding: 175 175 22
Width: 525
Flags: HW
TeX: 656 0
HStem: 620 54<72 451>
LayerCount: 2
Fore
SplineSet
72 620 m 1
 72 674 l 1
 451 674 l 1
 451 620 l 1
 72 620 l 1
EndSplineSet
EndChar

StartChar: cedilla
Encoding: 184 184 24
Width: 467
Flags: HW
TeX: 0 145
HStem: -163 145
VStem: 131 127
DStem2: 131 -163 189 -163 0.469007 0.883195<27.2024 164.177>
LayerCount: 2
Fore
SplineSet
131 -163 m 1
 208 -18 l 1
 258 -18 l 1
 189 -163 l 1
 131 -163 l 1
EndSplineSet
EndChar

StartChar: ogonek
Encoding: 731 731 25
Width: 292
Flags: HW
TeX: 0 166
HStem: -194 61<51.8738 143.138>
VStem: -18 68<-121.461 -62.5086>
LayerCount: 2
Fore
SplineSet
-18 -114 m 0
 -18 -37 91 -15 152 39 c 1
 160 26 168 14 175 -0 c 1
 143 -28 118 -32 89 -50 c 0
 60 -68 50 -84 50 -101 c 0
 50 -104 50 -107 51 -110 c 0
 54 -116 64 -133 92 -133 c 0
 108 -133 140 -127 172 -77 c 1
 214 -106 l 1
 193 -144 149 -194 85 -194 c 0
 22 -194 -18 -154 -18 -114 c 0
EndSplineSet
EndChar

StartChar: guilsinglleft
Encoding: 8249 8249 27
Width: 408
Flags: HW
TeX: 500 0
VStem: 116 175
LayerCount: 2
Fore
SplineSet
116 250 m 1
 241 450 l 1
 291 450 l 1
 181 250 l 1
 291 50 l 1
 241 50 l 1
 116 250 l 1
EndSplineSet
EndChar

StartChar: guilsinglright
Encoding: 8250 8250 28
Width: 408
Flags: HW
TeX: 500 0
VStem: 116 175
LayerCount: 2
Fore
SplineSet
116 50 m 1
 226 250 l 1
 116 450 l 1
 166 450 l 1
 291 250 l 1
 166 50 l 1
 116 50 l 1
EndSplineSet
EndChar

StartChar: guillemotleft.lat
Encoding: 61696 61696 32
Width: 525
Flags: HW
TeX: 500 0
LayerCount: 2
Fore
SplineSet
116 250 m 1
 264 450 l 1
 314 450 l 1
 181 250 l 1
 314 50 l 1
 264 50 l 1
 116 250 l 1
291 250 m 1
 439 450 l 1
 489 450 l 1
 356 250 l 1
 489 50 l 1
 439 50 l 1
 291 250 l 1
EndSplineSet
EndChar

StartChar: guillemotright.lat
Encoding: 61697 61697 33
Width: 525
Flags: HW
TeX: 500 0
DStem2: 35 50 85 50 0.594843 0.803842<29.7422 240.477> 210 50 260 50 0.594843 0.803842<29.7422 240.477>
LayerCount: 2
Fore
SplineSet
35 50 m 1
 169 250 l 1
 35 450 l 1
 85 450 l 1
 233 250 l 1
 85 50 l 1
 35 50 l 1
210 50 m 1
 344 250 l 1
 210 450 l 1
 260 450 l 1
 408 250 l 1
 260 50 l 1
 210 50 l 1
EndSplineSet
EndChar

StartChar: endash
Encoding: 8211 8211 34
Width: 525
Flags: HW
TeX: 472 0
ItalicCorrection: 29
HStem: 267 50<0 525>
LayerCount: 2
Fore
SplineSet
0 267 m 1
 0 317 l 1
 525 317 l 1
 525 267 l 1
 0 267 l 1
EndSplineSet
EndChar

StartChar: emdash
Encoding: 8212 8212 35
Width: 1050
Flags: HW
TeX: 472 0
ItalicCorrection: 29
HStem: 267 50<0 1050>
LayerCount: 2
Fore
SplineSet
0 267 m 1
 0 317 l 1
 1050 317 l 1
 1050 267 l 1
 0 267 l 1
EndSplineSet
Substitution2: "Cyrillic substitutions subtable" emdash.cyr
AlternateSubs2: "Cyrillic alternatives subtable" emdash.cyr
EndChar

StartChar: dotlessi
Encoding: 305 305 37
Width: 225
Flags: HW
TeX: 472 0
HStem: 0 21G<80 143> 452 20G<80 143>
VStem: 80 63<0 472>
AnchorPoint: "below" 112 0 basechar 0
AnchorPoint: "above" 112 484 basechar 0
LayerCount: 2
Fore
SplineSet
80 0 m 1
 80 472 l 1
 143 472 l 1
 143 0 l 1
 80 0 l 1
EndSplineSet
EndChar

StartChar: dotlessj
Encoding: 567 567 38
Width: 254
Flags: HW
TeX: 472 166
HStem: -175 53<-49.4925 92.2547> 452 20G<110 174>
VStem: 110 64<-103.041 472>
AnchorPoint: "below" 80 -167 basechar 0
AnchorPoint: "above" 142 484 basechar 0
LayerCount: 2
Fore
SplineSet
-76 -146 m 1
 -58 -95 l 1
 -32 -111 -8 -122 26 -122 c 0
 60 -122 96 -108 107 -80 c 0
 110 -72 110 -64 110 -55 c 2
 110 472 l 1
 174 472 l 1
 174 -45 l 2
 174 -66 174 -112 127 -149 c 0
 104 -167 77 -175 47 -175 c 0
 10 -175 -32 -167 -76 -146 c 1
EndSplineSet
EndChar

StartChar: ff
Encoding: 64256 64256 39
Width: 612
Flags: HW
TeX: 694 0
ItalicCorrection: 72
HStem: 0 21G<113 177 405 468> 422 50<28 113 177 300 468 592> 652 51<199.66 361.277 493.203 653.276>
VStem: 113 64<0 422 472 629.516> 405 63<0 422 472 628.27>
LayerCount: 2
Fore
SplineSet
405 0 m 1
 405 548 l 2
 405 650 484 703 572 703 c 0
 589 703 614 702 655 695 c 1
 655 638 l 1
 622 648 602 652 570 652 c 0
 529 652 467 638 467 580 c 2
 467 472 l 1
 592 472 l 1
 592 422 l 1
 468 422 l 1
 468 0 l 1
 405 0 l 1
EndSplineSet
Refer: 114 102 S 1 0 0 1 0 0 2
Ligature2: "Latin ligatures subtable" f f
EndChar

StartChar: fi
Encoding: 64257 64257 40
Width: 550
Flags: HW
TeX: 694 0
HStem: 0 21G<113 177 405 468> 422 50<28 113 177 308> 452 20<405 468> 632 63<405 468> 652 51<191.364 307.063>
VStem: 113 64<0 422 472 636.296> 405 63<0 472 632 695>
LayerCount: 2
Fore
SplineSet
28 422 m 1
 28 472 l 1
 113 472 l 1
 113 549 l 2xc6
 113 658 185 703 247 703 c 0xce
 267 703 288 700 308 695 c 1x96
 308 637 l 1
 288 645 271 652 245 652 c 0
 219 652 175 640 175 580 c 2
 175 472 l 1xae
 308 472 l 1
 308 422 l 1
 177 422 l 1
 177 0 l 1
 113 0 l 1
 113 422 l 1
 28 422 l 1
EndSplineSet
Refer: 37 305 S 1 0 0 1 325 -0 2
Refer: 368 183 S 1 0 0 1 308 414 2
Ligature2: "Latin ligatures excepting Turkic subtable" f i
EndChar

StartChar: fl
Encoding: 64258 64258 41
Width: 550
Flags: HW
TeX: 694 0
HStem: 0 21G<113 177 405 468> 422 50<28 113 177 308> 652 51<191.255 307.109> 675 20<405 468>
VStem: 113 64<0 422 472 636.296> 405 63<0 695>
LayerCount: 2
Fore
SplineSet
28 422 m 1
 28 472 l 1
 113 472 l 1
 113 549 l 2xec
 113 658 185 703 247 703 c 0xec
 267 703 288 700 308 695 c 1xdc
 308 638 l 1
 290 645 271 652 246 652 c 0
 218 652 175 639 175 580 c 2
 175 472 l 1
 308 472 l 1
 308 422 l 1
 177 422 l 1
 177 0 l 1
 113 0 l 1
 113 422 l 1
 28 422 l 1
EndSplineSet
Refer: 120 108 S 1 0 0 1 325 -0 2
Ligature2: "Latin ligatures subtable" f l
EndChar

StartChar: ffi
Encoding: 64259 64259 42
Width: 842
Flags: HW
TeX: 694 0
HStem: 0 21G<113 177 405 468 697 760> 422 50<28 113 177 308 468 600> 452 20<697 760> 632 63<697 760> 638 57<264.304 335 539.723 600> 652 51<196.415 333.694 483.439 599.447>
VStem: 113 64<0 422 472 633.186> 405 63<0 422 472 636.344> 697 63<0 472 632 695>
LayerCount: 2
Fore
SplineSet
28 422 m 1
 28 472 l 1
 113 472 l 1xc380
 113 549 l 2
 113 651 186 703 262 703 c 0xc780
 284 703 307 701 335 695 c 1
 335 638 l 1x8b80
 307 647 291 652 263 652 c 0
 226 652 175 638 175 580 c 2
 175 472 l 1xa780
 308 472 l 1
 308 422 l 1
 177 422 l 1
 177 0 l 1
 113 0 l 1
 113 422 l 1
 28 422 l 1
405 0 m 1
 405 543 l 2
 405 563 406 584 412 604 c 0
 424 644 463 703 539 703 c 0xc780
 554 703 597 698 600 695 c 1
 600 638 l 1x8b80
 580 646 562 652 537 652 c 0x8780
 511 652 467 640 467 580 c 2
 467 472 l 1xa780
 600 472 l 1
 600 422 l 1
 468 422 l 1
 468 0 l 1
 405 0 l 1
EndSplineSet
Refer: 37 305 S 1 0 0 1 617 0 2
Refer: 368 183 S 1 0 0 1 600 414 2
Ligature2: "Latin ligatures excepting Turkic subtable" ff i
Ligature2: "Latin ligatures excepting Turkic subtable" f f i
EndChar

StartChar: ffl
Encoding: 64260 64260 43
Width: 842
Flags: HW
TeX: 694 0
HStem: 0 21G<113 177 405 468 697 760> 422 50<28 113 177 308 468 600> 638 57<264.304 335 538.168 600> 652 51<196.415 333.694 482.894 598.994> 675 20<697 760>
VStem: 113 64<0 422 472 633.186> 405 63<0 422 472 635.706> 697 63<0 695>
LayerCount: 2
Fore
SplineSet
28 422 m 1
 28 472 l 1
 113 472 l 1
 113 549 l 2
 113 651 186 703 262 703 c 0xd7
 284 703 307 701 335 695 c 1
 335 638 l 1xe7
 307 647 291 652 263 652 c 0
 226 652 175 638 175 580 c 2
 175 472 l 1
 308 472 l 1
 308 422 l 1
 177 422 l 1
 177 0 l 1
 113 0 l 1
 113 422 l 1
 28 422 l 1
405 0 m 1
 405 545 l 2xd7
 405 667 484 703 537 703 c 0xd7
 556 703 575 701 600 695 c 1
 600 638 l 1xe7
 582 645 562 652 537 652 c 0
 509 652 467 639 467 580 c 2
 467 472 l 1
 600 472 l 1
 600 422 l 1
 468 422 l 1
 468 0 l 1
 405 0 l 1
EndSplineSet
Refer: 120 108 S 1 0 0 1 617 0 2
Ligature2: "Latin ligatures subtable" ff l
Ligature2: "Latin ligatures subtable" f f l
EndChar

StartChar: uni2423
Encoding: 9251 9251 44
Width: 525
Flags: HW
TeX: 472 83
HStem: -101 36<78 445>
VStem: 43 35<-65 266.988> 445 35<-65 266.988>
LayerCount: 2
Fore
SplineSet
43 -75 m 1
 43 240 l 2
 43 255 47 267 61 267 c 0
 77 267 79 250 79 238 c 0
 79 235 78 232 78 230 c 2
 78 -65 l 1
 445 -65 l 1
 445 238 l 2
 445 250 446 267 462 267 c 0
 478 267 480 250 480 237 c 2
 480 -77 l 1
 479 -100 465 -101 450 -101 c 2
 67 -101 l 1
 43 -100 44 -87 43 -75 c 1
EndSplineSet
EndChar

StartChar: exclam
Encoding: 33 33 45
Width: 325
Flags: HW
TeX: 694 0
HStem: 0 78<123 201> 675 20G<123 201>
VStem: 123 78<0 78 241.75 695> 131 62<177 630.25>
LayerCount: 2
Fore
SplineSet
123 695 m 1
 201 695 l 1xe0
 193 177 l 1
 131 177 l 1xd0
 123 695 l 1
EndSplineSet
Refer: 58 46 S 1 0 0 1 17 0 2
EndChar

StartChar: numbersign
Encoding: 35 35 47
Width: 875
Flags: HW
TeX: 694 166
HStem: -166 21G<191.5 211.5 428.5 448.5> 132 51<59.2695 253 321 491 558 815.648> 345 51<59.2985 316 383 553 621 815.73> 674 20G<425.5 445.5 662.5 682.5>
VStem: 414 52<-164.83 -127.091 638.651 692.787>
DStem2: 179 -124 229 -134 0.280047 0.959986<-16.934 266.48 334.482 488.6 556.322 770.378> 416 -124 466 -134 0.279719 0.960082<-16.6551 266.76 334.465 488.6 556.585 840>
LayerCount: 2
Fore
SplineSet
59 158 m 0
 59 168 64 183 92 183 c 2
 269 183 l 1
 316 345 l 1
 95 345 l 2
 75 345 59 350 59 370 c 0
 59 380 63 396 93 396 c 2
 331 396 l 1
 408 661 l 2
 409 666 414 694 437 694 c 0
 454 694 461 677 461 670 c 0
 461 659 451 631 383 396 c 1
 568 396 l 1
 645 661 l 2
 646 666 651 694 674 694 c 0
 691 694 698 683 698 669 c 0
 698 664 697 658 695 652 c 2
 621 396 l 1
 781 396 l 2
 793 396 816 394 816 370 c 0
 816 360 811 345 783 345 c 2
 605 345 l 1
 558 183 l 1
 780 183 l 2
 790 183 816 183 816 158 c 0
 816 148 811 132 781 132 c 2
 543 132 l 1
 466 -134 l 2
 465 -139 460 -166 437 -166 c 0
 420 -166 414 -155 414 -141 c 0
 414 -136 414 -130 416 -124 c 2
 491 132 l 1
 306 132 l 1
 229 -134 l 2
 228 -139 223 -166 200 -166 c 0
 183 -166 176 -155 176 -141 c 0
 176 -136 177 -130 179 -124 c 2
 253 132 l 1
 93 132 l 2
 81 132 59 134 59 158 c 0
321 183 m 1
 506 183 l 1
 553 345 l 1
 368 345 l 1
 321 183 l 1
EndSplineSet
EndChar

StartChar: dollar
Encoding: 36 36 48
Width: 525
Flags: HW
TeX: 750 55
HStem: -7 53<143.124 236 287 337.389> 648 53<178.726 236 287 378.352>
VStem: 58 59<460.825 589.522> 236 51<-55 -5.38281 47 319 403 648 702 750> 406 59<111.28 255.202>
CounterMasks: 1 38
LayerCount: 2
Fore
SplineSet
46 61 m 1
 56 119 l 1
 113 77 152 55 236 46 c 1
 236 331 l 1
 69 365 58 481 58 516 c 0
 58 606 126 687 236 701 c 1
 236 750 l 1
 287 750 l 1
 287 702 l 1
 352 700 399 678 448 647 c 1
 438 592 l 1
 398 618 361 644 287 649 c 1
 287 391 l 1
 307 387 327 382 345 374 c 0
 406 348 465 283 465 192 c 0
 465 93 390 6 287 -6 c 1
 287 -55 l 1
 236 -55 l 1
 236 -7 l 1
 158 -1 98 25 46 61 c 1
117 525 m 0
 117 503 124 428 236 403 c 1
 236 648 l 1
 152 633 117 574 117 525 c 0
287 47 m 1
 354 59 406 113 406 183 c 0
 406 230 381 296 287 319 c 1
 287 47 l 1
EndSplineSet
EndChar

StartChar: percent
Encoding: 37 37 49
Width: 875
Flags: HW
TeX: 750 55
HStem: -55 50<620.491 714.701> 297 50<622.49 713.643> 347 51<154.007 248.575> 699 51<156.61 248.397>
VStem: 58 61<443.455 654.906> 291 59<448.585 649.852> 524 62<40.5814 249.807> 758 58<47.8214 245.49>
DStem2: 195 -13 223 -44 0.520019 0.854155<-23.107 891.809>
LayerCount: 2
Fore
SplineSet
58 549 m 0
 58 673 133 750 204 750 c 0
 283 750 350 662 350 548 c 0
 350 437 285 347 205 347 c 0
 132 347 58 427 58 549 c 0
119 549 m 0
 119 492 126 452 149 425 c 0
 162 409 183 398 204 398 c 0
 256 398 291 470 291 549 c 0
 291 639 250 699 204 699 c 0
 175 699 146 678 132 640 c 0
 121 611 119 580 119 549 c 0
186 -35 m 0
 186 -26 194 -15 195 -13 c 2
 651 736 l 2
 655 741 661 749 671 749 c 0
 681 749 690 741 690 730 c 0
 690 724 690 723 676 700 c 2
 223 -44 l 2
 219 -50 213 -55 205 -55 c 0
 194 -55 186 -45 186 -35 c 0
524 146 m 0
 524 256 590 347 670 347 c 0
 749 347 816 258 816 145 c 0
 816 34 751 -55 671 -55 c 0
 598 -55 524 24 524 146 c 0
586 146 m 0
 586 89 593 49 616 22 c 0
 629 6 649 -5 670 -5 c 0
 722 -5 758 67 758 146 c 0
 758 236 716 297 670 297 c 0
 641 297 612 276 598 238 c 0
 587 209 586 177 586 146 c 0
EndSplineSet
EndChar

StartChar: ampersand
Encoding: 38 38 50
Width: 783
Flags: HW
TeX: 694 0
HStem: -17 53<161.046 350.925 529.089 722.154> 661 50<259.678 354.11>
VStem: 43 65<86.0582 212.263> 177 53<422.133 628.144> 378 58<504.324 636.928> 646 53<370.874 418.849>
DStem2: 211 355 168 250 0.745938 0.666016<-196.683 -15.5581 65.1097 227.787>
LayerCount: 2
Fore
SplineSet
43 143 m 0
 43 222 94 253 211 355 c 1
 196 400 177 452 177 527 c 0
 177 631 231 711 312 711 c 0
 387 711 436 636 436 566 c 0
 436 523 410 461 280 350 c 1
 295 320 331 245 452 115 c 1
 479 135 590 225 646 431 c 1
 699 417 l 1
 645 212 531 113 493 79 c 1
 531 54 560 37 615 37 c 0
 659 37 687 45 724 57 c 1
 724 1 l 1
 682 -12 647 -17 614 -17 c 0
 546 -17 492 9 444 45 c 1
 397 13 320 -17 237 -17 c 0
 122 -17 43 57 43 143 c 0
108 149 m 0
 108 94 154 36 236 36 c 0
 303 36 354 56 403 81 c 1
 335 152 286 208 233 307 c 1
 211 289 190 269 168 250 c 0
 143 228 108 201 108 149 c 0
230 557 m 0
 230 494 246 437 259 399 c 1
 277 414 378 499 378 565 c 0
 378 596 364 661 310 661 c 0
 278 661 230 633 230 557 c 0
EndSplineSet
EndChar

StartChar: parenleft
Encoding: 40 40 52
Width: 408
Flags: HW
TeX: 750 222
VStem: 91 64<81.3514 444.582>
LayerCount: 2
Fore
SplineSet
91 264 m 0
 91 457 153 633 299 750 c 1
 349 750 l 1
 321 724 155 594 155 266 c 0
 155 -57 310 -186 349 -222 c 1
 299 -222 l 1
 154 -105 91 73 91 264 c 0
EndSplineSet
EndChar

StartChar: parenright
Encoding: 41 41 53
Width: 408
Flags: HW
TeX: 750 222
VStem: 252 64<86.6356 444.994>
LayerCount: 2
Fore
SplineSet
58 -222 m 1
 90 -193 252 -63 252 266 c 0
 252 594 86 724 58 750 c 1
 108 750 l 1
 253 634 316 457 316 266 c 0
 316 106 271 -91 108 -222 c 1
 58 -222 l 1
EndSplineSet
EndChar

StartChar: asterisk
Encoding: 42 42 54
Width: 525
Flags: HW
TeX: 750 0
VStem: 237 50<320.228 507.321 561.68 748.772>
LayerCount: 2
Fore
SplineSet
77 441 m 1
 82 462 74 455 236 535 c 1
 74 615 82 607 77 629 c 1
 81 644 90 655 103 655 c 2
 105 655 l 2
 115 655 115 652 248 558 c 1
 244 613 236 716 236 722 c 0
 236 746 256 749 262 749 c 0
 280 749 286 742 286 712 c 0
 286 684 281 637 275 558 c 1
 396 643 407 655 418 655 c 2
 419 655 l 2
 440 655 445 634 446 628 c 1
 441 607 449 615 287 535 c 1
 449 455 441 463 446 441 c 1
 442 426 433 415 420 415 c 2
 418 415 l 2
 408 415 408 417 275 511 c 1
 279 456 287 353 287 347 c 0
 287 323 268 320 262 320 c 0
 244 320 237 328 237 358 c 0
 237 386 242 432 248 511 c 1
 125 424 115 415 105 415 c 2
 104 415 l 2
 83 415 78 435 77 441 c 1
EndSplineSet
EndChar

StartChar: plus
Encoding: 43 43 55
Width: 642
Flags: HW
TeX: 527 -1
HStem: 239 51<59.3036 295 346 581.702>
VStem: 295 51<2.30365 239 290 525.729>
LayerCount: 2
Fore
SplineSet
59 264 m 0
 59 288 80 290 93 290 c 2
 295 290 l 1
 295 491 l 2
 295 503 297 526 321 526 c 0
 331 526 346 521 346 492 c 2
 346 290 l 1
 548 290 l 2
 578 290 582 274 582 264 c 0
 582 241 559 239 550 239 c 2
 346 239 l 1
 346 37 l 2
 346 19 340 2 320 2 c 0
 311 2 295 6 295 36 c 2
 295 239 l 1
 94 239 l 2
 76 239 59 244 59 264 c 0
EndSplineSet
EndChar

StartChar: comma
Encoding: 44 44 56
Width: 292
Flags: HW
TeX: 77 111
HStem: -111 189<51 67>
VStem: 106 79<0 78>
LayerCount: 2
Fore
SplineSet
106 0 m 1
 106 78 l 1
 185 78 l 1
 185 29 l 1
 184 -0 l 1
 146 -111 l 1
 106 -111 l 1
 130 0 l 1
 106 0 l 1
EndSplineSet
EndChar

StartChar: hyphen
Encoding: 45 45 57
Width: 350
Flags: HW
TeX: 472 0
HStem: 211 50<11 291>
VStem: 11 280<211 261>
LayerCount: 2
Fore
SplineSet
11 211 m 1
 11 261 l 1
 291 261 l 1
 291 211 l 1
 11 211 l 1
EndSplineSet
EndChar

StartChar: period
Encoding: 46 46 58
Width: 292
Flags: HW
TeX: 77 0
HStem: 0 78<106 184>
VStem: 106 78<0 78>
LayerCount: 2
Fore
SplineSet
106 0 m 1
 106 78 l 1
 184 78 l 1
 184 0 l 1
 106 0 l 1
EndSplineSet
EndChar

StartChar: slash
Encoding: 47 47 59
Width: 525
Flags: HW
TeX: 750 222
DStem2: 64 -176 115 -186 0.361842 0.932239<-21.0796 985.149>
LayerCount: 2
Fore
SplineSet
59 -197 m 0
 59 -190 62 -183 64 -176 c 2
 411 718 l 2
 416 731 423 749 441 749 c 0
 454 749 466 740 466 725 c 0
 466 719 466 718 457 695 c 2
 115 -186 l 2
 106 -209 104 -214 91 -220 c 1
 85 -221 85 -222 84 -222 c 2
 83 -222 l 2
 70 -222 59 -211 59 -197 c 0
EndSplineSet
EndChar

StartChar: zero
Encoding: 48 48 60
Width: 525
Flags: HW
TeX: 656 0
HStem: -17 51<193.076 330.579> 622 50<190.599 334.321>
VStem: 52 65<142.469 515.589> 407 65<142.708 512.953>
LayerCount: 2
Fore
SplineSet
52 310 m 2
 52 326 l 2
 52 421 56 609 197 661 c 0
 221 670 243 672 262 672 c 0
 346 672 472 621 472 346 c 0
 472 254 470 182 438 107 c 0
 395 6 316 -17 262 -17 c 0
 178 -17 52 34 52 310 c 2
116 377 m 0
 116 367 117 359 117 355 c 2
 117 336 l 2
 117 249 118 142 162 84 c 0
 186 53 223 34 262 34 c 0
 306 34 343 58 364 87 c 0
 406 146 407 252 407 338 c 2
 407 355 l 2
 407 359 408 366 408 376 c 0
 408 422 405 520 365 572 c 0
 341 604 302 622 262 622 c 0
 217 622 178 599 157 569 c 0
 120 516 116 422 116 377 c 0
EndSplineSet
Substitution2: "LGC old numerals subtable" zerooldstyle
EndChar

StartChar: one
Encoding: 49 49 61
Width: 525
Flags: HW
TeX: 656 0
HStem: 0 50<111 242 307 438> 556 51<105 224.638> 652 20G<278 307>
VStem: 242 65<50 585>
LayerCount: 2
Fore
SplineSet
105 556 m 1
 105 607 l 1
 217 607 265 647 291 672 c 1
 307 672 l 1
 307 50 l 1
 438 50 l 1
 438 0 l 1
 111 0 l 1
 111 50 l 1
 242 50 l 1
 242 585 l 1
 230 579 187 556 105 556 c 1
EndSplineSet
Substitution2: "LGC old numerals subtable" oneoldstyle
EndChar

StartChar: two
Encoding: 50 50 62
Width: 525
Flags: HW
TeX: 656 0
HStem: 0 56<109 472> 619 53<159.295 322.783>
VStem: 43 37<495.486 515.869> 405 67<380.089 543.133>
DStem2: 52 53 109 56 0.741369 0.671097<44.2713 468.419>
LayerCount: 2
Fore
SplineSet
43 504 m 1
 69 591 125 672 248 672 c 2
 249 672 l 1
 378 671 472 585 472 467 c 0
 472 360 381 290 322 242 c 0
 256 189 277 207 109 56 c 1
 472 56 l 1
 472 0 l 1
 52 0 l 1
 52 53 l 1
 263 244 l 1
 346 316 405 377 405 466 c 0
 405 558 329 619 234 619 c 0
 135 619 102 543 80 459 c 1
 43 504 l 1
EndSplineSet
Substitution2: "LGC old numerals subtable" twooldstyle
EndChar

StartChar: three
Encoding: 51 51 63
Width: 525
Flags: HW
TeX: 656 0
HStem: -17 52<164.003 343.449> 329 50<174 303.025> 622 50<178.214 343.826>
VStem: 385 66<453.886 584.963> 410 70<101.03 259.846>
LayerCount: 2
Fore
SplineSet
44 102 m 0
 44 106 46 111 53 147 c 1
 128 43 230 35 263 35 c 0
 353 35 410 97 410 182 c 0xe8
 410 271 349 323 277 328 c 1
 243 329 l 1
 174 329 l 1
 174 379 l 1
 268 386 270 387 291 395 c 0
 333 411 385 457 385 525 c 0
 385 583 338 622 266 622 c 0xf0
 153 622 104 536 89 509 c 1
 58 553 l 1
 125 661 224 672 266 672 c 0
 371 672 451 605 451 525 c 0xf0
 451 473 425 399 329 355 c 1
 433 327 480 251 480 181 c 0
 480 85 397 -17 264 -17 c 0
 135 -17 44 80 44 102 c 0
EndSplineSet
Substitution2: "LGC old numerals subtable" threeoldstyle
EndChar

StartChar: four
Encoding: 52 52 64
Width: 525
Flags: HW
TeX: 656 0
HStem: 0 21G<318 381> 181 53<94 318 381 495> 644 20G<292.133 381>
VStem: 321 60<0 181 234 607>
DStem2: 29 235 94 234 0.541055 0.840987<34.3276 469.517>
LayerCount: 2
Fore
SplineSet
29 181 m 1
 29 235 l 1
 305 664 l 1
 381 664 l 1
 381 234 l 1
 495 234 l 1
 495 181 l 1
 381 181 l 1
 381 0 l 1
 318 0 l 1
 318 181 l 1
 29 181 l 1
94 234 m 1
 321 234 l 1
 321 607 l 1
 311 580 297 555 251 482 c 2
 94 234 l 1
EndSplineSet
Substitution2: "LGC old numerals subtable" fouroldstyle
EndChar

StartChar: five
Encoding: 53 53 65
Width: 525
Flags: HW
TeX: 656 0
HStem: -17 52<156.95 330.362> 371 51<196.42 344.791> 602 53<152 437>
VStem: 91 61<372 602> 401 71<108.856 303.859>
LayerCount: 2
Fore
SplineSet
47 81 m 1
 76 128 l 1
 135 42 216 35 247 35 c 0
 313 35 401 69 401 205 c 0
 401 342 327 371 277 371 c 0
 199 371 163 325 147 297 c 1
 91 297 l 1
 91 655 l 1
 437 655 l 1
 437 602 l 1
 152 602 l 1
 152 372 l 1
 187 404 228 422 278 422 c 0
 383 422 472 325 472 204 c 0
 472 83 373 -17 246 -17 c 0
 215 -17 124 -13 47 81 c 1
EndSplineSet
Substitution2: "LGC old numerals subtable" fiveoldstyle
EndChar

StartChar: six
Encoding: 54 54 66
Width: 525
Flags: HW
TeX: 656 0
HStem: -17 52<191.73 342.704> 401 50<214.648 346.13> 622 50<239.391 434.951>
VStem: 54 71<184.141 461.341> 404 66<109.826 338.511>
LayerCount: 2
Fore
SplineSet
54 322 m 0
 54 542 188 672 324 672 c 2
 326 672 l 2
 367 672 394 667 437 653 c 1
 437 601 l 1
 393 615 367 622 324 622 c 2
 322 622 l 2
 201 622 120 510 120 345 c 0
 120 341 121 336 121 332 c 1
 150 394 216 451 305 451 c 0
 359 451 391 426 419 388 c 0
 458 334 470 287 470 220 c 0
 470 149 453 101 409 51 c 0
 374 11 332 -17 264 -17 c 0
 180 -17 54 42 54 322 c 0
124 217 m 1
 131 146 151 35 264 35 c 0
 315 35 347 52 372 86 c 0
 403 128 404 167 404 224 c 0
 404 274 402 333 352 375 c 0
 329 394 301 401 270 401 c 0
 183 401 125 325 125 243 c 0
 125 235 125 225 126 217 c 1
 124 217 l 1
EndSplineSet
Substitution2: "LGC old numerals subtable" sixoldstyle
EndChar

StartChar: seven
Encoding: 55 55 67
Width: 525
Flags: HW
TeX: 656 0
HStem: -8 21G<170 237> 600 55<43 437>
VStem: 170 67<-8 171.286>
LayerCount: 2
Fore
SplineSet
43 600 m 1
 43 655 l 1
 480 655 l 1
 480 602 l 1
 356 472 237 261 237 -8 c 1
 170 -8 l 1
 170 212 258 435 437 600 c 1
 43 600 l 1
EndSplineSet
Substitution2: "LGC old numerals subtable" sevenoldstyle
EndChar

StartChar: eight
Encoding: 56 56 68
Width: 525
Flags: HW
TeX: 656 0
HStem: -17 52<172.744 348.896> 329 50<195.614 326.242> 622 50<170.222 352.176>
VStem: 43 66<98.1861 259.591> 58 60<430.949 572.212> 405 61<431.549 572.055> 414 66<98.5659 259.355>
LayerCount: 2
Fore
SplineSet
43 181 m 0
 43 250 88 321 195 354 c 1
 135 369 58 419 58 501 c 0
 58 588 142 672 262 672 c 0
 375 672 466 595 466 502 c 0xec
 466 438 418 388 357 363 c 1
 328 354 l 1
 392 338 480 280 480 181 c 0
 480 77 386 -17 261 -17 c 0
 133 -17 43 81 43 181 c 0
109 181 m 0
 109 82 176 35 261 35 c 0
 353 35 414 87 414 182 c 0xf2
 414 282 343 329 261 329 c 0
 193 329 109 294 109 181 c 0
118 501 m 0
 118 441 158 379 261 379 c 0
 349 379 405 425 405 501 c 0
 405 549 380 622 263 622 c 0xec
 143 622 118 549 118 501 c 0
EndSplineSet
Substitution2: "LGC old numerals subtable" eightoldstyle
EndChar

StartChar: nine
Encoding: 57 57 69
Width: 525
Flags: HW
TeX: 656 0
HStem: -17 52<130.497 297.745> 204 51<178.559 308.445> 622 50<184.87 332.993>
VStem: 54 66<320.437 543.798> 404 66<192.672 471.703>
LayerCount: 2
Fore
SplineSet
54 438 m 0
 54 513 77 562 120 607 c 0
 163 653 207 672 265 672 c 0
 347 672 470 618 470 332 c 0
 470 131 357 -17 216 -17 c 0
 160 -17 122 -3 76 29 c 1
 102 75 l 1
 118 65 152 35 215 35 c 0
 352 35 404 180 404 310 c 2
 404 324 l 1
 376 263 308 204 219 204 c 0
 165 204 133 230 106 267 c 0
 66 321 54 370 54 438 c 0
120 415 m 2
 120 344 147 255 255 255 c 0
 342 255 400 331 400 415 c 0
 400 423 400 430 399 438 c 1
 401 438 l 1
 391 591 319 622 265 622 c 0
 212 622 180 604 154 570 c 0
 124 531 120 492 120 441 c 2
 120 415 l 2
EndSplineSet
Substitution2: "LGC old numerals subtable" nineoldstyle
EndChar

StartChar: less
Encoding: 60 60 72
Width: 642
Flags: HW
TeX: 552 25
DStem2: 113 295 159 265 0.839798 0.542899<22.3437 491.823> 159 264 113 233 0.840102 -0.542428<0 469.873>
LayerCount: 2
Fore
SplineSet
88 264 m 1
 90 277 91 281 113 295 c 2
 509 551 l 2
 514 554 521 558 529 558 c 0
 542 558 553 546 553 533 c 0
 553 517 536 508 528 503 c 2
 217 302 l 2
 198 289 179 277 159 265 c 1
 159 264 l 1
 179 252 198 239 217 226 c 2
 528 25 l 2
 536 20 553 11 553 -5 c 0
 553 -18 542 -30 529 -30 c 0
 518 -30 504 -20 494 -13 c 2
 113 233 l 2
 91 247 90 251 88 264 c 1
EndSplineSet
EndChar

StartChar: equal
Encoding: 61 61 73
Width: 642
Flags: HW
TeX: 380 -147
HStem: 142 50<59.2603 581.689> 336 50<59.3877 581.689>
LayerCount: 2
Fore
SplineSet
59 166 m 0
 59 191 82 192 90 192 c 2
 552 192 l 1
 579 191 582 174 582 166 c 0
 582 156 576 142 549 142 c 2
 92 142 l 2
 62 142 59 159 59 166 c 0
59 360 m 0
 59 365 61 386 91 386 c 2
 552 386 l 1
 579 385 582 368 582 360 c 0
 582 350 576 336 549 336 c 2
 92 336 l 2
 62 336 59 353 59 360 c 0
EndSplineSet
EndChar

StartChar: greater
Encoding: 62 62 74
Width: 642
Flags: HW
TeX: 552 25
DStem2: 132 551 113 503 0.839171 -0.543868<-20.2748 449.256> 113 25 132 -23 0.839171 0.543868<-30.4362 439.638>
LayerCount: 2
Fore
SplineSet
88 -5 m 0
 88 11 105 20 113 25 c 2
 423 226 l 2
 442 239 462 252 482 264 c 1
 482 265 l 1
 462 277 442 289 423 302 c 2
 113 503 l 2
 105 508 88 517 88 533 c 0
 88 546 99 558 112 558 c 0
 120 558 127 554 132 551 c 2
 527 295 l 2
 549 281 551 277 553 264 c 1
 551 251 549 247 527 233 c 2
 132 -23 l 2
 127 -26 120 -30 112 -30 c 0
 99 -30 88 -18 88 -5 c 0
EndSplineSet
EndChar

StartChar: question
Encoding: 63 63 75
Width: 496
Flags: HW
TeX: 694 0
HStem: 0 78<194 272> 652 51<132.463 338.492>
VStem: 194 78<0 78> 201 63<177 323.542> 373 64<495.004 618.863>
LayerCount: 2
Fore
SplineSet
58 650 m 1
 111 684 165 703 237 703 c 0
 401 703 437 613 437 553 c 0
 437 473 379 439 364 426 c 0
 266 341 264 254 264 213 c 2
 264 177 l 1
 202 177 l 1
 202 189 201 201 201 213 c 0
 201 397 318 460 346 488 c 0
 364 506 373 531 373 556 c 0xd8
 373 633 316 652 242 652 c 0
 176 652 130 637 77 597 c 1
 58 650 l 1
EndSplineSet
Refer: 58 46 S 1 0 0 1 88 -0 2
EndChar

StartChar: at
Encoding: 64 64 76
Width: 700
Flags: HW
TeX: 694 0
HStem: -8 50<305.948 528.314> 124 51<390.436 513.3> 520 50<388.874 512.573> 652 51<306.564 487.272>
VStem: 58 61<236.591 459.561> 261 61<254.274 443.331> 580 61<252.797 440.044>
LayerCount: 2
Fore
SplineSet
58 347 m 0
 58 553 225 703 407 703 c 0
 456 703 513 689 556 650 c 0
 634 580 641 446 641 354 c 0
 641 201 538 124 451 124 c 0
 348 124 261 222 261 347 c 0
 261 479 353 570 451 570 c 0
 494 570 529 554 559 531 c 1
 543 578 507 652 406 652 c 0
 260 652 119 525 119 347 c 0
 119 192 236 42 411 42 c 0
 508 42 569 78 587 82 c 0
 594 83 601 83 608 83 c 2
 641 83 l 1
 590 34 508 -8 409 -8 c 0
 221 -8 58 145 58 347 c 0
322 348 m 0
 322 251 381 175 451 175 c 0
 518 175 580 247 580 347 c 0
 580 444 521 520 451 520 c 0
 373 520 322 435 322 348 c 0
EndSplineSet
EndChar

StartChar: A
Encoding: 65 65 77
Width: 675
Flags: HW
TeX: 694 0
HStem: 0 21G<29 101.619 564.286 645> 210 53<195 471> 683 20G<291.319 382.681>
DStem2: 29 0 94 0 0.358534 0.933517<23.3047 248.026 305.032 697.11> 375 703 333 630 0.358534 -0.933517<53.0883 445.167 501.814 726.893>
AnchorPoint: "ogonek" 581 0 basechar 0
AnchorPoint: "below" 337 0 basechar 0
AnchorPoint: "above" 337 711 basechar 0
LayerCount: 2
Fore
SplineSet
29 0 m 1
 299 703 l 1
 375 703 l 1
 645 0 l 1
 572 0 l 1
 491 210 l 1
 174 210 l 1
 94 0 l 1
 29 0 l 1
195 263 m 1
 471 263 l 1
 349 585 l 1
 333 630 l 1
 195 263 l 1
EndSplineSet
EndChar

StartChar: B
Encoding: 66 66 78
Width: 687
Flags: HW
TeX: 694 0
HStem: 0 53<166 457.808> 336 50<167 413.289> 641 54<167 435.265>
VStem: 99 67<53 336 386 641> 535 64<463.682 569.553> 562 66<130.605 249.192>
AnchorPoint: "below" 342 0 basechar 0
AnchorPoint: "above" 342 711 basechar 0
LayerCount: 2
Fore
SplineSet
99 0 m 1
 99 695 l 1
 323 695 l 2
 529 695 599 587 599 520 c 0xf8
 599 489 582 402 417 363 c 1
 527 348 628 282 628 188 c 0xf4
 628 89 523 14 403 2 c 0
 385 0 368 0 350 0 c 2
 99 0 l 1
166 53 m 1
 326 53 l 2
 502 53 562 134 562 189 c 0xf4
 562 241 502 336 314 336 c 2
 167 336 l 1
 166 297 l 1
 166 53 l 1
166 386 m 1
 295 386 l 1
 376 389 414 392 474 429 c 0
 513 453 535 485 535 518 c 0xf8
 535 567 473 641 297 641 c 2
 167 641 l 1
 166 605 l 1
 166 386 l 1
EndSplineSet
EndChar

StartChar: C
Encoding: 67 67 79
Width: 671
Flags: HW
TeX: 694 0
HStem: -17 53<317.284 541.56> 658 53<318.047 534.228>
VStem: 81 70<224.935 470.354>
AnchorPoint: "below" 413 0 basechar 0
AnchorPoint: "above" 413 711 basechar 0
LayerCount: 2
Fore
SplineSet
81 347 m 0
 81 536 214 711 413 711 c 0
 501 711 560 693 606 677 c 1
 593 608 l 1
 548 632 501 658 412 658 c 0
 261 658 151 515 151 347 c 0
 151 185 256 36 413 36 c 0
 521 36 558 64 612 97 c 1
 617 39 l 1
 561 7 519 -17 413 -17 c 0
 214 -17 81 158 81 347 c 0
EndSplineSet
EndChar

StartChar: D
Encoding: 68 68 80
Width: 746
Flags: HW
TeX: 694 0
HStem: 0 53<167 453.126> 641 54<167 450.066>
VStem: 98 69<53 641> 618 69<220.416 464.6>
AnchorPoint: "below" 370 0 basechar 0
AnchorPoint: "above" 370 711 basechar 0
LayerCount: 2
Fore
SplineSet
98 0 m 1
 98 695 l 1
 352 695 l 2
 580 695 687 501 687 342 c 0
 687 152 549 19 400 2 c 0
 383 0 365 0 348 0 c 2
 98 0 l 1
167 53 m 1
 335 53 l 2
 562 53 618 223 618 342 c 0
 618 463 562 641 335 641 c 2
 167 641 l 1
 167 53 l 1
EndSplineSet
EndChar

StartChar: E
Encoding: 69 69 81
Width: 625
Flags: HW
TeX: 694 0
HStem: 0 56<168 581> 334 53<168 537> 640 53<168 566>
VStem: 98 70<56 334 387 640>
AnchorPoint: "ogonek" 340 0 basechar 0
AnchorPoint: "below" 340 0 basechar 0
AnchorPoint: "above" 340 711 basechar 0
LayerCount: 2
Fore
SplineSet
98 0 m 1
 98 693 l 1
 566 693 l 1
 566 640 l 1
 168 640 l 1
 168 387 l 1
 537 387 l 1
 537 334 l 1
 168 334 l 1
 168 56 l 1
 581 56 l 1
 581 0 l 1
 98 0 l 1
EndSplineSet
EndChar

StartChar: F
Encoding: 70 70 82
Width: 596
Flags: HW
TeX: 694 0
HStem: 0 21G<98 168> 320 53<168 508> 640 53<168 552>
VStem: 98 70<0 320 373 640>
AnchorPoint: "below" 325 0 basechar 0
AnchorPoint: "above" 325 711 basechar 0
LayerCount: 2
Fore
SplineSet
98 0 m 1
 98 693 l 1
 552 693 l 1
 552 640 l 1
 168 640 l 1
 168 373 l 1
 508 373 l 1
 508 320 l 1
 168 320 l 1
 168 0 l 1
 98 0 l 1
EndSplineSet
EndChar

StartChar: G
Encoding: 71 71 83
Width: 700
Flags: HW
TeX: 694 0
HStem: -17 53<316.985 545.624> 275 53<407 564> 658 53<318.465 532.375>
VStem: 81 70<223.84 469.28> 564 65<56.8902 275>
AnchorPoint: "below" 411 0 basechar 0
AnchorPoint: "above" 412 711 basechar 0
LayerCount: 2
Fore
SplineSet
81 347 m 0
 81 536 213 711 412 711 c 2
 414 711 l 2
 492 711 545 698 620 663 c 1
 608 594 l 1
 566 622 513 658 414 658 c 0
 256 658 151 510 151 347 c 0
 151 174 266 36 410 36 c 0
 477 36 521 50 564 63 c 1
 564 275 l 1
 407 275 l 1
 407 328 l 1
 629 328 l 1
 629 32 l 1
 549 -4 476 -17 411 -17 c 0
 225 -17 81 147 81 347 c 0
EndSplineSet
EndChar

StartChar: H
Encoding: 72 72 84
Width: 708
Flags: HW
TeX: 694 0
HStem: 0 21G<98 168 539 609> 335 53<168 539> 675 20G<98 168 539 609>
VStem: 98 70<0 335 388 695> 539 70<0 335 388 695>
AnchorPoint: "below" 354 0 basechar 0
AnchorPoint: "above" 354 711 basechar 0
LayerCount: 2
Fore
SplineSet
98 0 m 1
 98 695 l 1
 168 695 l 1
 168 388 l 1
 539 388 l 1
 539 695 l 1
 609 695 l 1
 609 0 l 1
 539 0 l 1
 539 335 l 1
 168 335 l 1
 168 0 l 1
 98 0 l 1
EndSplineSet
EndChar

StartChar: I
Encoding: 73 73 85
Width: 267
Flags: HW
TeX: 694 0
HStem: 0 21G<98 168> 675 20G<98 168>
VStem: 98 70<0 695>
AnchorPoint: "ogonek" 133 0 basechar 0
AnchorPoint: "below" 133 0 basechar 0
AnchorPoint: "above" 133 711 basechar 0
LayerCount: 2
Fore
SplineSet
98 0 m 1
 98 695 l 1
 168 695 l 1
 168 0 l 1
 98 0 l 1
EndSplineSet
EndChar

StartChar: J
Encoding: 74 74 86
Width: 483
Flags: HW
TeX: 694 0
HStem: -17 52<104.423 289.611> 675 20G<339 408>
VStem: 339 69<83.5796 695>
AnchorPoint: "below" 226 0 basechar 0
AnchorPoint: "above" 374 711 basechar 0
LayerCount: 2
Fore
SplineSet
43 25 m 1
 54 88 l 1
 89 63 130 35 196 35 c 0
 342 35 339 134 339 157 c 2
 339 695 l 1
 408 695 l 1
 408 155 l 2
 408 18 310 -17 223 -17 c 0
 151 -17 89 4 43 25 c 1
EndSplineSet
EndChar

StartChar: K
Encoding: 75 75 87
Width: 704
Flags: HW
TeX: 694 0
HStem: -0 21G<100 166 569.92 660> 675 20G<100 166 543.59 645>
VStem: 100 66<0 224 305 695>
DStem2: 166 305 166 224 0.713036 0.701127<0 158.886 222.524 557.228> 365 420 320 375 0.574769 -0.818316<10.9596 469.567>
AnchorPoint: "below" 380 0 basechar 0
AnchorPoint: "above" 380 711 basechar 0
LayerCount: 2
Fore
SplineSet
100 -0 m 1
 100 695 l 1
 166 695 l 1
 166 305 l 1
 564 695 l 1
 645 695 l 1
 365 420 l 1
 660 -0 l 1
 584 -0 l 1
 320 375 l 1
 166 224 l 1
 166 -0 l 1
 100 -0 l 1
EndSplineSet
EndChar

StartChar: L
Encoding: 76 76 88
Width: 567
Flags: HW
TeX: 694 0
HStem: 0 53<168 523> 675 20G<98 168>
VStem: 98 70<53 695>
AnchorPoint: "below" 310 0 basechar 0
AnchorPoint: "above" 310 711 basechar 0
LayerCount: 2
Fore
SplineSet
98 0 m 1
 98 695 l 1
 168 695 l 1
 168 53 l 1
 523 53 l 1
 523 0 l 1
 98 0 l 1
EndSplineSet
EndChar

StartChar: M
Encoding: 77 77 89
Width: 883
Flags: HW
TeX: 694 0
HStem: 0 21G<101 164 717 780> 675 20G<101 201.145 678.916 780>
VStem: 101 63<0 630> 717 63<0 630>
DStem2: 193 695 164 630 0.374513 -0.927222<49.4085 662.193>
AnchorPoint: "below" 440 0 basechar 0
AnchorPoint: "above" 440 711 basechar 0
LayerCount: 2
Fore
SplineSet
101 0 m 1
 101 695 l 1
 193 695 l 1
 395 199 l 1
 441 81 l 1
 455 121 l 1
 687 695 l 1
 780 695 l 1
 780 0 l 1
 717 0 l 1
 717 630 l 1
 639 430 l 1
 470 17 l 1
 410 17 l 1
 200 534 l 1
 164 630 l 1
 164 0 l 1
 101 0 l 1
EndSplineSet
EndChar

StartChar: N
Encoding: 78 78 90
Width: 708
Flags: HW
TeX: 694 0
HStem: 0 21G<100 163 499.105 608> 675 20G<100 208.895 545 608>
VStem: 100 63<0 637> 545 63<58 695>
DStem2: 198 695 163 637 0.478369 -0.878159<34.1903 725.381>
AnchorPoint: "below" 354 0 basechar 0
AnchorPoint: "above" 354 711 basechar 0
LayerCount: 2
Fore
SplineSet
100 0 m 1
 100 695 l 1
 198 695 l 1
 545 58 l 1
 545 695 l 1
 608 695 l 1
 608 0 l 1
 510 0 l 1
 163 637 l 1
 163 0 l 1
 100 0 l 1
EndSplineSet
EndChar

StartChar: O
Encoding: 79 79 91
Width: 783
Flags: HW
TeX: 694 0
HStem: -17 53<296.46 487.645> 659 52<291.531 487.62>
VStem: 58 70<225.411 473.98> 654 70<227.937 473.98>
AnchorPoint: "ogonek" 391 0 basechar 0
AnchorPoint: "below" 391 0 basechar 0
AnchorPoint: "above" 391 711 basechar 0
LayerCount: 2
Fore
SplineSet
58 346 m 0
 58 554 213 711 391 711 c 0
 568 711 724 555 724 346 c 0
 724 137 567 -17 391 -17 c 0
 214 -17 58 138 58 346 c 0
128 359 m 0
 128 159 255 36 391 36 c 0
 524 36 654 154 654 359 c 0
 654 553 523 659 391 659 c 0
 260 659 128 554 128 359 c 0
EndSplineSet
EndChar

StartChar: P
Encoding: 80 80 92
Width: 658
Flags: HW
TeX: 694 0
HStem: 0 21G<98 168> 295 52<168 446.507> 641 54<167 445.726>
VStem: 98 70<0 295 347 641> 533 66<419.659 568.852>
AnchorPoint: "below" 326 0 basechar 0
AnchorPoint: "above" 326 711 basechar 0
LayerCount: 2
Fore
SplineSet
98 0 m 1
 98 695 l 1
 336 695 l 2
 391 695 439 689 493 659 c 0
 559 622 599 560 599 494 c 0
 599 414 529 295 338 295 c 2
 168 295 l 1
 168 0 l 1
 98 0 l 1
167 347 m 1
 325 347 l 2
 501 347 533 435 533 494 c 0
 533 553 499 641 325 641 c 2
 167 641 l 1
 167 347 l 1
EndSplineSet
EndChar

StartChar: Q
Encoding: 81 81 93
Width: 783
Flags: HW
TeX: 694 111
HStem: -17 52<294.124 474.67> 659 52<294.556 488.544>
VStem: 58 69<219.643 474.022> 656 68<219.754 472.878>
DStem2: 428 195 355 195 0.657458 -0.753491<0 140.814 209.781 209.781>
AnchorPoint: "below" 390 -167 basechar 0
AnchorPoint: "above" 391 711 basechar 0
LayerCount: 2
Fore
SplineSet
58 346 m 0
 58 554 213 711 391 711 c 0
 569 711 724 554 724 346 c 0
 724 210 655 95 566 37 c 1
 695 -111 l 1
 613 -111 l 1
 513 8 l 1
 474 -8 435 -17 392 -17 c 0
 217 -17 58 135 58 346 c 0
127 347 m 0
 127 167 240 35 391 35 c 0
 425 35 452 42 476 50 c 1
 355 195 l 1
 428 195 l 1
 530 78 l 1
 614 137 656 236 656 346 c 0
 656 528 540 659 391 659 c 0
 232 659 127 516 127 347 c 0
EndSplineSet
EndChar

StartChar: R
Encoding: 82 82 94
Width: 671
Flags: HW
TeX: 694 0
HStem: -0 21G<98 167 557.584 641> 322 51<167 355> 641 54<167 460.812>
VStem: 98 69<0 322 373 641> 546 65<443.072 572.215>
DStem2: 418 330 355 322 0.559904 -0.828557<0 359.089>
AnchorPoint: "below" 326 0 basechar 0
AnchorPoint: "above" 326 711 basechar 0
LayerCount: 2
Fore
SplineSet
98 -0 m 1
 98 695 l 1
 328 695 l 2
 538 695 611 582 611 507 c 0
 611 400 492 343 418 330 c 1
 641 -0 l 1
 571 -0 l 1
 355 322 l 1
 167 322 l 1
 167 -0 l 1
 98 -0 l 1
167 373 m 1
 325 373 l 2
 374 373 440 375 493 411 c 0
 518 428 546 461 546 507 c 0
 546 560 506 631 367 640 c 0
 353 641 338 641 324 641 c 2
 167 641 l 1
 167 373 l 1
EndSplineSet
EndChar

StartChar: S
Encoding: 83 83 95
Width: 583
Flags: HW
TeX: 694 0
HStem: -17 57<166.612 379.604> 656 55<197.676 405.412>
VStem: 57 64<468.881 590.3> 460 64<111.841 246.767>
AnchorPoint: "below" 287 0 basechar 0
AnchorPoint: "above" 294 711 basechar 0
LayerCount: 2
Fore
SplineSet
46 53 m 1
 58 122 l 1
 111 83 182 40 288 40 c 0
 399 40 460 114 460 180 c 0
 460 230 426 281 363 306 c 0
 282 338 157 329 87 429 c 0
 72 450 57 483 57 522 c 0
 57 613 144 711 294 711 c 0
 371 711 422 696 486 663 c 1
 474 594 l 1
 435 621 388 656 294 656 c 0
 188 656 121 595 121 530 c 0
 121 485 154 440 215 417 c 0
 251 404 347 387 381 374 c 0
 484 336 524 253 524 187 c 0
 524 83 429 -17 287 -17 c 0
 185 -17 105 17 46 53 c 1
EndSplineSet
EndChar

StartChar: T
Encoding: 84 84 96
Width: 725
Flags: HW
TeX: 694 0
HStem: 0 21G<327 397> 639 53<37 327 397 686>
VStem: 327 70<0 639>
AnchorPoint: "below" 362 0 basechar 0
AnchorPoint: "above" 362 711 basechar 0
LayerCount: 2
Fore
SplineSet
37 639 m 1
 37 692 l 1
 686 692 l 1
 686 639 l 1
 397 639 l 1
 397 0 l 1
 327 0 l 1
 327 639 l 1
 37 639 l 1
EndSplineSet
EndChar

StartChar: U
Encoding: 85 85 97
Width: 692
Flags: HW
TeX: 694 0
HStem: -17 53<257.839 438.484> 675 20G<98 168 528 593>
VStem: 98 70<134.303 695> 528 65<134.684 695>
AnchorPoint: "ogonek" 347 0 basechar 0
AnchorPoint: "below" 347 0 basechar 0
AnchorPoint: "above" 346 711 basechar 0
LayerCount: 2
Fore
SplineSet
98 247 m 2
 98 695 l 1
 168 695 l 1
 168 242 l 2
 168 214 166 113 249 62 c 0
 278 44 313 36 347 36 c 0
 407 36 528 63 528 240 c 2
 528 695 l 1
 593 695 l 1
 593 242 l 2
 593 69 461 -17 347 -17 c 0
 225 -17 120 72 101 194 c 0
 98 212 98 229 98 247 c 2
EndSplineSet
EndChar

StartChar: V
Encoding: 86 86 98
Width: 675
Flags: HW
TeX: 694 0
ItalicCorrection: 14
HStem: -5 21G<289.886 384.086> 675 20G<14 96.0471 584.902 659>
DStem2: 88 695 14 695 0.375951 -0.92664<0 678.523> 340 65 376 -5 0.374813 0.9271<0 678.901>
AnchorPoint: "below" 337 0 basechar 0
AnchorPoint: "above" 336 711 basechar 0
LayerCount: 2
Fore
SplineSet
14 695 m 1
 88 695 l 1
 327 101 l 1
 340 65 l 1
 427 285 l 1
 593 695 l 1
 659 695 l 1
 376 -5 l 1
 298 -5 l 1
 14 695 l 1
EndSplineSet
EndChar

StartChar: W
Encoding: 87 87 99
Width: 967
Flags: HW
TeX: 694 0
ItalicCorrection: 14
HStem: -5 21G<219.943 301.986 661.012 745.057> 675 20G<14 87.9906 443.035 525.077 884.005 951>
DStem2: 82 695 14 695 0.289856 -0.95707<0 654.295> 330 296 422 416 0.286722 0.958014<-195.59 324.573> 519 695 486 605 0.283155 -0.959074<51.5799 656.884> 705 65 739 -5 0.289856 0.95707<0 656.578>
AnchorPoint: "below" 482 0 basechar 0
AnchorPoint: "above" 482 711 basechar 0
LayerCount: 2
Fore
SplineSet
14 695 m 1
 82 695 l 1
 209 271 l 1
 245 147 258 107 266 65 c 1
 276 108 l 1
 330 296 l 1
 449 695 l 1
 519 695 l 1
 629 333 l 1
 660 226 693 119 705 65 c 1
 711 99 742 199 768 288 c 2
 890 695 l 1
 951 695 l 1
 739 -5 l 1
 667 -5 l 1
 514 506 l 1
 486 605 l 1
 481 630 l 1
 473 592 l 1
 422 416 l 1
 296 -5 l 1
 226 -5 l 1
 14 695 l 1
EndSplineSet
EndChar

StartChar: X
Encoding: 88 88 100
Width: 675
Flags: HW
TeX: 694 0
HStem: 0 21G<14 109.717 558.591 659> 675 20G<29 129.636 520.018 615>
DStem2: 14 0 95 0 0.599816 0.800138<48.5851 443.386 525 868.6> 114 695 29 695 0.617071 -0.786907<0 349.07 429.334 830.753>
AnchorPoint: "below" 336 0 basechar 0
AnchorPoint: "above" 336 711 basechar 0
LayerCount: 2
Fore
SplineSet
14 0 m 1
 293 367 l 1
 29 695 l 1
 114 695 l 1
 329 420 l 1
 535 695 l 1
 615 695 l 1
 365 366 l 1
 659 0 l 1
 574 0 l 1
 329 318 l 1
 95 0 l 1
 14 0 l 1
EndSplineSet
EndChar

StartChar: Y
Encoding: 89 89 101
Width: 675
Flags: HW
TeX: 694 0
ItalicCorrection: 26
HStem: 0 21G<302 371> 675 20G<2 101.391 580.609 671>
VStem: 302 69<0 278>
DStem2: 87 695 2 695 0.583997 -0.811756<0 434.885> 341 342 371 278 0.583997 0.811756<0 434.885>
AnchorPoint: "below" 336 0 basechar 0
AnchorPoint: "above" 336 711 basechar 0
LayerCount: 2
Fore
SplineSet
2 695 m 1
 87 695 l 1
 341 342 l 1
 595 695 l 1
 671 695 l 1
 371 278 l 1
 371 0 l 1
 302 0 l 1
 302 278 l 1
 2 695 l 1
EndSplineSet
EndChar

StartChar: Z
Encoding: 90 90 102
Width: 642
Flags: HW
TeX: 694 0
HStem: 0 53<152 589> 643 52<73 489>
DStem2: 58 36 152 53 0.578949 0.815364<68.2824 744.453>
AnchorPoint: "below" 324 0 basechar 0
AnchorPoint: "above" 324 711 basechar 0
LayerCount: 2
Fore
SplineSet
58 0 m 1
 58 36 l 1
 489 643 l 1
 73 643 l 1
 73 695 l 1
 583 695 l 1
 583 660 l 1
 152 53 l 1
 589 53 l 1
 589 0 l 1
 58 0 l 1
EndSplineSet
EndChar

StartChar: bracketleft
Encoding: 91 91 103
Width: 294
Flags: HW
TeX: 750 222
HStem: -222 50<176 270> 700 50<176 270>
VStem: 113 157<-222 -172 700 750> 113 63<-172 700>
LayerCount: 2
Fore
SplineSet
113 -222 m 1xe0
 113 750 l 1
 270 750 l 1
 270 700 l 1xe0
 176 700 l 1
 176 -172 l 1xd0
 270 -172 l 1
 270 -222 l 1
 113 -222 l 1xe0
EndSplineSet
EndChar

StartChar: backslash
Encoding: 92 92 104
Width: 525
Flags: HW
TeX: 750 222
DStem2: 115 712 64 705 0.361734 -0.932281<-31.1385 973.613>
LayerCount: 2
Fore
SplineSet
59 724 m 0
 59 736 68 747 80 749 c 1
 87 749 l 1
 105 745 108 730 115 712 c 2
 457 -169 l 2
 461 -178 465 -187 465 -197 c 0
 465 -206 461 -220 438 -221 c 1
 430 -220 432 -220 424 -214 c 1
 415 -204 412 -192 407 -179 c 2
 64 705 l 2
 62 711 59 717 59 724 c 0
EndSplineSet
EndChar

StartChar: bracketright
Encoding: 93 93 105
Width: 294
Flags: HW
TeX: 750 222
HStem: -222 50<23 117> 700 50<23 117>
VStem: 23 157<-222 -172 700 750> 117 63<-172 700>
LayerCount: 2
Fore
SplineSet
23 -172 m 1xe0
 117 -172 l 1
 117 700 l 1xd0
 23 700 l 1
 23 750 l 1
 180 750 l 1
 180 -222 l 1
 23 -222 l 1
 23 -172 l 1xe0
EndSplineSet
EndChar

StartChar: asciicircum
Encoding: 94 94 106
Width: 642
Flags: HW
TeX: 694 0
HStem: 472 148
DStem2: 138 472 188 472 0.727655 0.685943<36.3828 214.06> 346 620 320 591 0.727655 -0.685943<0.973298 179.379>
LayerCount: 2
Fore
SplineSet
138 472 m 1
 295 620 l 1
 346 620 l 1
 503 472 l 1
 453 472 l 1
 320 591 l 1
 188 472 l 1
 138 472 l 1
EndSplineSet
EndChar

StartChar: underscore
Encoding: 95 95 107
Width: 817
Flags: HW
TeX: 0 263
HStem: -264 40<88.0109 727.984>
LayerCount: 2
Fore
SplineSet
88 -244 m 0
 88 -234 97 -224 115 -224 c 2
 693 -224 l 2
 707 -224 728 -223 728 -244 c 0
 728 -264 706 -264 700 -264 c 2
 116 -264 l 2
 103 -264 88 -261 88 -244 c 0
EndSplineSet
EndChar

StartChar: a
Encoding: 97 97 109
Width: 492
Flags: HW
TeX: 472 0
HStem: -8 50<147.74 274.389> -0 21G<348 411> 234 31<230.767 346> 438 47<141.116 305.358>
VStem: 55 62<70.3245 169.561> 346 65<0 69 83.0029 234 265 395.431>
AnchorPoint: "ogonek" 380 0 basechar 0
AnchorPoint: "affricate-below" 492 -167 basechar 0
AnchorPoint: "affricate-above" 492 695 basechar 0
AnchorPoint: "below" 246 0 basechar 0
AnchorPoint: "above" 246 484 basechar 0
LayerCount: 2
Fore
SplineSet
55 115 m 0
 55 175 108 260 346 265 c 1
 346 307 l 2
 346 342 344 374 319 403 c 0
 291 437 256 438 245 438 c 0
 164 438 119 406 87 386 c 1
 82 442 l 1
 133 469 181 485 246 485 c 0
 355 485 405 400 410 335 c 1
 411 301 l 1
 411 -0 l 1
 348 -0 l 1x7c
 348 69 l 1
 305 16 238 -8 173 -8 c 2
 166 -8 l 2
 84 -8 55 69 55 115 c 0
117 117 m 0
 117 66 173 42 220 42 c 0xbc
 260 42 346 59 346 145 c 2
 346 234 l 1
 212 233 117 187 117 117 c 0
EndSplineSet
EndChar

StartChar: b
Encoding: 98 98 110
Width: 517
Flags: HW
TeX: 694 0
HStem: -8 50<198.037 323.714> 0 21G<80 145> 430 50<207.31 330.241> 675 20G<80 143>
VStem: 80 65<0 66 78.189 391.317 405 695> 405 64<129.853 347.043>
AnchorPoint: "affricate-below" 517 -167 basechar 0
AnchorPoint: "affricate-above" 517 695 basechar 0
AnchorPoint: "below" 274 0 basechar 0
AnchorPoint: "above" 274 695 basechar 0
LayerCount: 2
Fore
SplineSet
80 0 m 1x7c
 80 695 l 1
 143 695 l 1
 143 405 l 1
 202 476 268 480 293 480 c 0
 392 480 469 372 469 238 c 0
 469 98 380 -8 274 -8 c 0xbc
 196 -8 157 49 145 66 c 1
 145 0 l 1
 80 0 l 1x7c
144 131 m 0xbc
 144 91 185 42 243 42 c 0
 306 42 405 79 405 236 c 0
 405 402 307 430 255 430 c 0
 219 430 187 414 164 389 c 1
 144 363 145 366 145 343 c 2
 145 145 l 2
 145 140 144 136 144 131 c 0xbc
EndSplineSet
EndChar

StartChar: c
Encoding: 99 99 111
Width: 467
Flags: HW
TeX: 472 0
HStem: -8 52<191.652 365.498> 433 52<190.525 377.349>
VStem: 46 65<134.316 342.59>
AnchorPoint: "affricate-below" 467 -167 basechar 0
AnchorPoint: "affricate-above" 467 695 basechar 0
AnchorPoint: "below" 264 0 basechar 0
AnchorPoint: "above" 267 484 basechar 0
LayerCount: 2
Fore
SplineSet
46 237 m 0
 46 366 134 485 267 485 c 0
 339 485 372 473 431 442 c 1
 421 387 l 1
 374 415 344 433 267 433 c 0
 173 433 111 357 111 238 c 0
 112 103 190 44 265 44 c 0
 355 44 403 86 432 111 c 1
 437 55 l 1
 392 18 340 -8 264 -8 c 0
 142 -8 46 100 46 237 c 0
EndSplineSet
EndChar

StartChar: d
Encoding: 100 100 112
Width: 517
Flags: HW
TeX: 694 0
HStem: -8 50<184.683 307.836> 0 21G<371 435> 430 50<191.545 317.276> 675 20G<372 435>
VStem: 46 65<124.83 341.619> 371 64<0 73 86.4946 397.585 410 695>
AnchorPoint: "affricate-below" 517 -167 basechar 0
AnchorPoint: "affricate-above" 517 695 basechar 0
AnchorPoint: "below" 240 0 basechar 0
AnchorPoint: "above" 240 695 basechar 0
LayerCount: 2
Fore
SplineSet
46 236 m 0
 46 383 140 480 235 480 c 0
 294 480 338 452 372 410 c 1
 372 695 l 1
 435 695 l 1
 435 0 l 1
 371 0 l 1x7c
 371 42 l 1
 370 73 l 1
 336 23 285 -8 228 -8 c 0
 123 -8 46 106 46 236 c 0
111 236 m 0
 111 72 208 42 260 42 c 0
 306 42 335 67 353 91 c 1
 366 113 371 113 371 141 c 2
 371 352 l 2
 371 389 325 430 269 430 c 0xbc
 223 430 111 403 111 236 c 0
EndSplineSet
EndChar

StartChar: e
Encoding: 101 101 113
Width: 467
Flags: HW
TeX: 472 0
HStem: -8 50<192.005 357.757> 250 40<107 379> 434 50<183.187 317.592>
VStem: 42 60<141.766 250 290 340.101>
AnchorPoint: "ogonek" 264 0 basechar 0
AnchorPoint: "affricate-below" 467 -167 basechar 0
AnchorPoint: "affricate-above" 467 695 basechar 0
AnchorPoint: "below" 264 0 basechar 0
AnchorPoint: "above" 248 484 basechar 0
LayerCount: 2
Fore
SplineSet
42 240 m 0
 42 367 127 484 248 484 c 0
 319 484 432 448 433 250 c 1
 102 250 l 1
 102 242 l 2
 102 115 184 42 264 42 c 0
 340 42 389 78 426 111 c 1
 431 56 l 1
 389 21 335 -8 264 -8 c 0
 142 -8 42 99 42 240 c 0
107 290 m 1
 379 290 l 1
 368 402 300 434 248 434 c 0
 179 434 122 371 107 290 c 1
EndSplineSet
EndChar

StartChar: f
Encoding: 102 102 114
Width: 321
Flags: HW
TeX: 694 0
ItalicCorrection: 72
HStem: 0 21G<113 177> 422 50<28 113 177 300> 652 51<199.66 361.277>
VStem: 113 64<0 422 472 629.516>
AnchorPoint: "affricate-below" 321 -167 basechar 0
AnchorPoint: "affricate-above" 321 695 basechar 0
AnchorPoint: "above" 281 695 basechar 0
AnchorPoint: "below" 145 0 basechar 0
LayerCount: 2
Fore
SplineSet
28 422 m 1
 28 472 l 1
 113 472 l 1
 113 536 l 2
 113 568 110 618 167 665 c 0
 195 688 232 703 281 703 c 0
 298 703 322 702 363 695 c 1
 363 638 l 1
 330 648 310 652 278 652 c 0
 237 652 175 638 175 580 c 2
 175 472 l 1
 300 472 l 1
 300 422 l 1
 177 422 l 1
 177 0 l 1
 113 0 l 1
 113 422 l 1
 28 422 l 1
EndSplineSet
EndChar

StartChar: g
Encoding: 103 103 115
Width: 517
Flags: HW
TeX: 472 166
HStem: -184 50<131.359 319.48> 17 50<190.714 302.959> 430 50<201.061 315.241>
VStem: 46 65<148.912 329.91> 372 63<-75.7595 125 135.713 384.237 393 480>
AnchorPoint: "affricate-below" 517 -167 basechar 0
AnchorPoint: "affricate-above" 517 695 basechar 0
AnchorPoint: "below" 257 -167 basechar 0
AnchorPoint: "above" 240 484 basechar 0
LayerCount: 2
Fore
SplineSet
46 237 m 0
 46 379 143 480 243 480 c 0
 312 480 350 433 372 393 c 1
 372 480 l 1
 435 480 l 1
 435 9 l 2
 435 -110 357 -184 257 -184 c 0
 182 -184 132 -168 72 -139 c 1
 72 -85 l 1
 115 -107 168 -134 255 -134 c 0
 309 -134 371 -95 371 12 c 2
 371 90 l 1
 370 125 l 1
 355 87 315 17 232 17 c 0
 134 17 46 110 46 237 c 0
111 237 m 0
 111 135 187 67 260 67 c 0
 348 67 370 171 371 250 c 1
 372 250 l 1
 372 316 l 2
 372 352 344 430 272 430 c 0
 188 430 111 347 111 237 c 0
EndSplineSet
EndChar

StartChar: h
Encoding: 104 104 116
Width: 517
Flags: HW
TeX: 694 0
HStem: 0 21G<80 145 371 435> 430 50<212.458 335.114> 675 20G<80 143>
VStem: 80 63<0 367.493 378 695> 371 64<0 396.536>
AnchorPoint: "affricate-below" 517 -167 basechar 0
AnchorPoint: "affricate-above" 517 695 basechar 0
AnchorPoint: "below" 258 0 basechar 0
AnchorPoint: "above" 258 695 basechar 0
LayerCount: 2
Fore
SplineSet
80 0 m 1
 80 695 l 1
 143 695 l 1
 143 421 l 1
 144 378 l 1
 159 413 203 480 292 480 c 0
 432 480 435 374 435 315 c 2
 435 0 l 1
 371 0 l 1
 371 311 l 2
 371 352 371 430 259 430 c 0
 213 430 145 404 145 262 c 2
 145 0 l 1
 80 0 l 1
EndSplineSet
EndChar

StartChar: j
Encoding: 106 106 118
Width: 254
Flags: HW
TeX: 694 166
HStem: -175 53<-51.933 91.9637> 452 20G<110 174> 631 63<110 173>
VStem: 110 63<631 694> 110 64<-101.73 472>
AnchorPoint: "affricate-below" 254 -167 basechar 0
AnchorPoint: "affricate-above" 254 695 basechar 0
AnchorPoint: "below" 80 -167 basechar 0
LayerCount: 2
Fore
SplineSet
-76 -146 m 1
 -62 -95 l 1
 -32 -113 -9 -122 24 -122 c 0xe8
 63 -122 96 -106 107 -80 c 0
 110 -72 110 -64 110 -55 c 2
 110 472 l 1
 174 472 l 1
 174 -45 l 2
 174 -66 174 -112 127 -149 c 0
 104 -167 77 -175 47 -175 c 0
 10 -175 -32 -167 -76 -146 c 1
EndSplineSet
Refer: 368 183 S 1 0 0 1 13 413 2
EndChar

StartChar: k
Encoding: 107 107 119
Width: 487
Flags: HW
TeX: 694 0
HStem: 0 21G<82 141 386.349 469> 452 20G<347.176 446> 675 20G<82 142>
VStem: 82 60<0 165 245 695>
DStem2: 142 245 141 165 0.704792 0.709414<0 65.578 124.27 319.615> 269 294 228 252 0.562464 -0.826822<11.6655 316.768>
AnchorPoint: "affricate-below" 487 -167 basechar 0
AnchorPoint: "affricate-above" 487 695 basechar 0
AnchorPoint: "below" 276 0 basechar 0
AnchorPoint: "above" 276 695 basechar 0
LayerCount: 2
Fore
SplineSet
82 0 m 1
 82 695 l 1
 142 695 l 1
 142 245 l 1
 367 472 l 1
 446 472 l 1
 269 294 l 1
 469 0 l 1
 400 0 l 1
 228 252 l 1
 141 165 l 1
 141 0 l 1
 82 0 l 1
EndSplineSet
EndChar

StartChar: l
Encoding: 108 108 120
Width: 225
Flags: HW
TeX: 694 0
HStem: 0 21G<80 143> 675 20G<80 143>
VStem: 80 63<0 695>
AnchorPoint: "affricate-below" 225 -167 basechar 0
AnchorPoint: "affricate-above" 225 695 basechar 0
AnchorPoint: "below" 112 0 basechar 0
AnchorPoint: "above" 112 695 basechar 0
LayerCount: 2
Fore
SplineSet
80 0 m 1
 80 695 l 1
 143 695 l 1
 143 0 l 1
 80 0 l 1
EndSplineSet
EndChar

StartChar: m
Encoding: 109 109 121
Width: 808
Flags: HW
TeX: 472 0
HStem: 0 21G<80 145 371 436 663 727> 430 50<212.446 335.578 504.117 627.223> 452 20G<80 142>
VStem: 80 65<0 371.165 375 472> 371 65<0 371.165> 663 64<0 395.164>
AnchorPoint: "affricate-below" 808 -167 basechar 0
AnchorPoint: "affricate-above" 808 695 basechar 0
AnchorPoint: "below" 404 0 basechar 0
AnchorPoint: "above" 404 484 basechar 0
LayerCount: 2
Fore
SplineSet
80 0 m 1
 80 472 l 1
 142 472 l 1xbc
 142 375 l 1
 157 411 202 480 293 480 c 0
 416 480 428 394 433 373 c 1
 450 413 494 480 585 480 c 0
 725 480 727 373 727 315 c 2
 727 0 l 1
 663 0 l 1
 663 311 l 2
 663 353 662 430 550 430 c 0xdc
 477 430 436 364 436 270 c 2
 436 0 l 1
 371 0 l 1
 371 311 l 2
 371 352 371 430 259 430 c 0xdc
 186 430 144 364 144 270 c 0
 144 267 145 265 145 262 c 2
 145 0 l 1
 80 0 l 1
EndSplineSet
EndChar

StartChar: n
Encoding: 110 110 122
Width: 517
Flags: HW
TeX: 472 0
HStem: 0 21G<80 145 371 435> 430 50<212.359 335.244> 452 20G<80 142>
VStem: 80 65<0 370.972 375 472> 371 64<0 395.666>
AnchorPoint: "affricate-below" 517 -167 basechar 0
AnchorPoint: "affricate-above" 517 695 basechar 0
AnchorPoint: "below" 258 0 basechar 0
AnchorPoint: "above" 258 484 basechar 0
LayerCount: 2
Fore
SplineSet
80 0 m 1
 80 472 l 1
 142 472 l 1xb8
 142 375 l 1
 164 426 212 480 292 480 c 0
 433 480 435 372 435 315 c 2
 435 0 l 1
 371 0 l 1
 371 311 l 2
 371 352 371 430 259 430 c 0xd8
 213 430 145 404 145 262 c 2
 145 0 l 1
 80 0 l 1
EndSplineSet
EndChar

StartChar: o
Encoding: 111 111 123
Width: 525
Flags: HW
TeX: 472 0
HStem: -8 52<185.261 339.95> 434 50<181.807 341.068>
VStem: 40 64<133.934 342.329> 419 64<131.763 342.299>
AnchorPoint: "ogonek" 262 0 basechar 0
AnchorPoint: "affricate-below" 525 -167 basechar 0
AnchorPoint: "affricate-above" 525 695 basechar 0
AnchorPoint: "below" 262 0 basechar 0
AnchorPoint: "above" 262 484 basechar 0
LayerCount: 2
Fore
SplineSet
40 236 m 0
 40 378 143 484 262 484 c 0
 388 484 483 368 483 236 c 0
 483 93 378 -8 262 -8 c 0
 139 -8 40 101 40 236 c 0
104 248 m 0
 104 73 208 44 262 44 c 0
 325 44 419 84 419 245 c 0
 419 397 325 434 262 434 c 0
 200 434 104 397 104 248 c 0
EndSplineSet
EndChar

StartChar: p
Encoding: 112 112 124
Width: 517
Flags: HW
TeX: 472 166
HStem: -167 21G<80 145> -8 50<198.28 314.433> 429 51<208.213 321.86> 452 20G<80 143>
VStem: 80 65<-167 66 78.4263 391.05 404 472> 405 64<141.867 332.448>
AnchorPoint: "affricate-below" 517 -167 basechar 0
AnchorPoint: "affricate-above" 517 695 basechar 0
AnchorPoint: "below" 274 -167 basechar 0
AnchorPoint: "above" 274 484 basechar 0
LayerCount: 2
Fore
SplineSet
80 -167 m 1
 80 472 l 1
 143 472 l 1xdc
 143 404 l 1
 203 476 270 480 295 480 c 0
 393 480 469 372 469 238 c 0
 469 86 369 -8 274 -8 c 0
 196 -8 158 49 145 66 c 1
 145 -167 l 1
 80 -167 l 1
145 130 m 2xec
 145 92 185 42 243 42 c 0
 328 42 405 126 405 237 c 0
 405 343 336 429 253 429 c 0
 216 429 185 411 165 389 c 1
 144 363 145 364 145 342 c 2
 145 130 l 2xec
EndSplineSet
EndChar

StartChar: q
Encoding: 113 113 125
Width: 517
Flags: HW
TeX: 472 166
HStem: -167 21G<371 435> -8 50<194.651 308.737> 429 51<199.422 314.559>
VStem: 46 65<135.922 332.545> 372 63<-167 77 89.747 382.132 393 480>
AnchorPoint: "affricate-below" 517 -167 basechar 0
AnchorPoint: "affricate-above" 517 695 basechar 0
AnchorPoint: "below" 240 -167 basechar 0
AnchorPoint: "above" 240 484 basechar 0
LayerCount: 2
Fore
SplineSet
46 235 m 0
 46 374 137 480 242 480 c 0
 323 480 357 418 372 393 c 1
 372 480 l 1
 435 480 l 1
 435 -167 l 1
 371 -167 l 1
 371 42 l 1
 370 77 l 1
 359 58 315 -8 232 -8 c 0
 134 -8 46 94 46 235 c 0
111 235 m 0
 111 127 179 42 262 42 c 0
 325 42 372 101 372 149 c 2
 372 315 l 1
 370 365 336 429 272 429 c 0
 194 429 111 355 111 235 c 0
EndSplineSet
EndChar

StartChar: r
Encoding: 114 114 126
Width: 346
Flags: HW
TeX: 472 0
ItalicCorrection: 14
HStem: 0 21G<80 143> 424 56<242.814 330> 452 20G<80 140>
VStem: 80 63<0 328.173 349 472>
AnchorPoint: "affricate-below" 346 -167 basechar 0
AnchorPoint: "affricate-above" 346 695 basechar 0
AnchorPoint: "below" 112 0 basechar 0
AnchorPoint: "above" 205 484 basechar 0
LayerCount: 2
Fore
SplineSet
80 0 m 1
 80 472 l 1
 140 472 l 1xb0
 140 396 l 1
 141 349 l 1
 160 395 215 478 330 480 c 1
 330 424 l 1
 250 422 143 375 143 236 c 2xd0
 143 0 l 1
 80 0 l 1
EndSplineSet
EndChar

StartChar: s
Encoding: 115 115 127
Width: 402
Flags: HW
TeX: 472 0
HStem: -8 52<97.0582 288.894> 435 50<119.375 311.614>
VStem: 35 58<312.912 408.976> 320 58<74.4434 175.046>
AnchorPoint: "affricate-below" 402 -167 basechar 0
AnchorPoint: "affricate-above" 402 695 basechar 0
AnchorPoint: "below" 208 0 basechar 0
AnchorPoint: "above" 204 484 basechar 0
LayerCount: 2
Fore
SplineSet
29 39 m 1
 39 97 l 1
 85 68 131 44 207 44 c 0
 298 44 320 93 320 126 c 0
 320 172 275 195 251 203 c 0
 197 220 109 216 58 284 c 0
 45 302 35 324 35 352 c 0
 35 405 65 484 205 485 c 1
 208 485 l 2
 266 485 304 476 360 451 c 1
 350 396 l 1
 295 424 259 435 198 435 c 0
 109 435 93 387 93 360 c 0
 93 332 113 303 156 290 c 0
 176 284 245 274 275 263 c 0
 322 246 378 204 378 132 c 0
 378 76 347 -8 208 -8 c 0
 136 -8 80 11 29 39 c 1
EndSplineSet
EndChar

StartChar: t
Encoding: 116 116 128
Width: 379
Flags: HW
TeX: 607 0
HStem: -8 52<192.589 305.631> 422 50<19 114 176 331>
VStem: 114 62<59.0442 422 472 607>
AnchorPoint: "affricate-below" 379 -167 basechar 0
AnchorPoint: "affricate-above" 379 695 basechar 0
AnchorPoint: "below" 175 0 basechar 0
AnchorPoint: "above" 145 607 basechar 0
LayerCount: 2
Fore
SplineSet
19 422 m 1
 19 472 l 1
 115 472 l 1
 115 607 l 1
 176 607 l 1
 176 472 l 1
 331 472 l 1
 331 422 l 1
 176 422 l 1
 176 138 l 2
 176 110 178 44 233 44 c 0
 290 44 324 76 336 85 c 1
 349 36 l 1
 307 10 258 -8 197 -8 c 0
 117 -8 114 87 114 131 c 2
 114 422 l 1
 19 422 l 1
EndSplineSet
EndChar

StartChar: u
Encoding: 117 117 129
Width: 517
Flags: HW
TeX: 472 0
HStem: -8 47<159.654 291.235> 0 21G<372 435> 452 20G<80 145 371 435>
VStem: 80 65<56.3163 472> 371 64<0 86 96.9781 472>
AnchorPoint: "ogonek" 404 0 basechar 0
AnchorPoint: "affricate-below" 517 -167 basechar 0
AnchorPoint: "affricate-above" 517 695 basechar 0
AnchorPoint: "below" 258 0 basechar 0
AnchorPoint: "above" 258 484 basechar 0
LayerCount: 2
Fore
SplineSet
80 133 m 2
 80 472 l 1
 145 472 l 1
 145 122 l 2
 145 67 154 39 237 39 c 0xb8
 306 39 371 83 371 175 c 2
 371 472 l 1
 435 472 l 1
 435 0 l 1
 372 0 l 1x78
 372 86 l 1
 337 27 269 -8 196 -8 c 0
 86 -8 80 73 80 133 c 2
EndSplineSet
EndChar

StartChar: v
Encoding: 118 118 130
Width: 458
Flags: HW
TeX: 472 0
ItalicCorrection: 14
HStem: -3 21G<183.547 272.495> 452 20G<14 85.4202 372.58 443>
DStem2: 78 472 14 472 0.349177 -0.937057<0 434.108> 229 65 265 -3 0.350907 0.93641<0 434.106>
AnchorPoint: "affricate-below" 458 -167 basechar 0
AnchorPoint: "affricate-above" 458 695 basechar 0
AnchorPoint: "below" 228 0 basechar 0
AnchorPoint: "above" 228 484 basechar 0
LayerCount: 2
Fore
SplineSet
14 472 m 1
 78 472 l 1
 229 65 l 1
 380 472 l 1
 443 472 l 1
 265 -3 l 1
 191 -3 l 1
 14 472 l 1
EndSplineSet
EndChar

StartChar: w
Encoding: 119 119 131
Width: 692
Flags: HW
TeX: 472 0
ItalicCorrection: 14
HStem: -3 21G<152.895 261.5 452.976 537.105> 452 20G<14 126.5 308.953 416 608.966 676>
DStem2: 77 472 14 472 0.291963 -0.95643<0 424.01> 373 472 384 246 0.288406 -0.957508<53.6011 424.603> 494 65 531 -3 0.291963 0.95643<0 424.594>
AnchorPoint: "affricate-below" 692 -167 basechar 0
AnchorPoint: "affricate-above" 692 695 basechar 0
AnchorPoint: "below" 345 0 basechar 0
AnchorPoint: "above" 344 484 basechar 0
LayerCount: 2
Fore
SplineSet
14 472 m 1
 77 472 l 1
 176 147 176 147 196 65 c 1
 200 95 219 154 237 214 c 2
 315 472 l 1
 373 472 l 1
 459 187 472 147 494 65 c 1
 510 124 l 1
 615 472 l 1
 676 472 l 1
 531 -3 l 1
 459 -3 l 1
 384 246 l 1
 357 343 346 375 341 408 c 1
 335 366 299 241 224 -3 c 1
 159 -3 l 1
 14 472 l 1
EndSplineSet
EndChar

StartChar: x
Encoding: 120 120 132
Width: 458
Flags: HW
TeX: 472 0
HStem: -0 21G<0 85.8792 370.541 458> 452 20G<6 94.1749 353.372 440>
DStem2: 0 -0 71 -0 0.615903 0.787822<43.7291 301.657 366.875 599.12> 78 472 6 472 0.627107 -0.778933<0 235.357 299.229 560.805>
AnchorPoint: "affricate-below" 458 -167 basechar 0
AnchorPoint: "affricate-above" 458 695 basechar 0
AnchorPoint: "below" 229 0 basechar 0
AnchorPoint: "above" 229 484 basechar 0
LayerCount: 2
Fore
SplineSet
0 -0 m 1
 197 243 l 1
 197 244 l 1
 6 472 l 1
 78 472 l 1
 226 289 l 1
 369 472 l 1
 440 472 l 1
 254 243 l 1
 458 -0 l 1
 386 -0 l 1
 226 207 l 1
 225 207 l 1
 71 -0 l 1
 0 -0 l 1
EndSplineSet
EndChar

StartChar: y
Encoding: 121 121 133
Width: 458
Flags: HW
TeX: 472 166
ItalicCorrection: 14
HStem: -175 51<28.7938 158.082> 452 20G<14 87.062 336.5 443>
DStem2: 79 472 14 472 0.378792 -0.925482<0 433.926>
AnchorPoint: "affricate-below" 458 -167 basechar 0
AnchorPoint: "affricate-above" 458 695 basechar 0
AnchorPoint: "below" 228 -167 basechar 0
AnchorPoint: "above" 231 484 basechar 0
LayerCount: 2
Fore
SplineSet
14 472 m 1
 79 472 l 1
 183 214 l 1
 222 111 227 96 234 65 c 1
 240 105 293 247 380 472 c 1
 443 472 l 1
 246 -39 l 2
 223 -98 190 -175 107 -175 c 0
 79 -175 47 -171 29 -168 c 1
 24 -112 l 1
 43 -117 77 -124 107 -124 c 0
 163 -124 179 -74 201 -16 c 0
 204 -8 205 -3 205 1 c 0
 205 7 203 11 199 20 c 2
 14 472 l 1
EndSplineSet
EndChar

StartChar: z
Encoding: 122 122 134
Width: 450
Flags: HW
TeX: 472 0
HStem: 0 50<117 423> 423 49<44 332>
DStem2: 29 34 117 50 0.614502 0.788915<66.6988 493.082>
AnchorPoint: "affricate-below" 450 -167 basechar 0
AnchorPoint: "affricate-above" 450 695 basechar 0
AnchorPoint: "below" 226 0 basechar 0
AnchorPoint: "above" 226 484 basechar 0
LayerCount: 2
Fore
SplineSet
29 0 m 1
 29 34 l 1
 332 423 l 1
 44 423 l 1
 44 472 l 1
 419 472 l 1
 419 439 l 1
 117 50 l 1
 423 50 l 1
 423 0 l 1
 29 0 l 1
EndSplineSet
EndChar

StartChar: braceleft
Encoding: 123 123 135
Width: 525
Flags: HW
TeX: 750 222
HStem: -222 50<320.063 462> 239 50<62 121.063> 700 50<318.916 462>
VStem: 230 64<-148.984 181.356 346.417 674.371>
CounterMasks: 1 e0
LayerCount: 2
Fore
SplineSet
62 239 m 1
 62 289 l 1
 135 290 220 319 229 394 c 1
 230 418 l 1
 230 627 l 2
 230 724 324 750 425 750 c 2
 462 750 l 1
 462 700 l 1
 437 700 l 2
 312 700 294 672 294 620 c 2
 294 415 l 2
 294 297 183 272 152 267 c 1
 123 264 l 1
 169 262 294 239 294 113 c 2
 294 -92 l 2
 294 -120 293 -151 353 -165 c 0
 386 -172 423 -172 462 -172 c 1
 462 -222 l 1
 425 -222 l 2
 287 -222 237 -168 231 -119 c 0
 230 -110 230 -101 230 -92 c 2
 230 110 l 1
 229 131 230 142 221 162 c 0
 198 211 133 238 62 239 c 1
EndSplineSet
EndChar

StartChar: bar
Encoding: 124 124 136
Width: 292
Flags: HW
TeX: 750 222
VStem: 125 40<-220.998 748.996>
LayerCount: 2
Fore
SplineSet
125 -193 m 2
 125 720 l 2
 125 744 137 749 145 749 c 0
 153 749 165 745 165 720 c 2
 165 -193 l 2
 165 -218 153 -221 145 -221 c 0
 137 -221 125 -218 125 -193 c 2
EndSplineSet
EndChar

StartChar: braceright
Encoding: 125 125 137
Width: 525
Flags: HW
TeX: 750 222
HStem: -222 50<62 205.661> 239 50<401.922 462> 700 50<62 203.937>
VStem: 230 64<-148.514 179.745 346.24 676.091>
CounterMasks: 1 e0
LayerCount: 2
Fore
SplineSet
62 -172 m 1
 87 -172 l 2
 212 -172 230 -144 230 -92 c 2
 230 113 l 2
 230 245 361 259 401 264 c 1
 356 266 230 289 230 415 c 2
 230 620 l 2
 230 662 226 700 86 700 c 2
 62 700 l 1
 62 750 l 1
 99 750 l 2
 237 750 287 695 293 646 c 0
 294 637 294 629 294 620 c 2
 294 418 l 1
 295 397 294 385 303 365 c 0
 326 316 391 290 462 289 c 1
 462 239 l 1
 387 238 303 207 295 134 c 1
 294 110 l 1
 294 -92 l 2
 294 -127 292 -222 99 -222 c 2
 62 -222 l 1
 62 -172 l 1
EndSplineSet
EndChar

StartChar: asciitilde
Encoding: 126 126 138
Width: 642
Flags: HW
TeX: 694 0
HStem: 589 50<337.751 486.926> 644 50<153.667 302.761>
VStem: 87 50<589 627.711> 503 51<656.182 695>
LayerCount: 2
Fore
SplineSet
87 589 m 1
 89 660 156 694 215 694 c 0
 292 694 353 639 424 639 c 0
 443 639 497 644 503 695 c 1
 554 695 l 1
 552 624 485 589 426 589 c 0
 349 589 287 644 216 644 c 0
 198 644 143 640 137 589 c 1
 87 589 l 1
EndSplineSet
EndChar

StartChar: Abreve
Encoding: 258 258 140
Width: 675
Flags: HW
TeX: 888 0
HStem: 0 21<29 101.619 564.286 645> 210 53<195 471> 683 20<291.319 382.681> 727 55<259.636 402.348>
VStem: 161 50<828.681 889> 452 51<828.681 889>
DStem2: 29 0 94 0 0.358534 0.933517<23.3047 248.026 305.032 697.11> 375 703 333 630 0.358534 -0.933517<53.0883 445.167 501.814 726.893>
AnchorPoint: "below" 337 0 basechar 0
AnchorPoint: "above" 337 877 basechar 0
LayerCount: 2
Fore
SplineSet
161 889 m 1
 211 889 l 1
 215 818 275 782 332 782 c 0
 389 782 448 819 452 889 c 1
 503 889 l 1
 500 788 417 727 332 727 c 0
 247 727 164 788 161 889 c 1
EndSplineSet
Refer: 77 65 S 1 0 0 1 0 -0 3
AlternateSubs2: "Stilistic set 01 subtable" Abreve.vn
AlternateSubs2: "Latin alternatives subtable" Abreve.vn
Substitution2: "Latin Vietnamese substitutions subtable" Abreve.vn
EndChar

StartChar: Aogonek
Encoding: 260 260 141
Width: 675
Flags: HW
TeX: 694 166
HStem: -184 60<545.676 673.353> 0 21G<29 101.619> 210 53<195 471> 683 20G<291.319 382.681>
VStem: 482 59<-114.993 -58.2502>
DStem2: 29 0 94 0 0.358534 0.933517<23.3047 248.026 305.032 697.11> 375 703 333 630 0.358534 -0.933517<53.0883 445.167 501.814 730.426>
AnchorPoint: "above" 337 711 basechar 0
LayerCount: 2
Fore
SplineSet
29 0 m 1
 299 703 l 1
 375 703 l 1
 645 0 l 1
 642 0 l 2
 623 0 623 0 601 -14 c 0
 573 -31 541 -56 541 -87 c 0
 541 -91 541 -94 542 -98 c 1
 548 -108 557 -124 598 -124 c 0
 628 -124 651 -116 673 -109 c 1
 686 -157 l 1
 637 -180 600 -184 579 -184 c 0
 522 -184 482 -156 482 -113 c 0
 482 -68 530 -24 572 0 c 1
 491 210 l 1
 174 210 l 1
 94 0 l 1
 29 0 l 1
195 263 m 1
 471 263 l 1
 349 585 l 1
 333 630 l 1
 195 263 l 1
EndSplineSet
Ligature2: "Latin ligatures subtable" A uni0328
EndChar

StartChar: Eogonek
Encoding: 280 280 146
Width: 625
Flags: HW
TeX: 694 166
HStem: -184 60<426.115 554.806> 0 56<168 453 469.141 581> 334 53<168 537> 640 53<168 566>
VStem: 98 70<56 334 387 640> 364 58<-117.139 -57.9627>
AnchorPoint: "above" 332 711 basechar 0
LayerCount: 2
Fore
SplineSet
98 0 m 1
 98 693 l 1
 566 693 l 1
 566 640 l 1
 168 640 l 1
 168 387 l 1
 537 387 l 1
 537 334 l 1
 168 334 l 1
 168 56 l 1
 581 56 l 1
 581 0 l 1
 522 0 l 2
 483 0 422 -54 422 -87 c 0
 422 -102 433 -124 479 -124 c 0
 505 -124 530 -117 554 -109 c 1
 568 -157 l 1
 519 -180 482 -184 461 -184 c 0
 404 -184 364 -155 364 -113 c 0
 364 -59 425 -18 453 0 c 1
 98 0 l 1
EndSplineSet
EndChar

StartChar: Gbreve
Encoding: 286 286 147
Width: 700
Flags: HW
TeX: 888 0
HStem: -17 53<316.985 545.624> 275 53<407 564> 658 53<318.465 532.375> 727 55<336.449 479.881>
VStem: 81 70<223.84 469.28> 236 51<830.005 889> 528 50<828.681 889> 564 65<56.8902 275>
LayerCount: 2
Fore
SplineSet
236 889 m 1
 287 889 l 1
 291 817 353 782 408 782 c 0xfe
 465 782 524 819 528 889 c 1
 578 889 l 1
 575 788 493 727 407 727 c 0
 323 727 239 787 236 889 c 1
EndSplineSet
Refer: 83 71 S 1 0 0 1 0 -0 3
EndChar

StartChar: Lacute
Encoding: 313 313 148
Width: 567
Flags: HW
TeX: 850 0
HStem: 0 53<168 523> 675 20<98 168>
VStem: 98 70<53 695>
LayerCount: 2
Fore
SplineSet
19 760 m 1
 191 850 185 850 205 850 c 2
 226 850 l 2
 237 850 247 851 258 851 c 0
 267 851 275 851 284 850 c 1
 95 762 94 760 81 760 c 2
 19 760 l 1
EndSplineSet
Refer: 88 76 S 1 0 0 1 0 -0 3
EndChar

StartChar: Lcaron
Encoding: 317 317 149
Width: 567
Flags: HW
TeX: 888 0
HStem: 0 53<168 523> 675 20<98 168>
VStem: 98 70<53 695> 373 78<695 773> 373 39<620 641.875>
LayerCount: 2
Fore
SplineSet
373 620 m 1xe8
 397 695 l 1
 373 695 l 1xf0
 373 773 l 1
 451 773 l 1
 451 708 l 1xf0
 449 682 442 680 412 620 c 1
 373 620 l 1xe8
EndSplineSet
Refer: 88 76 S 1 0 0 1 0 0 3
EndChar

StartChar: Lslash
Encoding: 321 321 150
Width: 654
Flags: HW
TeX: 694 0
HStem: 0 53<255 609> 675 20G<185 255>
VStem: 185 70<53 297 425 695>
DStem2: 80 279 114 238 0.76623 0.642566<0 92.0203 227.905 412.115>
LayerCount: 2
Fore
SplineSet
80 279 m 1
 185 366 l 1
 185 695 l 1
 255 695 l 1
 255 425 l 1
 396 544 l 1
 430 503 l 1
 255 356 l 1
 255 53 l 1
 609 53 l 1
 609 0 l 1
 185 0 l 1
 185 297 l 1
 114 238 l 1
 80 279 l 1
EndSplineSet
EndChar

StartChar: Eng
Encoding: 330 330 153
Width: 775
Flags: HW
TeX: 694 0
HStem: -17 52<458.728 605.812> -0 21G<98 168> 675 20G<98 168> 679 65<300.864 506.376>
VStem: 98 70<0 556.384 639 695> 646 70<74.948 549.708>
LayerCount: 2
Fore
SplineSet
98 -0 m 1
 98 695 l 1
 168 695 l 1x6c
 168 639 l 1
 221 694 297 744 408 744 c 0x1c
 557 744 716 644 716 451 c 2
 716 155 l 2
 716 18 633 -17 561 -17 c 0
 501 -17 450 3 410 25 c 1
 421 88 l 1
 437 73 470 35 535 35 c 0
 637 35 647 121 647 153 c 0
 647 160 646 165 646 165 c 1
 646 453 l 2
 646 613 509 679 406 679 c 0x9c
 269 679 168 578 168 479 c 2
 168 -0 l 1
 98 -0 l 1
EndSplineSet
EndChar

StartChar: Racute
Encoding: 340 340 155
Width: 671
Flags: HW
TeX: 850 0
HStem: -0 21<98 167 557.584 641> 322 51<167 355> 641 54<167 460.812> 850 0
VStem: 98 69<0 322 373 641> 546 65<443.072 572.215>
DStem2: 418 330 355 322 0.559904 -0.828557<0 359.089>
AnchorPoint: "below" 326 0 basechar 0
AnchorPoint: "above" 326 846 basechar 0
LayerCount: 2
Fore
SplineSet
191 760 m 1
 342 839 l 1
 363 849 l 1
 379 850 l 1
 456 850 l 1
 267 762 265 760 252 760 c 2
 191 760 l 1
EndSplineSet
Refer: 94 82 S 1 0 0 1 -0 -0 3
EndChar

StartChar: Scedilla
Encoding: 350 350 159
Width: 583
Flags: HW
TeX: 694 145
HStem: -163 145 -17 57<166.612 379.604> 656 55<196.174 405.412>
VStem: 57 64<468.881 591.566> 189 127 460 64<113.895 246.743>
DStem2: 189 -163 247 -163 0.469007 0.883195<27.2024 164.177>
LayerCount: 2
Fore
SplineSet
46 53 m 1
 58 122 l 1
 111 83 182 40 288 40 c 0
 399 40 460 114 460 180 c 0
 460 230 426 281 363 306 c 0
 282 338 157 329 87 429 c 0
 72 450 57 483 57 522 c 0
 57 619 150 711 294 711 c 0
 371 711 422 696 486 663 c 1
 474 594 l 1
 435 621 388 656 294 656 c 0
 188 656 121 595 121 530 c 0
 121 485 154 440 215 417 c 0
 247 405 349 386 381 374 c 0
 484 336 524 253 524 187 c 0
 524 82 429 -17 287 -17 c 0
 185 -17 105 17 46 53 c 1
EndSplineSet
Refer: 24 184 S 1 0 0 1 58 0 2
EndChar

StartChar: Uring
Encoding: 366 366 163
Width: 692
Flags: HW
TeX: 888 0
HStem: -17 53<257.839 438.484> 675 20<98 168 528 593> 677 50<296.26 397.241> 844 50<296.175 396.963>
VStem: 98 70<134.303 695> 230 58<735.527 835.913> 405 59<735.649 836.161> 528 65<134.684 695>
LayerCount: 2
Fore
SplineSet
230 786 m 0
 230 841 278 894 347 894 c 0
 404 894 464 853 464 786 c 0
 464 731 416 677 347 677 c 0
 277 677 230 731 230 786 c 0
288 785 m 0xbf
 288 750 300 727 345 727 c 0
 393 727 405 748 405 786 c 0
 405 821 393 844 348 844 c 0
 304 844 288 827 288 785 c 0xbf
EndSplineSet
Refer: 97 85 S 1 0 0 1 0 0 3
EndChar

StartChar: IJ
Encoding: 306 306 168
Width: 733
Flags: HW
TeX: 694 0
HStem: -17 52<353.46 541.29> 0 21<69 139> 675 20G<69 139 589 658>
VStem: 69 70<0 695> 589 69<82.1229 695>
LayerCount: 2
Fore
SplineSet
294 25 m 1
 304 88 l 1
 340 62 381 35 447 35 c 0xb8
 591 35 589 131 589 157 c 2
 589 695 l 1
 658 695 l 1
 658 149 l 2
 658 69 613 -17 473 -17 c 0
 401 -17 343 2 294 25 c 1
EndSplineSet
Refer: 85 73 S 1 0 0 1 -29 0 2
Ligature2: "Latin Dutch ligatures subtable" I J
EndChar

StartChar: dcroat
Encoding: 273 273 170
Width: 517
Flags: HW
TeX: 694 0
HStem: -8 50<184.683 307.836> 0 21G<371 435> 430 50<191.545 317.276> 558 51<176 372 435 549> 675 20G<372 435>
VStem: 46 65<124.83 341.619> 371 64<0 73 86.4946 397.585 410 558 609 695>
LayerCount: 2
Fore
SplineSet
46 236 m 0
 46 383 140 480 235 480 c 0
 294 480 338 452 372 410 c 1
 372 558 l 1
 176 558 l 1
 176 609 l 1
 372 609 l 1
 372 695 l 1
 435 695 l 1
 435 609 l 1
 549 609 l 1
 549 558 l 1
 435 558 l 1
 435 0 l 1
 371 0 l 1x7e
 371 42 l 1
 370 73 l 1
 336 23 285 -8 228 -8 c 0
 123 -8 46 106 46 236 c 0
111 236 m 0
 111 72 208 42 260 42 c 0
 306 42 335 67 353 91 c 1
 366 113 371 113 371 141 c 2
 371 352 l 2
 371 389 325 430 269 430 c 0xbe
 223 430 111 403 111 236 c 0
EndSplineSet
AlternateSubs2: "Stilistic set 01 subtable" dcroat.vn
AlternateSubs2: "Latin alternatives subtable" dcroat.vn
Substitution2: "Latin Vietnamese substitutions subtable" dcroat.vn
EndChar

StartChar: section
Encoding: 167 167 171
Width: 467
Flags: HW
TeX: 694 166
HStem: -175 50<128.62 290.14> 652 51<174.268 327.283>
VStem: 72 62<212.166 335.93 488.647 610.091> 330 63<-83.2908 40.0316 191.456 315.455>
LayerCount: 2
Fore
SplineSet
46 -105 m 1
 56 -48 l 1
 75 -67 124 -125 227 -125 c 0
 298 -125 330 -64 330 -18 c 0
 330 64 236 85 179 116 c 0
 137 139 72 189 72 270 c 0
 72 302 81 362 154 407 c 1
 82 457 72 515 72 546 c 0
 72 624 134 703 236 703 c 0
 307 703 350 678 390 647 c 1
 380 592 l 1
 343 623 309 652 236 652 c 0
 162 652 135 586 135 546 c 0
 135 463 229 442 287 411 c 0
 329 388 393 339 393 258 c 0
 393 227 383 165 311 120 c 1
 383 70 393 13 393 -18 c 0
 393 -95 331 -175 228 -175 c 0
 138 -175 89 -141 46 -105 c 1
134 272 m 0
 134 187 244 155 253 155 c 0
 282 155 330 198 330 257 c 0
 330 345 212 373 212 373 c 1
 181 373 134 327 134 272 c 0
EndSplineSet
EndChar

StartChar: abreve
Encoding: 259 259 172
Width: 492
Flags: HW
TeX: 666 0
HStem: -8 50<147.74 274.389> -0 21<348 411> 234 31<230.767 346> 438 47<141.116 305.358> 526 55<181.985 343.856> 647 20G<91 144.5 380.5 433>
VStem: 55 62<70.3245 169.561> 91 51<617.727 667> 346 65<0 69 83.0029 234 265 395.431> 383 50<619.453 667>
AnchorPoint: "below" 246 0 basechar 0
AnchorPoint: "above" 246 646 basechar 0
LayerCount: 2
Fore
SplineSet
91 667 m 1
 142 667 l 1
 147 592 232 581 262 581 c 0x3d40
 292 581 378 592 383 667 c 1
 433 667 l 1
 430 574 343 526 262 526 c 0
 180 526 94 574 91 667 c 1
EndSplineSet
Refer: 109 97 S 1 0 0 1 0 -0 3
AlternateSubs2: "Stilistic set 01 subtable" abreve.vn
AlternateSubs2: "Latin alternatives subtable" abreve.vn
Substitution2: "Latin Vietnamese substitutions subtable" abreve.vn
EndChar

StartChar: aogonek
Encoding: 261 261 173
Width: 492
Flags: HW
TeX: 472 166
HStem: -184 61<317.905 448.021> -8 50<146.957 274.741> 234 31<230.767 346> 438 47<141.116 305.358>
VStem: 55 62<70.208 169.561> 258 55<-115.616 -57.803> 346 65<0 69 84.3323 234 265 395.431>
AnchorPoint: "above" 246 484 basechar 0
LayerCount: 2
Fore
SplineSet
55 115 m 0
 55 175 108 260 346 265 c 1
 346 307 l 2
 346 342 344 374 319 403 c 0
 291 437 256 438 245 438 c 0
 164 438 119 406 87 386 c 1
 82 442 l 1
 133 469 181 485 246 485 c 0
 355 485 405 400 410 335 c 1
 411 301 l 1
 411 0 l 1
 395 0 l 1
 390 -3 313 -41 313 -85 c 0
 313 -103 328 -123 371 -123 c 0
 391 -123 417 -120 449 -109 c 1
 462 -157 l 1
 413 -179 376 -184 355 -184 c 0
 298 -184 258 -155 258 -113 c 0
 258 -68 304 -25 348 0 c 1
 348 69 l 1
 298 7 222 -8 172 -8 c 2
 165 -8 l 2
 84 -8 55 69 55 115 c 0
117 117 m 0
 117 72 163 42 219 42 c 0
 263 42 346 62 346 145 c 2
 346 234 l 1
 212 233 117 187 117 117 c 0
EndSplineSet
EndChar

StartChar: dcaron
Encoding: 271 271 176
Width: 642
Flags: HW
TeX: 694 0
HStem: -8 50<184.683 307.836> 0 21<371 435> 430 50<191.545 317.276> 675 20<372 435>
VStem: 46 65<124.83 341.619> 371 64<0 73 86.4946 397.585 410 695> 493 78<655 734> 493 39<581 602.583>
LayerCount: 2
Fore
SplineSet
493 581 m 1x3d
 517 655 l 1
 493 655 l 1x3e
 493 734 l 1
 571 734 l 1
 571 669 l 1x3e
 569 643 562 641 532 581 c 1
 493 581 l 1x3d
EndSplineSet
Refer: 112 100 S 1 0 0 1 0 0 2
EndChar

StartChar: eogonek
Encoding: 281 281 178
Width: 467
Flags: HW
TeX: 472 166
HStem: -184 60<272.314 402.356> -8 50<190.17 324.766> 250 40<107 379> 434 50<182.659 316.314>
VStem: 42 60<139.338 250 290 340.101> 212 56<-117.276 -57.433>
AnchorPoint: "above" 248 484 basechar 0
LayerCount: 2
Fore
SplineSet
42 239 m 0
 42 378 137 484 248 484 c 0
 322 484 432 445 433 250 c 1
 102 250 l 1
 102 242 l 2
 102 115 184 42 264 42 c 0
 342 42 392 80 426 111 c 1
 431 56 l 1
 353 -7 268 -37 268 -88 c 0
 268 -103 280 -124 326 -124 c 0
 356 -124 385 -115 403 -109 c 1
 416 -157 l 1
 367 -179 331 -184 310 -184 c 0
 253 -184 212 -155 212 -113 c 0
 212 -63 266 -23 291 -6 c 1
 281 -7 272 -8 262 -8 c 0
 148 -8 42 94 42 239 c 0
107 290 m 1
 379 290 l 1
 368 402 300 434 248 434 c 0
 179 434 122 371 107 290 c 1
EndSplineSet
EndChar

StartChar: gbreve
Encoding: 287 287 179
Width: 517
Flags: HW
TeX: 694 166
HStem: -184 50<131.359 319.48> 17 50<190.714 302.959> 430 50<201.061 315.241> 536 55<202.51 346.873> 675 20G<103 156 393 446>
VStem: 46 65<148.912 329.91> 103 51<636.25 695> 372 63<-75.7595 125 135.713 384.237 393 480> 395 51<638.901 695>
LayerCount: 2
Fore
SplineSet
103 695 m 1
 154 695 l 1
 158 625 219 591 274 591 c 0xfa80
 334 591 391 628 395 695 c 1
 446 695 l 1
 443 594 358 536 274 536 c 0
 187 536 106 597 103 695 c 1
EndSplineSet
Refer: 115 103 S 1 0 0 1 0 -0 3
EndChar

StartChar: lacute
Encoding: 314 314 180
Width: 225
Flags: HW
TeX: 850 0
ItalicCorrection: 104
HStem: 0 21<80 143> 675 20<80 143>
VStem: 33 265 80 63<0 695>
LayerCount: 2
Fore
SplineSet
33 760 m 1
 205 850 199 850 219 850 c 2
 240 850 l 2
 251 850 261 851 272 851 c 0
 281 851 289 851 298 850 c 1
 110 762 108 760 95 760 c 2xe0
 33 760 l 1
EndSplineSet
Refer: 120 108 S 1 0 0 1 0 0 3
EndChar

StartChar: lcaron
Encoding: 318 318 181
Width: 351
Flags: HW
TeX: 694 0
HStem: 0 21<80 143> 675 20<80 143>
VStem: 80 63<0 695> 201 79<655 734> 201 39<581 602.583>
LayerCount: 2
Fore
SplineSet
201 581 m 1xe8
 225 655 l 1
 201 655 l 1xf0
 201 734 l 1
 280 734 l 1
 280 669 l 1xf0
 278 643 270 641 240 581 c 1
 201 581 l 1xe8
EndSplineSet
Refer: 120 108 S 1 0 0 1 0 0 2
EndChar

StartChar: lslash
Encoding: 322 322 182
Width: 314
Flags: HW
TeX: 694 0
ItalicCorrection: 15
HStem: -0 21G<124 187> 675 20G<124 187>
VStem: 124 63<0 302 421 695>
DStem2: 24 284 56 245 0.76434 0.644814<0 88.0406 212.927 317.233>
AnchorPoint: "above" 156 695 basechar 0
LayerCount: 2
Fore
SplineSet
24 284 m 1
 124 368 l 1
 124 695 l 1
 187 695 l 1
 187 421 l 1
 267 488 l 1
 299 450 l 1
 187 355 l 1
 187 -0 l 1
 124 -0 l 1
 124 302 l 1
 56 245 l 1
 24 284 l 1
EndSplineSet
EndChar

StartChar: eng
Encoding: 331 331 185
Width: 517
Flags: HW
TeX: 472 166
HStem: -175 53<217.846 341.175> 0 21G<80 145> 430 50<212.665 335.314> 452 20G<80 142>
VStem: 80 65<0 370.977 375 472> 371 64<-89.567 395.666>
AnchorPoint: "affricate-below" 517 -167 basechar 0
AnchorPoint: "affricate-above" 517 695 basechar 0
AnchorPoint: "below" 258 -167 basechar 0
AnchorPoint: "above" 258 484 basechar 0
LayerCount: 2
Fore
SplineSet
80 0 m 1
 80 472 l 1
 142 472 l 1xdc
 142 375 l 1
 164 426 212 480 292 480 c 0
 433 480 435 372 435 315 c 2
 435 0 l 2
 435 -94 383 -175 306 -175 c 0
 253 -175 209 -157 185 -146 c 1
 208 -95 l 1
 231 -108 251 -122 287 -122 c 0
 325 -122 372 -94 372 -20 c 0
 372 -7 371 -13 371 47 c 2
 371 310 l 2xec
 371 350 372 430 258 430 c 0xec
 193 430 160 376 149 322 c 0
 145 300 145 279 145 257 c 2
 145 0 l 1
 80 0 l 1
EndSplineSet
EndChar

StartChar: sacute
Encoding: 347 347 189
Width: 402
Flags: HW
TeX: 666 0
HStem: -8 52<97.8548 292.24> 435 50<115.668 313.27> 538 129
VStem: 35 58<314.747 411.606> 123 215 320 58<70.3031 174.424>
AnchorPoint: "below" 208 0 basechar 0
AnchorPoint: "above" 204 646 basechar 0
LayerCount: 2
Fore
SplineSet
29 39 m 1
 39 97 l 1
 66 80 121 44 207 44 c 0
 262 44 320 57 320 125 c 0
 320 211 199 208 141 227 c 0
 87 244 35 287 35 353 c 0
 35 458 116 485 206 485 c 0
 265 485 303 476 360 451 c 1
 350 396 l 1
 294 425 258 435 196 435 c 0
 107 435 93 391 93 361 c 0
 93 319 132 298 156 290 c 0
 176 284 245 274 275 263 c 0
 314 249 378 210 378 131 c 0xf4
 378 48 331 -8 209 -8 c 0
 137 -8 80 11 29 39 c 1
EndSplineSet
Refer: 14 180 S 1 0 0 1 -84 0 2
EndChar

StartChar: scaron
Encoding: 353 353 190
Width: 402
Flags: HW
TeX: 666 0
HStem: -8 52<97.8548 292.143> 435 50<116.914 313.27> 536 131
VStem: 35 58<312.824 411.38> 49 297 320 58<69.7919 175.71>
DStem2: 100 667 49 667 0.684496 -0.729016<0 138.524> 198 569 223 536 0.684496 0.729016<0 137.84>
AnchorPoint: "below" 208 0 basechar 0
AnchorPoint: "above" 204 646 basechar 0
LayerCount: 2
Fore
SplineSet
29 39 m 1
 39 97 l 1
 66 80 121 44 207 44 c 0
 267 44 320 60 320 125 c 0
 320 199 221 210 210 212 c 0
 161 222 99 230 58 284 c 0
 43 303 35 325 35 353 c 0
 35 458 118 485 206 485 c 0
 265 485 303 476 360 451 c 1
 350 396 l 1
 294 425 258 435 196 435 c 0
 107 435 93 390 93 360 c 0
 93 319 129 298 156 290 c 0
 176 284 246 273 276 262 c 0
 324 244 378 202 378 130 c 0xf4
 378 47 331 -8 209 -8 c 0
 137 -8 80 11 29 39 c 1
EndSplineSet
Refer: 20 711 S 1 0 0 1 -65 0 2
EndChar

StartChar: scedilla
Encoding: 351 351 191
Width: 402
Flags: HW
TeX: 472 145
HStem: -163 145 -8 52<97.8548 292.24> 435 50<115.699 313.27>
VStem: 35 58<314.553 410.831> 105 127 320 58<70.3031 174.424>
DStem2: 105 -163 163 -163 0.469007 0.883195<27.2024 164.177>
LayerCount: 2
Fore
SplineSet
29 39 m 1
 39 97 l 1
 66 80 121 44 207 44 c 0
 262 44 320 57 320 125 c 0
 320 211 199 208 141 227 c 0
 87 244 35 286 35 353 c 0
 35 463 124 485 206 485 c 0
 265 485 303 476 360 451 c 1
 350 396 l 1
 294 425 258 435 196 435 c 0
 107 435 93 391 93 361 c 0
 93 319 132 298 156 290 c 0
 176 284 245 274 275 263 c 0
 314 249 378 210 378 131 c 0
 378 48 331 -8 209 -8 c 0
 137 -8 80 11 29 39 c 1
EndSplineSet
Refer: 24 184 S 1 0 0 1 -26 0 2
EndChar

StartChar: tcaron
Encoding: 357 357 192
Width: 379
Flags: HW
TeX: 694 0
HStem: -8 52<191.574 305.045> 422 50<19 114 176 331>
VStem: 114 62<58.4579 422 472 607> 292 78<607 685> 292 39<533 554.583>
LayerCount: 2
Fore
SplineSet
19 422 m 1
 19 472 l 1
 115 472 l 1
 115 607 l 1
 176 607 l 1
 176 472 l 1
 331 472 l 1
 331 422 l 1xe8
 176 422 l 1
 176 134 l 2
 176 106 178 44 233 44 c 0
 279 44 310 63 336 85 c 1
 349 36 l 1
 306 10 257 -8 196 -8 c 0
 117 -8 114 74 114 128 c 2
 114 422 l 1
 19 422 l 1
292 533 m 1xe8
 316 607 l 1
 292 607 l 1xf0
 292 685 l 1
 370 685 l 1
 370 621 l 1xf0
 368 595 361 593 331 533 c 1
 292 533 l 1xe8
EndSplineSet
EndChar

StartChar: tcommaaccent
Encoding: 355 355 193
Width: 379
Flags: HW
TeX: 607 145
HStem: -163 145 -8 52<191.574 305.045> 422 50<19 114 176 331>
VStem: 114 62<58.0227 422 472 607> 127 127
DStem2: 127 -163 185 -163 0.469007 0.883195<27.2024 164.177>
LayerCount: 2
Fore
SplineSet
19 422 m 1
 19 472 l 1
 115 472 l 1
 115 607 l 1
 176 607 l 1
 176 472 l 1
 331 472 l 1
 331 422 l 1
 176 422 l 1
 176 134 l 2
 176 106 178 44 233 44 c 0
 279 44 310 63 336 85 c 1
 349 36 l 1
 306 10 257 -8 196 -8 c 0xf0
 117 -8 114 73 114 128 c 2
 114 422 l 1
 19 422 l 1
EndSplineSet
Refer: 24 184 S 1 0 0 1 -4 0 2
EndChar

StartChar: ij
Encoding: 307 307 200
Width: 546
Flags: HW
TeX: 694 166
HStem: -175 53<250.557 390.679> 0 21<88 151> 452 20G<88 151 408 472> 631 63<88 151 408 471>
VStem: 88 63<0 472 631 694> 408 63<631 694> 408 64<-104.356 472>
LayerCount: 2
Fore
SplineSet
229 -146 m 1
 242 -95 l 1
 267 -111 292 -122 325 -122 c 0
 359 -122 395 -109 406 -80 c 0
 409 -72 408 -63 408 -55 c 2
 408 472 l 1
 472 472 l 1
 472 -48 l 2xfa
 472 -135 408 -175 348 -175 c 0
 312 -175 272 -167 229 -146 c 1
EndSplineSet
Refer: 368 183 S 1 0 0 1 311 413 2
Refer: 117 105 S 1 0 0 1 8 0 2
Ligature2: "Latin Dutch ligatures subtable" i j
EndChar

StartChar: exclamdown
Encoding: 161 161 201
Width: 325
Flags: HW
TeX: 527 166
HStem: -167 21G<123 201> 450 78<123 201>
VStem: 123 78<-167 288.375 450 528> 130 63<-81.375 350>
LayerCount: 2
Fore
SplineSet
123 -167 m 1xe0
 130 298 l 1
 131 350 l 1
 193 350 l 1xd0
 201 -143 l 1
 201 -167 l 1xe0
 123 -167 l 1xe0
EndSplineSet
Refer: 58 46 S 1 0 0 1 17 450 2
EndChar

StartChar: questiondown
Encoding: 191 191 202
Width: 496
Flags: HW
TeX: 527 166
HStem: -175 50<151.212 348.696> 450 78<194 272>
VStem: 58 65<-98.1995 40.3457> 194 78<450 528> 202 63<192.612 350>
LayerCount: 2
Fore
SplineSet
58 -25 m 0
 58 54 100 81 121 102 c 0
 183 165 202 236 202 315 c 2
 202 350 l 1
 264 350 l 1
 264 338 265 327 265 315 c 0
 265 132 164 67 142 38 c 0
 126 18 123 -7 123 -27 c 0
 123 -107 166 -125 232 -125 c 0
 301 -125 359 -106 418 -69 c 1
 437 -122 l 1
 383 -151 315 -175 234 -175 c 0xe8
 86 -175 58 -83 58 -25 c 0
EndSplineSet
Refer: 58 46 S 1 0 0 1 88 450 2
EndChar

StartChar: sterling
Encoding: 163 163 203
Width: 671
Flags: HW
TeX: 694 0
HStem: -8 50<120.71 214.647 412.463 552.308> 89 50<123.768 230.469> 322 51<174 259 323 437> 677 51<373.003 495.689>
VStem: 58 62<42.5951 84.8682> 259 64<130.222 322 373 619.614> 548 64<521 615.492> 577 64<66.8932 139>
LayerCount: 2
Fore
SplineSet
58 57 m 0
 58 106 114 139 188 139 c 0
 208 139 229 136 255 129 c 1
 259 155 259 186 259 216 c 2
 259 322 l 1
 174 322 l 1
 174 373 l 1
 259 373 l 1
 259 511 l 2
 259 665 362 728 437 728 c 0
 551 728 612 612 612 527 c 0
 612 507 605 495 583 491 c 1
 570 494 557 496 553 521 c 1
 548 521 l 1xfe
 546 611 503 677 436 677 c 0
 400 677 370 659 352 634 c 0
 325 597 323 549 323 505 c 2
 323 373 l 1
 437 373 l 1
 437 322 l 1
 323 322 l 1
 323 186 l 2
 323 156 322 139 312 108 c 1
 390 73 447 42 505 42 c 0
 548 42 575 78 577 139 c 1
 641 139 l 1xfd
 640 122 640 75 592 33 c 0
 559 4 517 -8 481 -8 c 0
 426 -8 389 9 283 58 c 1
 229 -5 166 -8 146 -8 c 0
 96 -8 58 18 58 57 c 0
120 58 m 0
 120 49 127 42 147 42 c 0
 198 42 219 66 231 78 c 1
 211 83 186 89 165 89 c 0xfc
 127 89 120 64 120 58 c 0
EndSplineSet
EndChar

StartChar: Agrave
Encoding: 192 192 204
Width: 675
Flags: HW
TeX: 850 0
HStem: 0 21<29 101.619 564.286 645> 210 53<195 471> 683 20<291.319 382.681>
DStem2: 29 0 94 0 0.358534 0.933517<23.3047 248.026 305.032 697.11> 375 703 333 630 0.358534 -0.933517<53.0883 445.167 501.814 726.893>
AnchorPoint: "below" 337 0 basechar 0
AnchorPoint: "above" 337 839 basechar 0
LayerCount: 2
Fore
SplineSet
195 850 m 1
 272 850 l 2
 274 850 276 851 278 851 c 0
 291 851 298 846 459 760 c 1
 397 760 l 2
 378 760 195 850 195 850 c 1
EndSplineSet
Refer: 77 65 S 1 0 0 1 -0 0 3
AlternateSubs2: "Stilistic set 01 subtable" Agrave.vn
AlternateSubs2: "Latin alternatives subtable" Agrave.vn
Substitution2: "Latin Vietnamese substitutions subtable" Agrave.vn
EndChar

StartChar: Atilde
Encoding: 195 195 207
Width: 675
Flags: HW
TeX: 888 0
HStem: 0 21<29 101.619 564.286 645> 210 53<195 471> 683 20<291.319 382.681> 727 51<365.255 447.454> 838 51<227.402 309.049>
VStem: 162 51<727 824.927> 462 50<791.944 889>
DStem2: 29 0 94 0 0.358534 0.933517<23.3047 248.026 305.032 697.11> 375 703 333 630 0.358534 -0.933517<53.0883 445.167 501.814 726.893>
AnchorPoint: "below" 337 0 basechar 0
AnchorPoint: "above" 337 877 basechar 0
LayerCount: 2
Fore
SplineSet
162 727 m 1
 163 826 202 889 261 889 c 0
 331 889 346 778 410 778 c 0
 416 778 422 779 428 781 c 1
 436 786 l 1
 449 799 461 811 462 889 c 1
 512 889 l 1
 512 792 473 727 414 727 c 0
 343 727 329 838 263 838 c 0
 213 838 213 765 213 727 c 1
 162 727 l 1
EndSplineSet
Refer: 77 65 S 1 0 0 1 0 -0 3
AlternateSubs2: "Stilistic set 01 subtable" Atilde.vn
AlternateSubs2: "Latin alternatives subtable" Atilde.vn
Substitution2: "Latin Vietnamese substitutions subtable" Atilde.vn
EndChar

StartChar: Aring
Encoding: 197 197 209
Width: 675
Flags: HW
TeX: 850 0
HStem: -0 21G<29 101.619 564.286 645> 210 53<195 471> 844 50<284.71 379.234>
VStem: 215 58<713.169 833.45> 390 58<713.122 833.928>
DStem2: 29 -0 94 -0 0.358979 0.933346<23.3336 248.055 305.06 697.137> 389 668 333 630 0.357855 -0.933777<15.4437 407.524 464.171 689.251>
LayerCount: 2
Fore
SplineSet
29 -0 m 1
 284 663 l 1
 224 694 215 745 215 773 c 0
 215 834 260 891 329 894 c 1
 331 894 l 2
 402 894 448 834 448 773 c 0
 448 701 393 671 389 668 c 1
 645 -0 l 1
 572 -0 l 1
 491 210 l 1
 174 210 l 1
 94 -0 l 1
 29 -0 l 1
195 263 m 1
 471 263 l 1
 349 585 l 1
 333 630 l 1
 195 263 l 1
273 775 m 0
 273 746 275 703 331 703 c 0
 383 703 390 739 390 771 c 0
 390 799 389 844 332 844 c 0
 279 844 273 807 273 775 c 0
EndSplineSet
EndChar

StartChar: AE
Encoding: 198 198 210
Width: 892
Flags: HW
TeX: 694 0
HStem: 0 56<497 848> 225 53<213 428> 335 53<497 804> 641 54<368 428 497 833>
VStem: 428 69<56 225 278 335 388 641>
DStem2: 29 0 95 0 0.391841 0.920033<25.8615 270.094 327.868 722.575>
AnchorPoint: "below" 438 0 basechar 0
AnchorPoint: "above" 462 711 basechar 0
LayerCount: 2
Fore
SplineSet
29 0 m 1
 325 695 l 1
 833 695 l 1
 833 641 l 1
 497 641 l 1
 497 388 l 1
 804 388 l 1
 804 335 l 1
 497 335 l 1
 497 56 l 1
 848 56 l 1
 848 0 l 1
 428 0 l 1
 428 225 l 1
 190 225 l 1
 95 0 l 1
 29 0 l 1
213 278 m 1
 428 278 l 1
 428 641 l 1
 368 641 l 1
 213 278 l 1
EndSplineSet
EndChar

StartChar: Egrave
Encoding: 200 200 212
Width: 625
Flags: HW
TeX: 850 0
HStem: 0 56<168 581> 334 53<168 537> 640 53<168 566>
VStem: 98 70<56 334 387 640>
AnchorPoint: "below" 340 0 basechar 0
AnchorPoint: "above" 340 849 basechar 0
LayerCount: 2
Fore
SplineSet
149 850 m 1
 226 850 l 2
 228 850 230 851 232 851 c 0
 245 851 252 846 413 760 c 1
 351 760 l 2
 332 760 149 850 149 850 c 1
EndSplineSet
Refer: 81 69 S 1 0 0 1 -0 0 3
AlternateSubs2: "Stilistic set 01 subtable" Egrave.vn
AlternateSubs2: "Latin alternatives subtable" Egrave.vn
Substitution2: "Latin Vietnamese substitutions subtable" Egrave.vn
EndChar

StartChar: Ecircumflex
Encoding: 202 202 214
Width: 625
Flags: HW
TeX: 888 0
HStem: 0 56<168 581> 334 53<168 537> 640 53<168 566>
VStem: 98 70<56 334 387 640>
DStem2: 135 727 186 727 0.610386 0.792104<31.1297 198.194> 317 897 291 857 0.610386 -0.792104<15.8141 183.489>
AnchorPoint: "below" 340 0 basechar 0
AnchorPoint: "above" 340 895 basechar 0
LayerCount: 2
Fore
SplineSet
135 727 m 1
 266 897 l 1
 317 897 l 1
 448 727 l 1
 397 727 l 1
 291 857 l 1
 186 727 l 1
 135 727 l 1
EndSplineSet
Refer: 81 69 S 1 0 0 1 -0 0 3
AlternateSubs2: "Stilistic set 01 subtable" Ecircumflex.vn
AlternateSubs2: "Latin alternatives subtable" Ecircumflex.vn
Substitution2: "Latin Vietnamese substitutions subtable" Ecircumflex.vn
EndChar

StartChar: Igrave
Encoding: 204 204 216
Width: 267
Flags: HW
TeX: 850 0
HStem: 0 21<99 169> 675 20<99 169>
VStem: -23 265 99 70<0 695>
AnchorPoint: "below" 133 0 basechar 0
AnchorPoint: "above" 133 847 basechar 0
LayerCount: 2
Fore
SplineSet
-23 850 m 1
 54 850 l 2
 56 850 58 851 60 851 c 0
 73 851 81 846 242 760 c 1xe0
 221 760 200 760 179 760 c 0
 160 760 -23 850 -23 850 c 1
EndSplineSet
Refer: 85 73 S 1 0 0 1 1 0 2
AlternateSubs2: "Stilistic set 01 subtable" Igrave.vn
AlternateSubs2: "Latin alternatives subtable" Igrave.vn
Substitution2: "Latin Vietnamese substitutions subtable" Igrave.vn
EndChar

StartChar: Iacute
Encoding: 205 205 217
Width: 267
Flags: HW
TeX: 850 0
ItalicCorrection: 82
HStem: 0 21<98 168> 675 20<98 168>
VStem: 54 265 98 70<0 695>
AnchorPoint: "below" 133 0 basechar 0
AnchorPoint: "above" 133 847 basechar 0
LayerCount: 2
Fore
SplineSet
54 760 m 1
 226 850 220 850 240 850 c 2
 261 850 l 2
 272 850 282 851 293 851 c 0
 302 851 310 851 319 850 c 1
 130 762 129 760 116 760 c 2xe0
 54 760 l 1
EndSplineSet
Refer: 85 73 S 1 0 0 1 0 -0 3
AlternateSubs2: "Stilistic set 01 subtable" Iacute.vn
AlternateSubs2: "Latin alternatives subtable" Iacute.vn
Substitution2: "Latin Vietnamese substitutions subtable" Iacute.vn
EndChar

StartChar: Icircumflex
Encoding: 206 206 218
Width: 267
Flags: HW
TeX: 888 0
HStem: 0 21<98 168> 675 20<98 168>
VStem: -23 313 98 70<0 695>
DStem2: -23 727 27 727 0.610386 0.792104<30.5193 198.194> 159 897 133 857 0.610386 -0.792104<15.8141 184.099>
AnchorPoint: "below" 133 0 basechar 0
AnchorPoint: "above" 133 893 basechar 0
LayerCount: 2
Fore
SplineSet
-23 727 m 1
 108 897 l 1
 159 897 l 1
 290 727 l 1
 240 727 l 1
 133 857 l 1xe0
 27 727 l 1
 -23 727 l 1
EndSplineSet
Refer: 85 73 S 1 0 0 1 0 -0 3
EndChar

StartChar: Eth
Encoding: 208 208 220
Width: 746
Flags: HW
TeX: 694 0
HStem: 0 53<168 453.739> 315 51<-12 99 168 367> 641 54<168 451.066>
VStem: 99 69<53 315 366 641> 619 69<220.207 464.6>
LayerCount: 2
Fore
SplineSet
-12 315 m 1
 -12 366 l 1
 99 366 l 1
 99 695 l 1
 353 695 l 2
 581 695 688 501 688 342 c 0
 688 151 549 19 401 2 c 0
 384 0 366 0 349 0 c 2
 99 0 l 1
 99 315 l 1
 -12 315 l 1
168 53 m 1
 336 53 l 2
 562 53 619 223 619 342 c 0
 619 463 563 641 336 641 c 2
 168 641 l 1
 168 366 l 1
 367 366 l 1
 367 315 l 1
 168 315 l 1
 168 53 l 1
EndSplineSet
EndChar

StartChar: Ntilde
Encoding: 209 209 221
Width: 708
Flags: HW
TeX: 888 0
HStem: 0 21<100 163 499.105 608> 675 20<100 208.895 545 608> 727 51<382.801 463.526> 838 51<244.006 324.586>
VStem: 100 63<0 637> 179 50<727 825.45> 479 50<791.428 889> 545 63<58 695>
DStem2: 198 695 163 637 0.478369 -0.878159<34.1903 725.381>
LayerCount: 2
Fore
SplineSet
179 727 m 1
 181 849 235 889 277 889 c 0
 349 889 362 778 428 778 c 0
 478 778 478 851 479 889 c 1
 529 889 l 1
 526 761 469 727 429 727 c 0
 359 727 346 838 279 838 c 0
 239 838 229 790 229 727 c 1
 179 727 l 1
EndSplineSet
Refer: 90 78 S 1 0 0 1 0 0 3
EndChar

StartChar: Ograve
Encoding: 210 210 222
Width: 783
Flags: HW
TeX: 850 0
HStem: -17 53<296.46 487.645> 659 52<291.531 487.62>
VStem: 58 70<225.411 473.98> 654 70<227.937 473.98>
AnchorPoint: "below" 391 0 basechar 0
AnchorPoint: "above" 391 831 basechar 0
LayerCount: 2
Fore
SplineSet
249 850 m 1
 326 850 l 2
 328 850 330 851 332 851 c 0
 345 851 352 846 513 760 c 1
 451 760 l 2
 432 760 249 850 249 850 c 1
EndSplineSet
Refer: 91 79 S 1 0 0 1 -0 0 3
AlternateSubs2: "Stilistic set 01 subtable" Ograve.vn
AlternateSubs2: "Latin alternatives subtable" Ograve.vn
Substitution2: "Latin Vietnamese substitutions subtable" Ograve.vn
EndChar

StartChar: Ocircumflex
Encoding: 212 212 224
Width: 783
Flags: HW
TeX: 888 0
HStem: -17 53<296.46 487.645> 659 52<291.531 487.62>
VStem: 58 70<225.411 473.98> 654 70<227.937 473.98>
DStem2: 235 727 286 727 0.610386 0.792104<31.1297 198.194> 417 897 391 857 0.610386 -0.792104<15.8141 183.489>
AnchorPoint: "below" 391 0 basechar 0
AnchorPoint: "above" 391 877 basechar 0
LayerCount: 2
Fore
SplineSet
235 727 m 1
 366 897 l 1
 417 897 l 1
 548 727 l 1
 497 727 l 1
 391 857 l 1
 286 727 l 1
 235 727 l 1
EndSplineSet
Refer: 91 79 S 1 0 0 1 0 -0 3
AlternateSubs2: "Stilistic set 01 subtable" Ocircumflex.vn
AlternateSubs2: "Latin alternatives subtable" Ocircumflex.vn
Substitution2: "Latin Vietnamese substitutions subtable" Ocircumflex.vn
EndChar

StartChar: Otilde
Encoding: 213 213 225
Width: 783
Flags: HW
TeX: 888 0
HStem: -17 53<296.46 487.645> 659 52<291.531 487.62> 727 51<419.856 500.618> 838 51<282.019 360.952>
VStem: 58 70<225.411 473.98> 216 51<727 824.426> 516 50<791.508 889> 654 70<227.937 473.98>
AnchorPoint: "below" 391 0 basechar 0
AnchorPoint: "above" 391 869 basechar 0
LayerCount: 2
Fore
SplineSet
216 727 m 1
 217 819 252 887 314 889 c 1
 315 889 l 2
 385 889 399 778 465 778 c 0
 515 778 515 851 516 889 c 1
 566 889 l 1
 565 791 526 727 467 727 c 0
 396 727 382 838 317 838 c 0
 267 838 268 766 267 727 c 1
 216 727 l 1
EndSplineSet
Refer: 91 79 S 1 0 0 1 0 0 3
AlternateSubs2: "Stilistic set 01 subtable" Otilde.vn
AlternateSubs2: "Latin alternatives subtable" Otilde.vn
Substitution2: "Latin Vietnamese substitutions subtable" Otilde.vn
EndChar

StartChar: OE
Encoding: 338 338 227
Width: 1008
Flags: HW
TeX: 694 0
HStem: -17 51<267.528 512.873> 0 56<552 964> 335 53<552 920> 641 54<552 949> 661 50<263.722 511.408>
VStem: 16 69<237.501 471.115> 483 69<69.7261 335 388 625.573>
AnchorPoint: "above" 517 711 basechar 0
LayerCount: 2
Fore
SplineSet
16 346 m 0
 16 559 184 711 363 711 c 0xae
 438 711 409 695 562 695 c 2
 949 695 l 1
 949 641 l 1
 552 641 l 1
 552 388 l 1
 920 388 l 1
 920 335 l 1
 552 335 l 1
 552 56 l 1
 964 56 l 1
 964 0 l 1
 565 0 l 2x76
 420 0 440 -17 364 -17 c 0
 184 -17 16 136 16 346 c 0
85 360 m 0
 85 180 210 34 368 34 c 0
 478 34 483 92 483 208 c 2
 483 477 l 2
 483 621 465 661 375 661 c 0xae
 184 661 85 505 85 360 c 0
EndSplineSet
EndChar

StartChar: Oslash
Encoding: 216 216 228
Width: 817
Flags: HW
TeX: 736 41
HStem: -17 51<297.61 516.038> 661 50<298.519 518.038>
VStem: 58 66<220.062 473.868> 692 66<222.055 471.647>
DStem2: 120 -27 163 -56 0.565673 0.82463<0.40966 113.435 166.148 776.503 829.757 942.241>
LayerCount: 2
Fore
SplineSet
58 346 m 0
 58 555 221 711 408 711 c 0
 484 711 544 686 590 658 c 1
 653 750 l 1
 696 721 l 1
 632 628 l 1
 632 627 l 1
 717 555 758 448 758 346 c 0
 758 140 595 -17 408 -17 c 0
 317 -17 253 19 226 36 c 1
 163 -56 l 1
 120 -27 l 1
 184 67 l 1
 121 119 58 218 58 346 c 0
124 347 m 0
 124 205 189 133 214 110 c 1
 561 617 l 1
 515 645 469 661 408 661 c 0
 239 661 124 530 124 347 c 0
255 77 m 1
 301 50 347 34 408 34 c 0
 570 34 692 158 692 346 c 0
 692 489 626 559 602 584 c 1
 255 77 l 1
EndSplineSet
EndChar

StartChar: Ugrave
Encoding: 217 217 229
Width: 692
Flags: HW
TeX: 850 0
HStem: -17 53<257.839 438.484> 675 20<98 168 528 593>
VStem: 98 70<134.303 695> 528 65<134.684 695>
AnchorPoint: "below" 347 0 basechar 0
AnchorPoint: "above" 346 847 basechar 0
LayerCount: 2
Fore
SplineSet
203 850 m 1
 281 850 l 2
 283 850 284 851 286 851 c 0
 299 851 307 846 468 760 c 1
 406 760 l 2
 387 760 203 850 203 850 c 1
EndSplineSet
Refer: 97 85 S 1 0 0 1 -0 0 3
AlternateSubs2: "Stilistic set 01 subtable" Ugrave.vn
AlternateSubs2: "Latin alternatives subtable" Ugrave.vn
Substitution2: "Latin Vietnamese substitutions subtable" Ugrave.vn
EndChar

StartChar: Ucircumflex
Encoding: 219 219 231
Width: 692
Flags: HW
TeX: 888 0
HStem: -17 53<257.839 438.484> 675 20<98 168 528 593>
VStem: 98 70<134.303 695> 528 65<134.684 695>
DStem2: 190 727 241 727 0.610386 0.792104<31.1297 198.804> 370 897 347 857 0.616183 -0.787603<17.3319 185.036>
AnchorPoint: "below" 347 0 basechar 0
AnchorPoint: "above" 346 893 basechar 0
LayerCount: 2
Fore
SplineSet
190 727 m 1
 321 897 l 1
 370 897 l 1
 503 727 l 1
 453 727 l 1
 347 857 l 1
 241 727 l 1
 190 727 l 1
EndSplineSet
Refer: 97 85 S 1 0 0 1 -0 -0 3
EndChar

StartChar: Thorn
Encoding: 222 222 234
Width: 600
Flags: HW
TeX: 694 0
HStem: 0 21G<99 166> 180 54<166 389.933> 516 54<167 382.326> 675 20G<99 166>
VStem: 99 67<0 180 234 516 570 695> 475 66<310.258 438.712>
LayerCount: 2
Fore
SplineSet
99 0 m 1
 99 695 l 1
 166 695 l 1
 166 570 l 1
 314 570 l 1
 355 569 379 567 417 551 c 0
 476 526 541 463 541 375 c 0
 541 305 488 180 308 180 c 2
 166 180 l 1
 166 0 l 1
 99 0 l 1
166 234 m 1
 281 234 l 2
 428 234 475 321 475 375 c 0
 475 443 405 516 272 516 c 2
 167 516 l 1
 166 478 l 1
 166 234 l 1
EndSplineSet
EndChar

StartChar: Germandbls
Encoding: 61699 61699 235
Width: 1167
Flags: HW
TeX: 694 0
HStem: -17 57<167.499 380.744 749.636 963.522> 656 55<196.164 405.788 780.318 989.061>
VStem: 57 64<468.896 589.453> 461 63<112.252 247.278> 641 63<468.871 590.078> 1044 63<112.03 247.874>
LayerCount: 2
Fore
SplineSet
46 53 m 1
 58 122 l 1
 106 87 178 40 288 40 c 0
 398 40 461 113 461 180 c 0
 461 230 427 281 364 306 c 0
 287 336 158 329 87 429 c 0
 72 450 57 483 57 522 c 0
 57 620 151 711 294 711 c 0
 378 711 431 691 486 663 c 1
 474 594 l 1
 435 621 389 656 294 656 c 0
 187 656 121 594 121 530 c 0
 121 485 154 440 215 417 c 0
 249 404 348 386 381 374 c 0
 476 339 524 262 524 187 c 0
 524 86 435 -17 287 -17 c 0
 178 -17 93 24 46 53 c 1
629 53 m 1
 641 122 l 1
 689 87 761 40 871 40 c 0
 980 40 1044 112 1044 180 c 0
 1044 230 1010 281 947 306 c 0
 870 336 742 329 671 429 c 0
 656 450 641 483 641 522 c 0
 641 613 726 711 877 711 c 0
 961 711 1015 691 1070 663 c 1
 1057 594 l 1
 1018 621 972 656 877 656 c 0
 770 656 704 594 704 530 c 0
 704 485 737 440 798 417 c 0
 838 402 924 389 964 374 c 0
 1069 335 1107 251 1107 187 c 0
 1107 86 1018 -17 870 -17 c 0
 774 -17 691 16 629 53 c 1
EndSplineSet
EndChar

StartChar: acircumflex
Encoding: 226 226 238
Width: 492
Flags: HW
TeX: 666 0
HStem: -8 50<147.74 274.389> 0 21<348 411> 234 31<230.767 346> 438 47<141.116 305.358>
VStem: 55 62<70.3245 169.561> 346 65<0 69 83.0029 234 265 395.431>
DStem2: 95 537 145 537 0.685694 0.72789<34.2847 183.439>
AnchorPoint: "below" 246 0 basechar 0
AnchorPoint: "above" 246 654 basechar 0
LayerCount: 2
Fore
SplineSet
95 537 m 1x3c
 225 675 l 1
 300 675 l 1
 407 537 l 1
 356 537 l 1
 250 643 l 1
 145 537 l 1
 95 537 l 1x3c
EndSplineSet
Refer: 109 97 S 1 0 0 1 -0 0 3
AlternateSubs2: "Stilistic set 01 subtable" acircumflex.vn
AlternateSubs2: "Latin alternatives subtable" acircumflex.vn
Substitution2: "Latin Vietnamese substitutions subtable" acircumflex.vn
EndChar

StartChar: atilde
Encoding: 227 227 239
Width: 492
Flags: HW
TeX: 666 0
HStem: -8 50<147.74 274.389> 0 21<348 411> 234 31<230.767 346> 438 47<141.116 305.358> 568 50<268.934 377.717> 616 51<147.237 254.976>
VStem: 55 62<70.3245 169.561> 87 51<568 606.083> 346 65<0 69 83.0029 234 265 395.431> 387 50<628.024 667>
AnchorPoint: "below" 246 0 basechar 0
AnchorPoint: "above" 246 646 basechar 0
LayerCount: 2
Fore
SplineSet
87 568 m 1x3940
 90 627 133 667 188 667 c 2
 190 667 l 1x3540
 241 666 288 618 335 618 c 0x3940
 349 618 382 624 387 667 c 1
 437 667 l 1x3540
 434 600 382 568 337 568 c 0x3940
 281 568 238 616 189 616 c 0x3540
 175 616 143 611 138 568 c 1
 87 568 l 1x3940
EndSplineSet
Refer: 109 97 S 1 0 0 1 -0 0 3
AlternateSubs2: "Stilistic set 01 subtable" atilde.vn
AlternateSubs2: "Latin alternatives subtable" atilde.vn
Substitution2: "Latin Vietnamese substitutions subtable" atilde.vn
EndChar

StartChar: aring
Encoding: 229 229 241
Width: 492
Flags: HW
TeX: 666 0
HStem: -8 50<147.74 274.389> -0 21<348 411> 234 31<230.767 346> 438 47<141.116 305.358> 510 33<202.424 299.654> 640 32<204.073 298.391>
VStem: 55 62<70.3245 169.561> 134 59<550.056 632.954> 309 58<550.092 632.582> 346 65<0 69 83.0029 234 265 395.431>
LayerCount: 2
Fore
SplineSet
134 591 m 0
 134 635 185 672 251 672 c 0
 327 672 367 627 367 591 c 0
 367 554 324 510 250 510 c 0
 175 510 134 554 134 591 c 0
193 591 m 0
 193 560 206 544 249 543 c 1
 268 544 309 542 309 590 c 0
 309 620 295 640 253 640 c 0x3f80
 217 640 193 630 193 591 c 0
EndSplineSet
Refer: 109 97 S 1 0 0 1 0 -0 3
EndChar

StartChar: ae
Encoding: 230 230 242
Width: 758
Flags: HW
TeX: 472 0
HStem: -8 50<148.697 301.922 498.25 658.354> 230 40<210.409 346> 250 40<416 671> 438 47<140.236 304.32 496.76 613.606>
VStem: 56 62<70.7242 168.435> 346 65<142.77 230>
AnchorPoint: "below" 391 0 basechar 0
AnchorPoint: "above" 384 484 basechar 0
LayerCount: 2
Fore
SplineSet
56 116 m 0
 56 177 113 267 346 270 c 1xdc
 346 307 l 1
 345 337 346 370 319 402 c 0
 303 421 280 438 245 438 c 0
 163 438 117 405 87 386 c 1
 82 442 l 1
 137 471 181 485 247 485 c 0
 347 485 384 413 395 395 c 1
 433 449 491 484 555 484 c 0
 623 484 726 447 726 250 c 1
 411 250 l 1xbc
 411 96 507 42 571 42 c 0
 655 42 704 96 718 111 c 1
 722 56 l 1
 683 19 635 -8 570 -8 c 0
 500 -8 436 27 395 85 c 1
 355 17 263 -8 165 -8 c 0
 80 -8 56 75 56 116 c 0
118 118 m 0
 118 73 163 42 220 42 c 0
 242 42 351 50 351 143 c 0
 351 152 350 161 346 230 c 1xdc
 222 229 118 190 118 118 c 0
416 290 m 1
 671 290 l 1
 668 311 658 434 555 434 c 0xbc
 499 434 434 385 416 290 c 1
EndSplineSet
EndChar

StartChar: ccedilla
Encoding: 231 231 243
Width: 467
Flags: HW
TeX: 472 145
HStem: -163 145 -8 52<191.43 365.498> 433 52<191.232 377.177>
VStem: 46 65<131.67 342.895> 160 127
DStem2: 160 -163 218 -163 0.469007 0.883195<27.2024 164.177>
AnchorPoint: "above" 267 484 basechar 0
LayerCount: 2
Fore
SplineSet
46 237 m 0
 46 366 134 485 267 485 c 0
 340 485 372 473 431 442 c 1
 421 387 l 1
 382 410 351 433 269 433 c 0
 167 433 111 350 111 237 c 0
 112 103 189 44 265 44 c 0
 355 44 403 86 432 111 c 1
 437 55 l 1
 392 18 340 -8 264 -8 c 0
 142 -8 46 101 46 237 c 0
EndSplineSet
Refer: 24 184 S 1 0 0 1 29 0 2
EndChar

StartChar: iacute
Encoding: 237 237 249
Width: 225
Flags: HW
TeX: 666 0
ItalicCorrection: 51
HStem: 0 21<80 143> 452 20<80 143> 647 20G<154.744 243>
VStem: 28 215 80 63<0 472>
AnchorPoint: "below" 112 0 basechar 0
AnchorPoint: "above" 112 659 basechar 0
LayerCount: 2
Fore
SplineSet
28 538 m 1
 178 667 l 1
 243 667 l 1
 79 537 85 538 66 538 c 0xf0
 53 538 41 538 28 538 c 1
EndSplineSet
Refer: 37 305 S 1 0 0 1 -0 -0 3
AlternateSubs2: "Stilistic set 01 subtable" iacute.vn
AlternateSubs2: "Latin alternatives subtable" iacute.vn
Substitution2: "Latin Vietnamese substitutions subtable" iacute.vn
Ligature2: "Cyrillic ligatures subtable" afii10103 acutecomb
Ligature2: "Latin ligatures excepting Turkic subtable" i acutecomb
EndChar

StartChar: eth
Encoding: 240 240 252
Width: 525
Flags: HW
TeX: 694 0
HStem: -8 52<184.186 339.846> 434 50<182.54 339.93> 657 36<105.584 147.542>
VStem: 40 65<131.809 342.104> 419 65<135.501 340.016>
DStem2: 147 590 175 540 0.867367 0.497669<0 57.3031 148.121 210.116>
LayerCount: 2
Fore
SplineSet
40 236 m 0
 40 369 136 484 262 484 c 0
 305 484 336 472 370 453 c 1
 340 505 301 548 254 584 c 1
 175 540 l 1
 147 590 l 1
 197 618 l 1
 197 619 l 1
 149 641 118 652 72 657 c 1
 103 684 110 693 123 693 c 0
 164 693 251 649 251 649 c 1
 329 695 l 1
 358 645 l 1
 304 614 l 1
 337 591 484 475 484 266 c 2
 484 258 l 2
 484 236 484 213 480 191 c 0
 463 91 382 -8 262 -8 c 0
 147 -8 40 93 40 236 c 0
105 244 m 0
 105 85 199 44 262 44 c 0
 356 44 419 120 419 240 c 0
 419 359 356 434 261 434 c 0
 198 434 105 396 105 244 c 0
EndSplineSet
EndChar

StartChar: ntilde
Encoding: 241 241 253
Width: 517
Flags: HW
TeX: 666 0
HStem: 0 21<80 145 371 435> 430 50<212.359 335.244> 452 20<80 142> 568 50<265.69 372.264> 616 51<141.765 251.195>
VStem: 80 65<0 370.972 375 472> 83 50<568 606.495> 371 64<0 395.666> 382 51<628.024 667>
LayerCount: 2
Fore
SplineSet
83 568 m 1x9280
 86 628 130 667 184 667 c 0x8a80
 239 667 281 618 331 618 c 0x9280
 345 618 377 624 382 667 c 1
 433 667 l 1x8a80
 430 600 378 568 333 568 c 0x9280
 277 568 234 616 185 616 c 0x8a80
 171 616 138 611 133 568 c 1
 83 568 l 1x9280
EndSplineSet
Refer: 122 110 S 1 0 0 1 -0 -0 3
EndChar

StartChar: otilde
Encoding: 245 245 257
Width: 525
Flags: HW
TeX: 666 0
HStem: -8 52<185.261 339.95> 434 50<181.807 341.068> 568 50<269.69 376.264> 616 51<145.765 255.195>
VStem: 40 64<133.934 342.329> 87 50<568 606.495> 386 51<628.024 667> 419 64<131.763 342.299>
AnchorPoint: "below" 262 0 basechar 0
AnchorPoint: "above" 262 647 basechar 0
LayerCount: 2
Fore
SplineSet
87 568 m 1xe6
 90 628 134 667 188 667 c 0xd6
 243 667 285 618 335 618 c 0xe6
 349 618 381 624 386 667 c 1
 437 667 l 1xd6
 434 600 382 568 337 568 c 0xe6
 281 568 238 616 189 616 c 0xd6
 175 616 142 611 137 568 c 1
 87 568 l 1xe6
EndSplineSet
Refer: 123 111 S 1 0 0 1 -0 -0 3
AlternateSubs2: "Stilistic set 01 subtable" otilde.vn
AlternateSubs2: "Latin alternatives subtable" otilde.vn
Substitution2: "Latin Vietnamese substitutions subtable" otilde.vn
EndChar

StartChar: oe
Encoding: 339 339 259
Width: 817
Flags: HW
TeX: 472 0
HStem: -8 50<180.799 328.173 557.181 715.573> 250 40<474 730> 434 50<176.42 331.285 548.07 676.528>
VStem: 40 62<129.69 344.219> 405 64<142.77 250>
AnchorPoint: "below" 412 0 basechar 0
AnchorPoint: "above" 432 484 basechar 0
LayerCount: 2
Fore
SplineSet
40 238 m 0
 40 377 139 484 254 484 c 0
 346 484 408 422 436 370 c 1
 437 370 l 1
 463 421 525 484 613 484 c 0
 681 484 785 446 785 250 c 1
 469 250 l 1
 469 96 565 42 629 42 c 0
 707 42 752 87 776 111 c 1
 781 56 l 1
 763 40 715 -8 628 -8 c 0
 582 -8 499 7 437 109 c 1
 381 9 297 -8 254 -8 c 0
 141 -8 40 97 40 238 c 0
102 244 m 0
 102 83 193 42 254 42 c 0
 314 42 405 83 405 244 c 0
 405 397 314 434 254 434 c 0
 193 434 102 396 102 244 c 0
474 290 m 1
 730 290 l 1
 724 328 711 434 613 434 c 0
 554 434 491 380 474 290 c 1
EndSplineSet
EndChar

StartChar: oslash
Encoding: 248 248 260
Width: 525
Flags: HW
TeX: 555 83
HStem: -8 50<187.635 339.558> 434 50<183.803 337.176>
VStem: 42 61<130.203 342.56> 421 61<130.854 342.83>
DStem2: 51 -70 95 -96 0.509138 0.860685<0.0242455 134.392 189.678 554.148 610.335 741.571>
LayerCount: 2
Fore
SplineSet
42 236 m 0
 42 379 146 484 262 484 c 0
 304 484 337 471 363 456 c 1
 429 568 l 1
 430 568 l 1
 473 543 l 1
 404 426 l 1
 404 425 l 1
 458 373 482 303 482 236 c 0
 482 102 385 -8 262 -8 c 0
 218 -8 193 3 162 18 c 1
 95 -96 l 1
 51 -70 l 1
 121 49 l 1
 76 89 42 155 42 236 c 0
103 241 m 0
 103 155 121 127 148 93 c 1
 338 414 l 1
 304 432 277 434 262 434 c 0
 199 434 103 393 103 241 c 0
187 60 m 1
 208 51 226 42 262 42 c 0
 327 42 421 83 421 234 c 0
 421 322 393 357 377 381 c 1
 187 60 l 1
EndSplineSet
EndChar

StartChar: thorn
Encoding: 254 254 266
Width: 517
Flags: HW
TeX: 694 166
HStem: -167 21G<80 145> -8 50<198.28 314.433> 429 51<208.213 321.86> 675 20G<80 143>
VStem: 80 65<-167 66 78.4263 391.05 404 695> 405 64<141.867 332.448>
LayerCount: 2
Fore
SplineSet
80 -167 m 1
 80 695 l 1
 143 695 l 1
 143 404 l 1
 203 476 270 480 295 480 c 0
 393 480 469 372 469 238 c 0
 469 86 369 -8 274 -8 c 0
 196 -8 158 49 145 66 c 1
 145 -167 l 1
 80 -167 l 1
145 130 m 2
 145 92 185 42 243 42 c 0
 328 42 405 126 405 237 c 0
 405 343 336 429 253 429 c 0
 216 429 185 411 165 389 c 1
 144 363 145 364 145 342 c 2
 145 130 l 2
EndSplineSet
EndChar

StartChar: germandbls
Encoding: 223 223 267
Width: 492
Flags: HW
TeX: 694 0
HStem: -8 50<184.527 340.986> 0 21G<80 143> 422 50<201 285.098> 652 51<173.253 339.975>
VStem: 80 63<0 622.251> 368 64<521.789 624.789> 397 64<101.322 299.743>
LayerCount: 2
Fore
SplineSet
80 0 m 1
 80 562 l 2
 80 579 80 589 86 606 c 0
 107 666 178 703 255 703 c 0
 353 703 432 646 432 575 c 0x7c
 432 522 389 470 318 443 c 1
 318 442 l 1
 405 395 461 296 461 191 c 0
 461 85 385 -8 271 -8 c 0
 241 -8 211 -4 173 7 c 1
 190 55 l 1
 206 51 239 42 272 42 c 0
 347 42 397 99 397 191 c 0xba
 397 306 330 419 201 422 c 1
 201 472 l 1
 329 473 368 533 368 574 c 0xbc
 368 605 351 652 253 652 c 0
 186 652 152 622 145 589 c 0
 143 579 143 570 143 560 c 2
 143 0 l 1
 80 0 l 1
EndSplineSet
EndChar

StartChar: grave.uc
Encoding: 65542 -1 268
Width: 525
Flags: HW
TeX: 628 0
HStem: 538 90
VStem: 76 265
LayerCount: 2
Fore
SplineSet
76 628 m 1
 159 628 l 2
 172 628 180 624 341 538 c 1
 282 538 l 2
 281 538 279 537 278 537 c 0
 259 537 76 628 76 628 c 1
EndSplineSet
EndChar

StartChar: acute.uc
Encoding: 65543 -1 269
Width: 525
Flags: HW
TeX: 628 0
HStem: 628 0
VStem: 183 265
LayerCount: 2
Fore
SplineSet
183 538 m 1
 333 617 l 1
 356 627 l 1
 371 628 l 1
 448 628 l 1
 259 540 258 538 245 538 c 2
 183 538 l 1
EndSplineSet
EndChar

StartChar: tilde.uc
Encoding: 65544 -1 270
Width: 525
Flags: HW
TeX: 661 0
HStem: 505 51<291.289 371.321> 616 51<152.188 232.711>
VStem: 87 50<505 602.728> 387 50<569.508 667>
LayerCount: 2
Fore
SplineSet
87 505 m 1
 88 605 126 667 186 667 c 0
 256 667 271 556 336 556 c 0
 387 556 386 632 387 667 c 1
 437 667 l 1
 436 569 397 505 338 505 c 0
 268 505 253 616 188 616 c 0
 138 616 138 544 137 505 c 1
 87 505 l 1
EndSplineSet
EndChar

StartChar: ring.uc
Encoding: 65546 -1 273
Width: 692
Flags: HW
TeX: 661 0
HStem: 455 50<294.76 395.422> 622 50<294.759 395.155>
VStem: 228 59<513.143 613.351> 403 59<512.931 614.09>
LayerCount: 2
Fore
SplineSet
228 563 m 0
 228 618 276 672 345 672 c 0
 402 672 462 630 462 563 c 0
 462 508 414 455 345 455 c 0
 275 455 228 508 228 563 c 0
287 563 m 0
 287 528 299 505 344 505 c 0
 392 505 403 526 403 564 c 0
 403 599 392 622 347 622 c 0
 299 622 287 601 287 563 c 0
EndSplineSet
EndChar

StartChar: twelveudash
Encoding: 61700 61700 274
Width: 700
Flags: HW
TeX: 470 0
ItalicCorrection: 29
HStem: 267 50<0 700>
LayerCount: 2
Fore
SplineSet
0 267 m 1
 0 317 l 1
 700 317 l 1
 700 267 l 1
 0 267 l 1
EndSplineSet
EndChar

StartChar: threequartersemdash
Encoding: 63198 63198 275
Width: 787
Flags: HW
TeX: 470 0
ItalicCorrection: 29
HStem: 267 50<0 787>
LayerCount: 2
Fore
SplineSet
0 267 m 1
 0 317 l 1
 787 317 l 1
 787 267 l 1
 0 267 l 1
EndSplineSet
EndChar

StartChar: arrowleft
Encoding: 8592 8592 276
Width: 1050
Flags: HW
TeX: 385 -137
HStem: 244 40<171 989.991>
VStem: 271 40<14 77.3242 450.676 514>
LayerCount: 2
Fore
SplineSet
58 264 m 1
 87 277 233 329 271 514 c 1
 311 514 l 1
 292 415 242 342 171 284 c 1
 962 284 l 2
 977 284 990 281 990 264 c 0
 990 247 977 244 962 244 c 2
 171 244 l 1
 243 185 292 113 311 14 c 1
 271 14 l 1
 233 199 87 251 58 264 c 1
EndSplineSet
EndChar

StartChar: arrowright
Encoding: 8594 8594 277
Width: 1050
Flags: HW
TeX: 385 -137
HStem: 244 40<59.0102 878>
VStem: 738 40<14 77.3652 450.02 514>
LayerCount: 2
Fore
SplineSet
59 264 m 0
 59 281 73 284 88 284 c 2
 878 284 l 1
 807 342 757 415 738 514 c 1
 778 514 l 1
 816 327 966 275 991 264 c 1
 962 252 816 199 778 14 c 1
 738 14 l 1
 757 113 807 186 878 244 c 1
 88 244 l 2
 72 244 59 248 59 264 c 0
EndSplineSet
EndChar

StartChar: uni0361.alt
Encoding: 61701 61701 278
Width: 225
Flags: HW
TeX: 694 0
ItalicCorrection: 294
HStem: 617 53<168.377 433.576>
VStem: 80 65<571 593.081> 458 65<571 592.773>
LayerCount: 2
Fore
SplineSet
80 571 m 1
 88 656 247 670 301 670 c 0
 394 670 516 642 523 571 c 1
 458 571 l 1
 455 581 455 593 398 607 c 0
 367 614 334 617 302 617 c 0
 229 617 191 604 180 600 c 0
 147 589 147 578 145 571 c 1
 80 571 l 1
EndSplineSet
EndChar

StartChar: uni0361
Encoding: 865 865 279
Width: 0
Flags: HW
TeX: 916 0
ItalicCorrection: 323
HStem: 614 53<-61.4719 158.549>
VStem: -202 65<505 552.012> 234 65<505 552.337>
AnchorPoint: "affricate-above" 48 484 mark 0
LayerCount: 2
Fore
SplineSet
-202 505 m 1
 -198 602 -85 667 49 667 c 0
 159 667 295 615 299 505 c 1
 234 505 l 1
 229 574 142 614 48 614 c 0
 -51 614 -132 569 -137 505 c 1
 -202 505 l 1
EndSplineSet
EndChar

StartChar: uni2040.alt
Encoding: 61702 61702 280
Width: 458
Flags: HW
TeX: 694 0
ItalicCorrection: 294
HStem: 617 53<141.467 316.747>
VStem: 58 65<571 597.518> 335 64<571 597.198>
LayerCount: 2
Fore
SplineSet
58 571 m 1
 63 631 137 670 229 670 c 0
 307 670 394 638 399 571 c 1
 335 571 l 1
 327 602 283 617 229 617 c 0
 197 617 132 610 123 571 c 1
 58 571 l 1
EndSplineSet
EndChar

StartChar: uni2040
Encoding: 8256 8256 281
Width: 458
Flags: HW
TeX: 694 0
ItalicCorrection: 323
HStem: 614 53<131.148 325.714>
VStem: 0 65<505 558.272> 393 65<505 558.941>
LayerCount: 2
Fore
SplineSet
0 505 m 1
 4 609 118 667 228 667 c 0
 339 667 454 610 458 505 c 1
 393 505 l 1
 388 582 300 614 228 614 c 0
 156 614 70 579 65 505 c 1
 0 505 l 1
EndSplineSet
EndChar

StartChar: uni2422
Encoding: 9250 9250 282
Width: 517
Flags: HW
TeX: 694 0
HStem: -8 50<198.455 325.045> 0 21G<81 146> 430 50<209.037 331.719> 675 20G<81 145>
VStem: 81 65<0 66 78.189 390.165 405 477 600 695> 406 64<129.853 347.043>
DStem2: -24 459 10 418 0.766192 0.642612<0 92.0171 220.095 404.302>
LayerCount: 2
Fore
SplineSet
-24 459 m 1
 81 547 l 1
 81 695 l 1
 145 695 l 1
 145 600 l 1
 286 719 l 1
 320 678 l 1
 145 531 l 1
 145 405 l 1
 204 476 270 480 295 480 c 0
 394 480 470 372 470 238 c 0
 470 98 381 -8 275 -8 c 0xbc
 197 -8 158 49 146 66 c 1
 146 0 l 1
 81 0 l 1x7c
 81 477 l 1
 10 418 l 1
 -24 459 l 1
146 131 m 2xbc
 146 91 187 42 245 42 c 0
 308 42 406 79 406 236 c 0
 406 402 308 430 256 430 c 0
 220 430 189 414 166 389 c 1
 146 363 146 366 146 343 c 2
 146 131 l 2xbc
EndSplineSet
EndChar

StartChar: quotesingle
Encoding: 39 39 283
Width: 292
Flags: HW
TeX: 694 0
HStem: 386 309<120 171>
VStem: 114 64<386 695> 120 51<386 658>
LayerCount: 2
Fore
SplineSet
113 695 m 1xc0
 178 695 l 1xc0
 171 386 l 1
 120 386 l 1xa0
 114 658 l 1
 113 695 l 1xc0
EndSplineSet
EndChar

StartChar: fraction
Encoding: 8260 8260 286
Width: 525
Flags: HW
TeX: 750 222
DStem2: 63 -187 102 -195 0.366632 0.930366<-15.2034 999.296>
LayerCount: 2
Fore
SplineSet
59 -202 m 0
 59 -197 61 -192 63 -187 c 2
 422 724 l 2
 427 736 432 749 446 749 c 0
 456 749 465 740 465 729 c 0
 465 722 462 716 460 710 c 2
 102 -195 l 2
 97 -207 93 -221 78 -221 c 0
 69 -221 59 -214 59 -202 c 0
EndSplineSet
EndChar

StartChar: zerooldstyle
Encoding: 63280 63280 287
Width: 525
Flags: HW
TeX: 470 0
HStem: -17 51<179.011 345.352> 439 50<178.169 348.273>
VStem: 52 65<102.709 368.464> 407 65<102.25 369.956>
LayerCount: 2
Fore
SplineSet
52 213 m 1
 52 251 l 1
 55 358 91 489 263 489 c 0
 359 489 472 447 472 234 c 0
 472 55 387 -17 261 -17 c 0
 169 -17 59 23 52 213 c 1
117 242 m 1
 118 169 113 34 262 34 c 0
 402 34 406 153 407 223 c 1
 407 256 l 1
 406 317 409 439 263 439 c 0
 120 439 119 326 117 268 c 1
 117 242 l 1
EndSplineSet
EndChar

StartChar: oneoldstyle
Encoding: 63281 63281 288
Width: 525
Flags: HW
TeX: 470 0
HStem: 0 50<111 242 307 438> 380 50<105 240.219> 458 20G<274.5 307>
VStem: 242 65<50 400>
LayerCount: 2
Fore
SplineSet
105 380 m 1
 105 430 l 1
 217 430 258 455 291 478 c 1
 307 478 l 1
 307 50 l 1
 438 50 l 1
 438 0 l 1
 111 0 l 1
 111 50 l 1
 242 50 l 1
 242 400 l 1
 204 387 167 380 105 380 c 1
EndSplineSet
EndChar

StartChar: twooldstyle
Encoding: 63282 63282 289
Width: 525
Flags: HW
TeX: 470 0
HStem: 0 56<105 472> 436 53<150.128 344.588>
VStem: 405 67<264.684 387.365>
DStem2: 46 53 105 56 0.859931 0.510411<52.2672 383.848>
LayerCount: 2
Fore
SplineSet
43 370 m 1
 89 454 156 489 248 489 c 0
 381 489 472 425 472 330 c 0
 472 225 348 200 260 148 c 2
 105 56 l 1
 472 56 l 1
 472 0 l 1
 46 0 l 1
 46 53 l 1
 174 132 191 142 207 151 c 0
 283 192 405 230 405 328 c 0
 405 416 302 436 234 436 c 0
 145 436 108 386 87 330 c 1
 43 370 l 1
EndSplineSet
EndChar

StartChar: threeoldstyle
Encoding: 63283 63283 290
Width: 525
Flags: HW
TeX: 470 166
HStem: -184 52<161.49 344.724> 153 51<174 303.474> 439 50<177.98 345.087>
VStem: 384 67<275.835 403.301> 410 70<-68.3381 87.194>
LayerCount: 2
Fore
SplineSet
43 -75 m 1
 53 -24 l 1
 132 -126 233 -132 263 -132 c 0
 352 -132 410 -73 410 11 c 0xe8
 410 88 359 147 278 153 c 1
 174 153 l 1
 174 204 l 1
 267 211 269 211 290 219 c 0
 331 234 384 278 384 345 c 0
 384 401 338 439 266 439 c 0xf0
 148 439 98 345 89 330 c 1
 58 374 l 1
 126 480 230 489 267 489 c 0
 372 489 451 423 451 345 c 0xf0
 451 275 405 222 361 195 c 1
 330 179 l 1
 393 164 480 108 480 10 c 0
 480 -84 397 -184 264 -184 c 0
 231 -184 128 -179 43 -75 c 1
EndSplineSet
EndChar

StartChar: fouroldstyle
Encoding: 63284 63284 291
Width: 525
Flags: HW
TeX: 470 166
HStem: -0 53<94 318 381 495> 460 20G<292.042 381>
VStem: 321 60<-184 0 53 424>
DStem2: 29 54 94 53 0.543741 0.839253<34.5039 467.977>
LayerCount: 2
Fore
SplineSet
29 -0 m 1
 29 54 l 1
 305 480 l 1
 381 480 l 1
 381 53 l 1
 495 53 l 1
 495 -0 l 1
 381 -0 l 1
 381 -184 l 1
 318 -184 l 1
 318 -0 l 1
 29 -0 l 1
94 53 m 1
 321 53 l 1
 321 424 l 1
 311 397 296 370 249 296 c 2
 94 53 l 1
EndSplineSet
EndChar

StartChar: fiveoldstyle
Encoding: 63285 63285 292
Width: 525
Flags: HW
TeX: 470 166
HStem: -184 52<161.186 331.283> 194 51<196.225 345.892> 419 53<153 437>
VStem: 91 62<196 419> 402 70<-59.9757 129.376>
LayerCount: 2
Fore
SplineSet
52 -88 m 1
 82 -41 l 1
 140 -124 217 -132 248 -132 c 0
 313 -132 402 -99 402 33 c 0
 402 166 328 194 278 194 c 0
 200 194 164 150 147 121 c 1
 91 121 l 1
 91 472 l 1
 437 472 l 1
 437 419 l 1
 153 419 l 1
 153 196 l 1
 172 212 209 245 278 245 c 0
 386 245 472 150 472 33 c 0
 472 -84 375 -184 247 -184 c 0
 170 -184 103 -150 52 -88 c 1
EndSplineSet
EndChar

StartChar: sevenoldstyle
Encoding: 63287 63287 294
Width: 525
Flags: HW
TeX: 470 166
HStem: -175 21G<170 237> 416 56<43 436>
VStem: 170 67<-175 2.15741>
LayerCount: 2
Fore
SplineSet
43 416 m 1
 43 472 l 1
 480 472 l 1
 480 419 l 1
 313 250 237 29 237 -175 c 1
 170 -175 l 1
 170 28 248 221 386 367 c 0
 402 384 419 400 436 416 c 1
 43 416 l 1
EndSplineSet
EndChar

StartChar: nineoldstyle
Encoding: 63289 63289 296
Width: 525
Flags: HW
TeX: 470 166
HStem: -184 52<128.397 296.861> 31 50<177.52 307.972> 439 50<184.558 333.415>
VStem: 54 66<142.333 363.308> 404 66<21.875 292.68>
LayerCount: 2
Fore
SplineSet
54 259 m 0
 54 341 82 386 122 427 c 0
 163 468 205 489 266 489 c 0
 348 489 470 434 470 157 c 0
 470 -37 357 -184 215 -184 c 0
 147 -184 114 -163 76 -139 c 1
 102 -94 l 1
 116 -103 151 -132 215 -132 c 0
 328 -132 404 -29 404 135 c 2
 404 148 l 1
 375 87 307 31 218 31 c 0
 164 31 133 56 105 93 c 0
 62 150 54 200 54 259 c 0
120 256 m 2
 120 226 120 197 128 173 c 0
 142 128 177 81 255 81 c 0
 342 81 400 156 400 237 c 0
 400 244 400 252 399 260 c 1
 401 260 l 1
 391 409 319 439 265 439 c 0
 212 439 180 421 153 387 c 0
 124 349 120 312 120 262 c 2
 120 256 l 2
EndSplineSet
EndChar

StartChar: angleleft
Encoding: 9001 9001 297
Width: 408
Flags: HW
TeX: 750 222
VStem: 116 232
DStem2: 343 -184 119 250 0.383144 -0.923688<-500.527 17.3152> 120 279 162 278 0.382107 0.924118<-14.1176 503.723>
LayerCount: 2
Fore
SplineSet
116 264 m 0
 116 269 118 274 120 279 c 2
 304 724 l 2
 309 734 314 749 329 749 c 0
 339 749 348 741 348 730 c 0
 348 726 347 721 345 717 c 2
 162 278 l 2
 158 269 157 265 162 252 c 2
 343 -184 l 2
 345 -188 348 -194 348 -201 c 0
 348 -211 341 -221 329 -221 c 0
 314 -221 308 -206 304 -196 c 2
 119 250 l 2
 118 253 116 258 116 264 c 0
EndSplineSet
EndChar

StartChar: minus
Encoding: 8722 8722 298
Width: 642
Flags: HW
TeX: 523 -1
HStem: 239 51<59.3522 581.71>
LayerCount: 2
Fore
SplineSet
59 264 m 0
 59 274 64 290 94 290 c 2
 551 290 l 1
 578 289 582 274 582 264 c 0
 582 254 577 239 550 239 c 2
 91 239 l 2
 63 239 59 254 59 264 c 0
EndSplineSet
EndChar

StartChar: angleright
Encoding: 9002 9002 299
Width: 408
Flags: HW
TeX: 750 222
DStem2: 107 714 63 713 0.385216 -0.922826<-37.7832 485.203> 64 -182 287 249 0.383879 0.923384<-19.1605 498.753>
LayerCount: 2
Fore
SplineSet
59 -201 m 0
 59 -194 62 -188 64 -182 c 2
 244 251 l 2
 249 264 249 268 245 277 c 2
 63 713 l 2
 61 718 60 723 59 729 c 1
 59 735 l 1
 66 750 72 749 80 749 c 1
 95 745 98 734 107 714 c 2
 287 279 l 2
 288 276 291 270 291 264 c 0
 291 259 289 254 287 249 c 2
 102 -196 l 2
 93 -218 91 -216 83 -220 c 0
 81 -220 81 -221 79 -221 c 0
 67 -221 59 -212 59 -201 c 0
EndSplineSet
EndChar

StartChar: uni2127
Encoding: 8487 8487 300
Width: 758
Flags: HW
TeX: 694 0
HStem: -17 51<261.366 494.174> 639 56<46 237 519 710>
VStem: 57 70<150.063 334.166> 629 70<149.624 334.372>
LayerCount: 2
Fore
SplineSet
46 639 m 1
 46 695 l 1
 294 695 l 1
 292 522 127 399 127 233 c 0
 127 116 235 34 377 34 c 0
 525 34 629 120 629 233 c 0
 629 399 464 522 462 695 c 1
 710 695 l 1
 710 639 l 1
 519 639 l 1
 560 483 699 384 699 233 c 0
 699 101 565 -17 379 -17 c 0
 202 -17 57 93 57 233 c 0
 57 383 195 483 237 639 c 1
 46 639 l 1
EndSplineSet
EndChar

StartChar: circle
Encoding: 9675 9675 301
Width: 1091
Flags: HW
TeX: 750 222
HStem: -239 40<425.272 669.126> 727 40<425.453 664.074>
VStem: 58 40<134.185 391.802> 992 40<134.445 393.074>
LayerCount: 2
Fore
SplineSet
58 263 m 0
 58 547 282 767 545 767 c 0
 806 767 1032 549 1032 264 c 0
 1032 -26 802 -239 544 -239 c 0
 284 -239 58 -23 58 263 c 0
98 263 m 0
 98 0 307 -199 544 -199 c 0
 786 -199 992 1 992 264 c 0
 992 529 781 727 546 727 c 0
 305 727 98 527 98 263 c 0
EndSplineSet
EndChar

StartChar: uni301A
Encoding: 12314 12314 303
Width: 423
Flags: HW
TeX: 750 222
HStem: -222 40<165 256 296 399> 710 40<165 256 296 399>
VStem: 125 40<-182 710> 256 40<-182 710>
LayerCount: 2
Fore
SplineSet
125 -222 m 1
 125 750 l 1
 399 750 l 1
 399 710 l 1
 296 710 l 1
 296 -182 l 1
 399 -182 l 1
 399 -222 l 1
 125 -222 l 1
165 -182 m 1
 256 -182 l 1
 256 710 l 1
 165 710 l 1
 165 -182 l 1
EndSplineSet
EndChar

StartChar: uni301B
Encoding: 12315 12315 304
Width: 423
Flags: HW
TeX: 750 222
HStem: -222 40<23 125 165 257> 710 40<23 125 166 257>
VStem: 125 40<-182 710> 257 40<-182 710>
LayerCount: 2
Fore
SplineSet
23 -182 m 1
 125 -182 l 1
 125 710 l 1
 23 710 l 1
 23 750 l 1
 297 750 l 1
 297 -222 l 1
 23 -222 l 1
 23 -182 l 1
165 -182 m 1
 257 -182 l 1
 257 710 l 1
 166 710 l 1
 165 669 l 1
 165 -182 l 1
EndSplineSet
EndChar

StartChar: arrowup
Encoding: 8593 8593 305
Width: 525
Flags: HW
TeX: 694 166
HStem: -166 21G<252 272> 425 40<29 85.2363 438.807 495> 674 20G<255 270>
VStem: 242 40<-165.984 566> 262 1<633 694>
LayerCount: 2
Fore
SplineSet
29 425 m 1
 29 465 l 1
 192 502 248 633 262 694 c 1
 263 694 l 1xe8
 277 632 332 503 495 465 c 1
 495 425 l 1
 402 445 334 495 282 566 c 1
 282 -130 l 2xf0
 282 -146 282 -166 262 -166 c 0xe8
 242 -166 242 -144 242 -138 c 2
 242 566 l 1xf0
 193 493 114 444 29 425 c 1
EndSplineSet
EndChar

StartChar: arrowdown
Encoding: 8595 8595 306
Width: 525
Flags: HW
TeX: 694 166
HStem: -166 21G<260 265> 63 40<29 85.0623 439.249 495> 674 20G<252 270.5>
VStem: 242 40<-39 693.985>
LayerCount: 2
Fore
SplineSet
29 63 m 1
 29 103 l 1
 122 83 190 32 242 -39 c 1
 242 658 l 2
 242 674 242 694 262 694 c 0
 279 694 282 679 282 666 c 2
 282 -9 l 1
 283 -39 l 1
 332 34 410 84 495 103 c 1
 495 63 l 1
 352 30 287 -83 282 -116 c 1
 279 -116 l 1
 273 -132 267 -149 263 -166 c 1
 262 -166 l 1
 258 -149 252 -132 246 -116 c 1
 242 -116 l 1
 237 -83 173 30 29 63 c 1
EndSplineSet
EndChar

StartChar: uni22C6
Encoding: 8902 8902 308
Width: 525
Flags: HW
TeX: 500 -27
VStem: 262 1<456.519 519>
LayerCount: 2
Fore
SplineSet
-4 326 m 1
 235 278 l 1
 262 519 l 1
 263 519 l 1
 290 278 l 1
 498 320 l 1
 530 325 l 1
 308 225 l 1
 428 12 l 1
 263 191 l 1
 262 191 l 1
 98 12 l 1
 218 225 l 1
 -4 326 l 1
EndSplineSet
EndChar

StartChar: uni26AE
Encoding: 9902 9902 309
Width: 525
Flags: HW
TeX: 500 -27
HStem: 28 58<-86.3638 43.7309 481.597 613.162> 442 58<-87.7498 42.1433 481.988 612.749>
VStem: -203 58<155.389 374.238> 100 64<156.71 372.611> 231 64<-122 650> 362 62<155.389 374.231> 671 58<155.236 373.202>
LayerCount: 2
Fore
SplineSet
-203 264 m 0
 -203 406 -113 500 -21 500 c 0
 79 500 164 397 164 264 c 0
 164 134 82 28 -21 28 c 0
 -120 28 -203 131 -203 264 c 0
-145 257 m 2
 -145 151 -96 86 -21 86 c 0
 51 86 92 145 100 223 c 1
 102 264 l 1
 100 310 98 387 37 425 c 0
 19 436 -1 442 -21 442 c 0
 -71 442 -145 411 -145 264 c 2
 -145 257 l 2
231 -122 m 1
 231 650 l 1
 295 650 l 1
 295 -122 l 1
 231 -122 l 1
362 264 m 0
 362 406 454 500 546 500 c 0
 645 500 729 397 729 264 c 0
 729 134 647 28 546 28 c 0
 446 28 362 131 362 264 c 0
424 264 m 1
 426 219 427 140 488 102 c 0
 506 91 527 86 547 86 c 0
 597 86 671 117 671 264 c 0
 671 410 597 442 547 442 c 0
 475 442 434 383 426 305 c 1
 424 264 l 1
EndSplineSet
EndChar

StartChar: uni271D
Encoding: 10013 10013 310
Width: 525
Flags: HW
TeX: 611 22
HStem: 363 54<58 230 294 466>
VStem: 230 64<-22 363 417 617>
LayerCount: 2
Fore
SplineSet
58 361 m 1
 58 419 l 1
 230 417 l 1
 230 617 l 1
 294 617 l 1
 294 417 l 1
 466 419 l 1
 466 361 l 1
 294 363 l 1
 294 -22 l 1
 230 -22 l 1
 230 363 l 1
 58 361 l 1
EndSplineSet
EndChar

StartChar: leaf
Encoding: 61704 61704 311
Width: 1050
Flags: HW
TeX: 694 0
HStem: -58 24<131.38 396.389> 162 24<304 779> 370 24<619 945> 728 24<650.713 919.528>
VStem: 251 24<196 514> 566 24<405 696>
DStem2: 14 24 28 3 0.834206 0.551453<0.0983851 225.451 331.255 661.211 708.732 1209.35>
LayerCount: 2
Fore
SplineSet
-11 6 m 0
 -11 20 -5 69 1 100 c 0
 75 493 417 752 788 752 c 0
 888 752 979 732 1038 712 c 0
 1047 709 1062 707 1062 689 c 0
 1062 674 1056 625 1050 594 c 0
 974 192 624 -58 266 -58 c 0
 203 -58 109 -49 13 -17 c 0
 3 -14 -11 -12 -11 6 c 0
14 24 m 1
 251 180 l 1
 251 514 l 1
 171 443 53 286 20 67 c 1
 14 24 l 1
28 3 m 1
 102 -19 170 -34 265 -34 c 0
 483 -34 668 60 779 162 c 1
 277 162 l 2
 264 162 267 162 57 23 c 1
 28 3 l 1
275 196 m 1
 566 388 l 1
 566 696 l 1
 458 663 364 612 275 536 c 1
 275 196 l 1
304 186 m 1
 806 186 l 1
 887 267 927 335 945 370 c 1
 581 370 l 1
 304 186 l 1
590 405 m 1
 1023 691 l 1
 956 710 891 728 786 728 c 0
 708 728 647 717 590 703 c 1
 590 405 l 1
619 394 m 1
 958 394 l 1
 1017 524 1025 572 1037 671 c 1
 1036 671 l 1
 619 394 l 1
EndSplineSet
EndChar

StartChar: uni26AD
Encoding: 9901 9901 312
Width: 525
Flags: HW
TeX: 500 -27
HStem: 28 57<46.9924 209.813 314.743 474.156> 442 58<46.6025 209.915 315.187 477.802>
VStem: -87 58<163.721 363.828> 178 169<190 338> 554 58<164.172 363.953>
CounterMasks: 1 38
LayerCount: 2
Fore
SplineSet
-87 264 m 0
 -87 400 15 500 129 500 c 0
 156 500 211 493 262 450 c 1
 263 450 l 1
 296 478 343 500 396 500 c 0
 519 500 612 391 612 264 c 0
 612 128 510 28 396 28 c 0
 369 28 313 34 263 77 c 1
 262 77 l 1
 229 49 182 28 129 28 c 0
 5 28 -87 137 -87 264 c 0
-29 265 m 0
 -29 123 62 85 128 85 c 0
 170 85 200 98 225 116 c 1
 206 147 178 190 178 264 c 0
 178 339 206 381 225 411 c 1
 200 429 172 442 129 442 c 0
 54 442 -29 396 -29 265 c 0
240 264 m 1
 243 214 244 204 262 162 c 1
 263 162 l 1
 279 200 282 207 285 264 c 1
 282 320 279 328 263 365 c 1
 262 365 l 1
 246 327 243 321 240 264 c 1
300 116 m 1
 327 96 357 86 396 86 c 0
 470 86 554 132 554 263 c 0
 554 404 463 442 397 442 c 0
 355 442 325 429 300 411 c 1
 319 381 347 338 347 264 c 0
 347 190 319 146 300 116 c 1
EndSplineSet
EndChar

StartChar: musicalnote
Encoding: 9834 9834 313
Width: 642
Flags: HW
TeX: 694 0
HStem: -28 290<142.909 318.989> 674 20G<381 401>
VStem: 365 62<508.459 664.511> 365 40<215 504> 543 40<126.014 251.162>
LayerCount: 2
Fore
SplineSet
58 124 m 0
 58 207 138 262 232 262 c 0
 312 262 355 223 365 215 c 1
 365 666 l 2xd8
 365 690 377 694 385 694 c 0
 417 694 393 655 427 559 c 0xe8
 475 423 582 298 583 151 c 0
 583 130 571 126 563 126 c 0
 545 126 543 145 543 153 c 0
 538 269 473 359 405 504 c 1
 405 128 l 2xd8
 405 26 314 -28 231 -28 c 0
 131 -28 58 43 58 124 c 0
EndSplineSet
EndChar

StartChar: tildelow
Encoding: 61705 61705 314
Width: 642
Flags: HW
TeX: 134 0
HStem: 0 51<356.215 476.241> 84 51<163.583 284.785>
VStem: 87 50<0 55.8655> 503 51<77.3832 135>
LayerCount: 2
Fore
SplineSet
87 0 m 1
 90 90 157 135 216 135 c 0
 295 135 350 51 424 51 c 0
 458 51 500 75 503 135 c 1
 554 135 l 1
 551 48 486 0 425 0 c 0
 346 0 291 84 217 84 c 0
 183 84 140 60 137 0 c 1
 87 0 l 1
EndSplineSet
EndChar

StartChar: breve.ts1
Encoding: 61707 61707 316
Width: 642
Flags: HW
TeX: 694 0
HStem: 535 55<205.32 435.569> 675 20G<91 142 496.5 550>
VStem: 91 50<643.194 695> 499 51<642.33 695>
LayerCount: 2
Fore
SplineSet
91 695 m 1
 141 695 l 1
 143 663 157 628 219 606 c 0
 251 595 284 590 318 590 c 0
 404 590 494 615 499 695 c 1
 550 695 l 1
 546 579 419 535 321 535 c 0
 211 535 94 584 91 695 c 1
EndSplineSet
EndChar

StartChar: caron.ts1
Encoding: 61708 61708 317
Width: 642
Flags: HW
TeX: 694 0
HStem: 508 203
DStem2: 188 711 138 711 0.61178 -0.791028<0 210.304> 321 548 346 508 0.61178 0.791028<0 209.693>
LayerCount: 2
Fore
SplineSet
138 711 m 1
 188 711 l 1
 321 548 l 1
 453 711 l 1
 503 711 l 1
 346 508 l 1
 295 508 l 1
 138 711 l 1
EndSplineSet
EndChar

StartChar: dblgrave.ts1
Encoding: 61710 61710 319
Width: 525
Flags: HW
TeX: 694 0
HStem: 546 149
VStem: 87 317
DStem2: 152 695 87 695 0.459098 -0.888385<0 144.306> 327 695 262 695 0.459098 -0.888385<0 144.306>
LayerCount: 2
Fore
SplineSet
87 695 m 1
 152 695 l 1
 229 546 l 1
 178 546 l 1
 87 695 l 1
262 695 m 1
 327 695 l 1
 404 546 l 1
 353 546 l 1
 262 695 l 1
EndSplineSet
EndChar

StartChar: dagger
Encoding: 8224 8224 320
Width: 467
Flags: HW
TeX: 694 166
HStem: 440 64<59.676 219.891 246.109 406.096> 682 20G<227 237.5>
VStem: 201 64<-184 455.278 488.236 693.531> 201 56<659.654 700.782>
LayerCount: 2
Fore
SplineSet
58 472 m 0
 58 481 63 504 95 504 c 0
 129 504 183 487 222 484 c 1
 217 552 201 627 201 664 c 0xe0
 201 698 221 702 233 702 c 0
 242 702 246 700 257 694 c 1xd0
 263 684 265 673 265 659 c 0
 265 626 251 575 244 484 c 1
 289 487 333 504 371 504 c 0
 402 504 408 482 408 473 c 0
 408 464 404 440 372 440 c 0xe0
 338 440 283 457 244 460 c 1
 252 358 265 338 265 257 c 2
 265 -184 l 1
 201 -184 l 1
 201 257 l 2
 201 338 214 358 222 460 c 1
 177 457 133 440 95 440 c 0
 63 440 58 463 58 472 c 0
EndSplineSet
EndChar

StartChar: daggerdbl
Encoding: 8225 8225 321
Width: 467
Flags: HW
TeX: 694 166
HStem: -174 21G<225 238.5> 12 65<59.976 218.34 342 405.897> 33 44<92.242 218.34> 451 65<59.819 124 247.66 406.024> 682 20G<227 238>
VStem: 201 64<-172.472 30.5913 58.7209 261.257 266.654 469.279 497.582 700.539> 221 24<-59.9952 33 56 149.178 378.822 472 495 586.087>
LayerCount: 2
Fore
SplineSet
58 44 m 0
 58 57 66 77 95 77 c 0
 123 77 164 64 221 56 c 1xda
 219 109 201 183 201 223 c 0
 201 258 222 263 233 263 c 0
 242 263 265 258 265 227 c 0xdc
 265 175 247 114 245 56 c 1
 305 64 342 77 371 77 c 0
 401 77 408 56 408 44 c 0
 408 14 376 12 375 12 c 2xda
 342 15 l 1
 281 27 l 1
 245 33 l 1xba
 246 -14 265 -96 265 -136 c 0xbc
 265 -170 244 -174 233 -174 c 0
 217 -174 200 -164 200 -137 c 0
 200 -94 220 -18 221 33 c 1xba
 175 28 138 15 90 12 c 0
 88 12 58 15 58 44 c 0
58 483 m 0
 58 513 90 516 91 516 c 2
 124 513 l 1
 185 500 l 1
 221 495 l 1x9a
 220 543 201 624 201 664 c 0
 201 698 221 702 233 702 c 0
 243 702 265 698 265 667 c 0x9c
 265 611 247 550 245 495 c 1
 290 500 328 513 376 516 c 0
 378 516 408 512 408 483 c 0
 408 470 400 451 371 451 c 0x9a
 343 451 302 464 245 472 c 1x9a
 247 414 265 353 265 301 c 0
 265 270 243 265 233 265 c 0
 222 265 201 269 201 304 c 0x9c
 201 344 219 419 221 472 c 1
 153 463 128 451 97 451 c 0
 65 451 58 470 58 483 c 0
EndSplineSet
EndChar

StartChar: uni2016
Encoding: 8214 8214 322
Width: 525
Flags: HW
TeX: 750 222
VStem: 185 40<-220.945 748.996> 298 40<-220.986 748.997>
LayerCount: 2
Fore
SplineSet
185 -192 m 2
 185 721 l 2
 185 744 197 749 205 749 c 0
 213 749 225 746 225 720 c 2
 225 -192 l 2
 225 -217 212 -221 204 -221 c 0
 186 -221 185 -202 185 -192 c 2
298 -192 m 2
 298 721 l 2
 298 745 310 749 318 749 c 0
 326 749 338 746 338 720 c 2
 338 -192 l 2
 338 -217 326 -221 318 -221 c 0
 300 -221 298 -202 298 -192 c 2
EndSplineSet
EndChar

StartChar: perthousand
Encoding: 8240 8240 323
Width: 1225
Flags: HW
TeX: 750 55
HStem: -55 50<622.667 714.846 970.491 1064.85> 297 50<622.797 714.06 972.297 1063.83> 347 51<154.007 248.575> 699 51<156.61 248.397>
VStem: 58 61<443.455 654.906> 291 59<448.585 649.852> 525 61<40.5814 250.38> 758 58<47.7614 245.49> 874 62<40.5814 250.602> 1108 58<47.5412 245.49>
DStem2: 195 -13 223 -44 0.520851 0.853648<-23.1035 891.843>
LayerCount: 2
Fore
SplineSet
58 549 m 0
 58 673 133 750 204 750 c 0
 283 750 350 662 350 548 c 0
 350 437 285 347 205 347 c 0
 132 347 58 427 58 549 c 0
119 549 m 0
 119 492 126 452 149 425 c 0
 162 409 183 398 204 398 c 0
 256 398 291 470 291 549 c 0
 291 639 250 699 204 699 c 0
 175 699 146 678 132 640 c 0
 121 611 119 580 119 549 c 0
186 -35 m 0
 186 -26 194 -15 195 -13 c 2
 652 736 l 2
 656 741 661 749 671 749 c 0
 681 749 690 741 690 730 c 0
 690 724 689 722 676 700 c 2
 223 -44 l 2
 219 -50 213 -55 205 -55 c 0
 194 -55 186 -45 186 -35 c 0
525 146 m 0
 525 255 590 347 671 347 c 0
 751 347 816 258 816 145 c 0
 816 24 743 -55 671 -55 c 0
 598 -55 525 24 525 146 c 0
586 146 m 0
 586 89 594 49 617 22 c 0
 630 6 649 -5 670 -5 c 0
 722 -5 758 67 758 146 c 0
 758 236 715 297 670 297 c 0
 641 297 612 276 598 238 c 0
 587 209 586 177 586 146 c 0
874 146 m 0
 874 256 939 347 1020 347 c 0
 1100 347 1166 258 1166 145 c 0
 1166 23 1093 -55 1021 -55 c 0
 948 -55 874 24 874 146 c 0
936 146 m 0
 936 89 943 49 966 22 c 0
 979 6 999 -5 1020 -5 c 0
 1072 -5 1108 67 1108 146 c 0
 1108 236 1066 297 1020 297 c 0
 991 297 962 276 948 238 c 0
 937 209 936 177 936 146 c 0
EndSplineSet
EndChar

StartChar: bullet
Encoding: 8226 8226 324
Width: 525
Flags: HW
TeX: 470 -59
HStem: 60 408<172.064 352.376>
VStem: 58 408<173.233 354.767>
LayerCount: 2
Fore
SplineSet
58 264 m 0
 58 383 156 468 262 468 c 0
 370 468 466 382 466 264 c 0
 466 145 369 60 262 60 c 0
 154 60 58 146 58 264 c 0
EndSplineSet
EndChar

StartChar: uni2103
Encoding: 8451 8451 325
Width: 904
Flags: HW
TeX: 694 0
HStem: -17 53<551.284 774.782> 461 41<64.703 168.98> 654 40<64.8968 167.737> 658 53<549.233 768.228>
VStem: 0 40<528.133 628.687> 193 40<526.838 627.46> 315 70<224.935 467.113>
LayerCount: 2
Fore
SplineSet
0 578 m 0
 0 642 51 694 116 694 c 0
 177 694 233 645 233 578 c 0
 233 511 179 461 117 461 c 0
 56 461 0 511 0 578 c 0
40 578 m 0
 40 534 75 502 117 502 c 0
 158 502 193 534 193 578 c 0
 193 617 162 654 116 654 c 0xee
 73 654 40 620 40 578 c 0
315 347 m 0
 315 536 448 711 647 711 c 0
 735 711 794 693 840 677 c 1
 827 608 l 1
 782 632 735 658 646 658 c 0
 496 658 385 516 385 347 c 0
 385 185 490 36 647 36 c 0
 755 36 792 64 846 97 c 1
 851 39 l 1
 792 6 752 -17 647 -17 c 0xde
 448 -17 315 158 315 347 c 0
EndSplineSet
EndChar

StartChar: dollaroldstyle
Encoding: 63268 63268 326
Width: 642
Flags: HW
TeX: 750 55
HStem: -7 53<289 351> 640 54<184.673 238> 650 53<289 351 402 467.483>
VStem: 57 60<471.144 581.577> 238 51<-55 -7 52 333 417 640 701 750> 351 51<-55 -7 56 305 390 644 702 750> 523 59<120.563 241.105>
DStem2: 238 417 238 345 0.97287 -0.231353<-93.7586 0 69.05 116.181 185.462 269.951>
LayerCount: 2
Fore
SplineSet
46 61 m 1
 56 119 l 1
 110 89 160 64 238 52 c 1
 238 345 l 1
 238 345 57 382 57 518 c 0
 57 655 238 694 238 694 c 1xde
 238 750 l 1
 289 750 l 1
 289 701 l 1
 300 702 311 703 322 703 c 0xbe
 332 703 341 702 351 702 c 1
 351 750 l 1
 402 750 l 1
 402 698 l 1
 459 692 513 671 565 647 c 1
 555 592 l 1
 515 611 472 633 402 644 c 1
 402 378 l 1
 402 378 582 336 582 190 c 0
 582 100 498 23 402 2 c 1
 402 -55 l 1
 351 -55 l 1
 351 -7 l 1
 340 -8 328 -8 317 -8 c 0
 307 -8 299 -8 289 -7 c 1
 289 -55 l 1
 238 -55 l 1
 238 -2 l 1
 171 7 106 29 46 61 c 1
117 527 m 0
 117 483 152 438 238 417 c 1
 238 640 l 1xde
 197 629 117 594 117 527 c 0
289 46 m 1
 326 45 l 1
 351 46 l 1
 351 318 l 1
 289 333 l 1
 289 46 l 1
289 405 m 1
 351 390 l 1
 351 649 l 1
 315 650 l 1xbe
 289 648 l 1
 289 405 l 1
402 56 m 1
 482 80 523 131 523 181 c 0x9e
 523 230 483 282 402 305 c 1
 402 56 l 1
EndSplineSet
EndChar

StartChar: centoldstyle
Encoding: 63394 63394 327
Width: 525
Flags: HW
TeX: 555 83
HStem: -8 52<204.703 411.146> 433 52<203.46 344.427>
VStem: 46 65<140.874 337.426>
DStem2: 56 -71 101 -95 0.498038 0.867155<1.59996 140.293 202.054 579.245 650.675 736.892>
LayerCount: 2
Fore
SplineSet
46 236 m 0
 46 358 138 485 298 485 c 0
 317 485 348 483 373 480 c 1
 423 568 l 1
 467 543 l 1
 424 468 l 1
 446 462 468 451 489 442 c 1
 480 387 l 1
 453 400 426 413 397 421 c 1
 196 70 l 1
 223 56 245 44 295 44 c 0
 400 44 458 89 490 111 c 1
 495 55 l 1
 436 15 374 -8 294 -8 c 0
 231 -8 198 10 169 24 c 1
 101 -95 l 1
 56 -71 l 1
 128 54 l 1
 47 127 46 218 46 236 c 0
111 237 m 0
 111 197 122 142 157 104 c 1
 345 431 l 1
 330 432 314 433 299 433 c 0
 164 433 111 334 111 237 c 0
EndSplineSet
EndChar

StartChar: colonmonetary
Encoding: 8353 8353 328
Width: 671
Flags: HW
TeX: 750 55
HStem: -16 53<432 541.122> 658 53<432 534.023>
VStem: 81 70<223.935 472.17> 382 50<-55 -16 38 657 711 750>
LayerCount: 2
Fore
SplineSet
81 347 m 0
 81 548 223 698 381 710 c 1
 382 710 l 1
 382 750 l 1
 432 750 l 1
 432 711 l 1
 496 709 547 698 606 677 c 1
 593 608 l 1
 520 647 502 651 432 658 c 1
 432 37 l 1
 525 39 563 68 612 97 c 1
 617 39 l 1
 550 1 508 -15 432 -16 c 1
 432 -55 l 1
 382 -55 l 1
 382 -16 l 1
 381 -15 l 1
 217 -2 81 153 81 347 c 0
151 347 m 0
 151 183 249 70 355 43 c 1
 382 38 l 1
 382 657 l 1
 361 653 290 645 225 566 c 0
 175 505 151 426 151 347 c 0
EndSplineSet
EndChar

StartChar: uni20A9
Encoding: 8361 8361 329
Width: 967
Flags: HW
TeX: 694 0
ItalicCorrection: 14
HStem: -5 21G<220.951 303.049 661.951 746.049> 200 50<-8.81347 150 231 302 374 590 670 743 818 976.712> 394 50<-8.70016 91 174 360 431 533 612 800 876 976.612> 675 20G<15 89.0558 444.024 526.056 884.944 952>
DStem2: 83 695 15 695 0.289856 -0.95707<0 242.544 314.455 445.317 516.648 656.288> 302 200 359 200 0.27971 0.960085<-139.401 0 68.1433 202.48 270.343 463.184> 520 695 482 630 0.278735 -0.960368<51.832 244.676 314.714 446.875 517.192 656.877> 706 65 740 -5 0.289856 0.95707<0 139.929 209.522 342.123 412.005 656.578>
LayerCount: 2
Fore
SplineSet
-9 225 m 0
 -9 253 20 250 33 250 c 2
 150 250 l 1
 106 394 l 1
 35 394 l 2
 31 394 28 393 24 393 c 0
 -5 393 -9 411 -9 418 c 0
 -9 426 -6 443 21 444 c 1
 91 444 l 1
 15 695 l 1
 83 695 l 1
 159 444 l 1
 375 444 l 1
 450 695 l 1
 520 695 l 1
 596 444 l 1
 815 444 l 1
 891 695 l 1
 952 695 l 1
 876 444 l 1
 946 444 l 1
 973 443 977 426 977 418 c 0
 977 412 974 393 944 393 c 0
 940 393 936 394 932 394 c 2
 861 394 l 1
 818 250 l 1
 934 250 l 2
 949 250 957 251 965 246 c 0
 972 241 977 233 977 225 c 0
 977 217 973 199 943 199 c 0
 939 199 935 200 931 200 c 2
 802 200 l 1
 740 -5 l 1
 668 -5 l 1
 606 200 l 1
 359 200 l 1
 297 -5 l 1
 227 -5 l 1
 165 200 l 1
 36 200 l 2
 32 200 28 199 24 199 c 0
 -5 199 -9 216 -9 225 c 0
174 394 m 1
 216 250 l 1
 317 250 l 1
 360 394 l 1
 174 394 l 1
231 200 m 1
 237 173 256 120 267 65 c 1
 278 113 l 1
 302 200 l 1
 231 200 l 1
374 250 m 1
 590 250 l 1
 548 394 l 1
 417 394 l 1
 374 250 l 1
431 444 m 1
 533 444 l 1
 497 570 l 1
 482 630 l 1
 474 592 463 555 431 444 c 1
612 394 m 1
 654 250 l 1
 757 250 l 1
 800 394 l 1
 612 394 l 1
670 200 m 1
 706 65 l 1
 721 124 l 1
 743 200 l 1
 670 200 l 1
EndSplineSet
EndChar

StartChar: uni20A6
Encoding: 8358 8358 330
Width: 737
Flags: HW
TeX: 694 0
HStem: 0 21G<115 178 514.1 623> 200 50<-51.8457 115 178 388 483 560 623 788.852> 394 50<-51.852 115 178 283 377 560 623 788.852> 675 20G<115 223.837 560 623>
VStem: 115 63<0 200 250 394 444 637> 560 63<58 200 250 394 444 695>
DStem2: 213 695 178 637 0.478369 -0.878159<34.1903 253.904 342.778 474.495 563.848 725.381>
LayerCount: 2
Fore
SplineSet
-52 225 m 0
 -52 249 -28 250 -18 250 c 2
 115 250 l 1
 115 394 l 1
 -19 394 l 2
 -29 394 -52 395 -52 419 c 0
 -52 443 -29 444 -18 444 c 2
 115 444 l 1
 115 695 l 1
 213 695 l 1
 349 444 l 1
 560 444 l 1
 560 695 l 1
 623 695 l 1
 623 444 l 1
 756 444 l 2
 766 444 789 443 789 419 c 0
 789 394 766 394 755 394 c 2
 623 394 l 1
 623 250 l 1
 756 250 l 2
 766 250 789 249 789 225 c 0
 789 201 766 200 756 200 c 2
 623 200 l 1
 623 0 l 1
 525 0 l 1
 416 200 l 1
 178 200 l 1
 178 0 l 1
 115 0 l 1
 115 200 l 1
 -18 200 l 2
 -29 200 -52 201 -52 225 c 0
178 250 m 1
 388 250 l 1
 310 394 l 1
 178 394 l 1
 178 250 l 1
178 444 m 1
 283 444 l 1
 178 637 l 1
 178 444 l 1
377 394 m 1
 455 250 l 1
 560 250 l 1
 560 394 l 1
 377 394 l 1
483 200 m 1
 560 58 l 1
 560 200 l 1
 483 200 l 1
EndSplineSet
EndChar

StartChar: uni20B2
Encoding: 8370 8370 331
Width: 817
Flags: HW
TeX: 750 55
HStem: -16 53<354.308 441 491 642.992> 275 53<491 681> 657 53<355.309 441 491 626.77>
VStem: 81 70<238.484 456.696> 441 50<-55 -16 37 275 328 657 711 750> 681 65<62.4434 275>
LayerCount: 2
Fore
SplineSet
81 347 m 0
 81 552 255 700 441 710 c 1
 441 750 l 1
 491 750 l 1
 491 711 l 1
 589 710 667 689 737 663 c 1
 725 594 l 1
 657 627 600 654 491 658 c 1
 491 328 l 1
 746 328 l 1
 746 32 l 1
 649 -2 568 -14 491 -16 c 1
 491 -55 l 1
 441 -55 l 1
 441 -16 l 1
 252 -6 81 146 81 347 c 0
151 347 m 0
 151 196 263 54 441 37 c 1
 441 657 l 1
 250 637 151 486 151 347 c 0
491 37 m 1
 567 39 626 53 681 68 c 1
 681 275 l 1
 491 275 l 1
 491 37 l 1
EndSplineSet
EndChar

StartChar: peso
Encoding: 61711 61711 332
Width: 673
Flags: HW
TeX: 694 0
HStem: 0 21G<113 183> 200 50<-51.8457 113 183 422.804> 295 52<183 461.507> 641 54<183 461.768>
VStem: 113 70<0 200 250 295 347 641> 548 66<420.063 569.182>
LayerCount: 2
Fore
SplineSet
-52 225 m 0
 -52 250 -28 250 -18 250 c 2
 113 250 l 1
 113 695 l 1
 351 695 l 2
 406 695 454 689 508 659 c 0
 574 622 614 561 614 495 c 0
 614 415 544 295 353 295 c 2
 183 295 l 1
 183 250 l 1
 387 250 l 2
 406 250 423 246 423 225 c 0
 423 200 398 200 387 200 c 2
 183 200 l 1
 183 0 l 1
 113 0 l 1
 113 200 l 1
 -18 200 l 2
 -29 200 -52 201 -52 225 c 0
182 347 m 1
 340 347 l 2
 516 347 548 435 548 494 c 0
 548 553 514 641 343 641 c 2
 183 641 l 1
 182 601 l 1
 182 347 l 1
EndSplineSet
EndChar

StartChar: lira
Encoding: 8356 8356 333
Width: 671
Flags: HW
TeX: 694 0
HStem: -8 50<120.71 214.647 412.463 552.308> 89 50<123.768 230.469> 200 50<150.261 259 323 461.739> 365 50<150.261 259 323 461.739> 677 51<373.08 495.467>
VStem: 58 62<42.5951 84.8682> 259 64<129.468 200 250 365 415 619.53> 548 64<521 615.188> 577 64<66.8932 139>
LayerCount: 2
Fore
SplineSet
58 57 m 0
 58 106 114 139 188 139 c 0
 208 139 229 136 255 129 c 1
 258 159 l 1
 259 200 l 1
 183 200 l 2
 159 200 150 211 150 224 c 0
 150 248 173 250 183 250 c 2
 259 250 l 1
 259 365 l 1
 183 365 l 2
 159 365 150 377 150 390 c 0
 150 414 173 415 183 415 c 2
 259 415 l 1
 259 511 l 2
 259 664 361 728 437 728 c 0
 551 728 612 612 612 526 c 0
 612 506 605 495 583 491 c 1
 570 494 557 496 553 521 c 1
 548 521 l 1xff
 546 611 502 677 436 677 c 0
 399 677 365 657 345 623 c 0
 324 587 323 545 323 505 c 2
 323 415 l 1
 421 415 l 2
 431 415 440 416 447 412 c 0
 456 408 462 400 462 390 c 0
 462 366 439 365 426 365 c 2
 323 365 l 1
 323 250 l 1
 421 250 l 2
 431 250 440 251 447 247 c 0
 456 243 462 235 462 225 c 0
 462 201 439 200 426 200 c 2
 323 200 l 1
 323 195 324 189 324 184 c 0
 324 154 322 138 312 108 c 1
 390 73 447 42 505 42 c 0
 548 42 575 78 577 139 c 1
 641 139 l 1xfe80
 640 122 640 75 592 33 c 0
 559 4 517 -8 481 -8 c 0
 426 -8 389 9 283 58 c 1
 229 -5 166 -8 146 -8 c 0
 96 -8 58 18 58 57 c 0
120 58 m 0
 120 49 127 42 147 42 c 0
 198 42 219 66 231 78 c 1
 211 83 186 89 165 89 c 0xfe
 127 89 120 64 120 58 c 0
EndSplineSet
EndChar

StartChar: uni211E
Encoding: 8478 8478 334
Width: 671
Flags: HW
TeX: 694 0
HStem: -0 21G<98 167 557.514 641> 322 51<167 355> 641 54<167 460.812>
VStem: 98 69<0 322 373 641> 546 65<443.072 572.215>
DStem2: 290 108 324 67 0.76623 0.642566<0 167.947 231.365 412.115> 418 330 355 322 0.559904 -0.828557<0 87.92 148.023 359.089>
LayerCount: 2
Fore
SplineSet
98 -0 m 1
 98 695 l 1
 328 695 l 2
 538 695 611 582 611 507 c 0
 611 400 492 343 418 330 c 1
 467 257 l 1
 606 373 l 1
 640 332 l 1
 497 212 l 1
 641 -0 l 1
 571 -0 l 1
 453 175 l 1
 324 67 l 1
 290 108 l 1
 423 220 l 1
 355 322 l 1
 167 322 l 1
 167 -0 l 1
 98 -0 l 1
167 373 m 1
 325 373 l 2
 374 373 440 375 493 411 c 0
 518 428 546 461 546 507 c 0
 546 560 506 631 367 640 c 0
 353 641 338 641 324 641 c 2
 167 641 l 1
 167 373 l 1
EndSplineSet
EndChar

StartChar: uni203D
Encoding: 8253 8253 335
Width: 496
Flags: HW
TeX: 694 0
HStem: 0 78<208 286> 581 49<121.503 209 286 347.708> 675 20G<208 287>
VStem: 201 79<177 328.405 399 451.219> 208 78<0 78> 214 66<328.405 582 630.514 695> 372 65<451.237 556.489>
LayerCount: 2
Fore
SplineSet
58 588 m 1
 99 610 148 628 209 632 c 1
 208 695 l 1
 287 695 l 1
 286 630 l 1xea
 427 614 437 527 437 501 c 0
 437 396 319 392 282 291 c 1
 281 285 280 279 280 273 c 2
 280 265 l 2
 280 254 280 249 279 177 c 1
 202 177 l 1
 202 187 201 198 201 208 c 0xf2
 201 272 213 283 214 303 c 1xe6
 210 582 l 1
 159 575 131 569 77 535 c 1
 58 588 l 1
282 399 m 1
 336 445 372 451 372 502 c 0xe2
 372 565 320 577 285 581 c 1
 284 533 l 1
 282 399 l 1
EndSplineSet
Refer: 58 46 S 1 0 0 1 102 0 2
EndChar

StartChar: uni2E18
Encoding: 11800 11800 336
Width: 496
Flags: HW
TeX: 523 166
HStem: -167 21G<208 287> -103 52<139.065 209 286 368.285> -27 20G<399.5 425.17> 450 78<208 286>
VStem: 58 65<-34.684 81.667> 202 77<216.778 350> 208 78<450 528> 208 79<-167 -105> 210 75<-51 150>
LayerCount: 2
Fore
SplineSet
58 27 m 0
 58 80 86 109 92 115 c 0
 124 142 188 190 200 280 c 0
 202 293 202 307 202 320 c 2
 202 350 l 1
 279 350 l 1xfc
 285 -51 l 1xf880
 340 -43 381 -26 418 -7 c 1
 437 -60 l 1
 339 -104 290 -99 286 -103 c 1xfa
 287 -167 l 1
 208 -167 l 1xf9
 209 -105 l 1
 90 -99 58 -27 58 27 c 0
123 25 m 0xf880
 123 -39 162 -54 210 -55 c 1
 213 150 l 1
 182 113 188 120 144 82 c 1
 128 66 123 48 123 25 c 0xf880
EndSplineSet
Refer: 58 46 S 1 0 0 1 102 450 2
EndChar

StartChar: dong
Encoding: 8363 8363 337
Width: 517
Flags: HW
TeX: 750 0
HStem: -40 40<59.2483 567.985> 47 51<184.683 305.918> 486 50<191.829 315.138> 614 50<176 372 435 549>
VStem: 46 65<180.11 398.839> 371 64<55 129 142.495 452.546 465 614 664 750>
LayerCount: 2
Fore
SplineSet
46 291 m 0
 46 430 133 536 235 536 c 0
 294 536 338 507 372 465 c 1
 372 614 l 1
 176 614 l 1
 176 664 l 1
 372 664 l 1
 372 750 l 1
 435 750 l 1
 435 664 l 1
 549 664 l 1
 549 614 l 1
 435 614 l 1
 435 55 l 1
 371 55 l 1
 371 98 l 1
 370 129 l 1
 336 79 285 47 228 47 c 0
 123 47 46 160 46 291 c 0
59 -18 m 1
 64 -1 75 0 86 0 c 2
 540 0 l 2
 548 0 568 0 568 -20 c 0
 568 -31 562 -40 541 -40 c 2
 86 -40 l 2
 66 -40 60 -32 59 -18 c 1
111 292 m 0
 111 128 208 98 260 98 c 0
 306 98 335 123 353 147 c 1
 366 169 371 168 371 196 c 2
 371 407 l 2
 371 443 325 486 269 486 c 0
 227 486 111 462 111 292 c 0
EndSplineSet
EndChar

StartChar: trademark
Encoding: 8482 8482 338
Width: 700
Flags: HW
TeX: 750 0
ItalicCorrection: 524
HStem: 483 21G<511.5 530> 700 50<1.77499 143 207 348.666>
VStem: 143 64<360.219 700> 376 64<360.195 607> 609 65<360.602 607>
LayerCount: 2
Fore
SplineSet
1 722 m 0
 2 746 18 750 57 750 c 2
 308 750 l 2
 339 750 348 739 349 728 c 1
 349 721 l 1
 342 701 327 700 308 700 c 2
 207 700 l 1
 207 395 l 2
 207 387 208 359 175 359 c 0
 141 359 143 384 143 400 c 2
 143 700 l 1
 38 700 l 2
 9 700 1 717 1 722 c 0
376 393 m 2
 376 727 l 2
 376 737 374 766 408 766 c 0
 436 766 432 763 525 578 c 1
 613 755 609 749 615 755 c 0
 622 762 632 766 642 766 c 0
 671 766 674 743 674 732 c 2
 674 393 l 2
 674 365 655 359 641 359 c 0
 615 359 609 375 609 394 c 2
 609 607 l 1
 608 604 558 503 552 495 c 0
 545 487 535 483 525 483 c 0
 498 483 496 496 440 607 c 1
 440 394 l 2
 440 375 434 359 408 359 c 0
 393 359 376 365 376 393 c 2
EndSplineSet
EndChar

StartChar: uni2031
Encoding: 8241 8241 339
Width: 1580
Flags: HW
TeX: 750 55
HStem: -55 50<620.491 714.701 972.56 1066.7 1324.58 1419.27> 297 50<622.49 713.643 973.499 1067.08 1325.7 1418.74> 347 51<154.007 248.575> 699 51<156.61 248.397>
VStem: 58 61<443.455 654.906> 291 59<448.585 649.852> 524 62<40.5814 249.807> 758 58<47.8214 245.49> 877 61<40.8036 252.406> 1110 58<47.8214 245.311> 1229 61<40.023 251.624> 1462 59<47.5412 246.216>
DStem2: 195 -13 223 -44 0.520019 0.854155<-23.107 891.809>
LayerCount: 2
Fore
SplineSet
877 146 m 0
 877 270 952 347 1023 347 c 1
 1140 339 1168 211 1168 145 c 0
 1168 34 1103 -55 1023 -55 c 0
 950 -55 877 25 877 146 c 0
938 146 m 0
 938 89 945 49 968 22 c 0
 981 6 1001 -5 1022 -5 c 0
 1074 -5 1110 67 1110 146 c 0
 1110 234 1069 297 1022 297 c 0
 993 297 964 276 950 238 c 0
 939 209 938 177 938 146 c 0
1229 146 m 0
 1229 270 1305 347 1375 347 c 0
 1456 347 1521 257 1521 145 c 0
 1521 23 1447 -55 1375 -55 c 0
 1302 -55 1229 24 1229 146 c 0
1290 146 m 0
 1290 89 1297 50 1320 22 c 0
 1333 6 1354 -5 1375 -5 c 0
 1427 -5 1462 67 1462 146 c 0
 1462 234 1421 297 1374 297 c 0
 1345 297 1316 276 1302 238 c 0
 1291 209 1290 177 1290 146 c 0
EndSplineSet
Refer: 49 37 S 1 0 0 1 0 0 2
EndChar

StartChar: uni2029
Encoding: 8233 8233 340
Width: 496
Flags: HW
TeX: 694 166
HStem: -166 21G<348.5 369> 655 40<379 464.989>
VStem: 58 321<384.392 575.048> 339 40<-165.972 244.969>
LayerCount: 2
Fore
SplineSet
58 471 m 0xe0
 58 557 108 695 258 695 c 2
 436 695 l 2
 453 695 465 690 465 675 c 0
 465 657 450 655 440 655 c 2
 379 655 l 1
 379 -128 l 1
 379 -128 379 -166 359 -166 c 0xd0
 338 -166 339 -140 339 -138 c 2
 339 244 l 1xd0
 185 252 58 335 58 471 c 0xe0
EndSplineSet
EndChar

StartChar: uni0E3F
Encoding: 3647 3647 341
Width: 687
Flags: HW
TeX: 750 55
HStem: 0 53<166 286 337 457.457> 336 50<167 286 337 412.656> 641 54<167 286 337 435.617>
VStem: 99 67<53 336 386 641> 286 51<-55 0 53 336 387 640 695 750> 562 66<132.89 248.681>
LayerCount: 2
Fore
SplineSet
99 0 m 1
 99 695 l 1
 286 695 l 1
 286 750 l 1
 337 750 l 1
 337 695 l 1
 503 694 599 602 599 520 c 0
 599 443 521 393 451 372 c 1
 417 363 l 1
 532 348 628 278 628 188 c 0
 628 94 531 19 415 3 c 0
 392 0 369 0 346 -0 c 2
 337 -0 l 1
 337 -55 l 1
 286 -55 l 1
 286 0 l 1
 99 0 l 1
166 53 m 1
 286 53 l 1
 286 336 l 1
 167 336 l 1
 166 297 l 1
 166 53 l 1
166 386 m 1
 286 386 l 1
 286 641 l 1
 167 641 l 1
 166 605 l 1
 166 386 l 1
337 53 m 1
 461 54 562 112 562 189 c 0
 562 218 541 320 337 336 c 1
 337 53 l 1
337 387 m 1
 467 398 531 460 534 515 c 1
 533 527 537 560 487 594 c 0
 443 624 389 636 337 640 c 1
 337 387 l 1
EndSplineSet
EndChar

StartChar: uni2116
Encoding: 8470 8470 342
Width: 825
Flags: HW
TeX: 694 0
HStem: 0 21G<100 163 353.475 458> 178 50<560 757> 289 52<617.953 697.655> 481 51<620.432 696.11> 675 20G<100 204.458 395 458>
VStem: 100 63<0 630> 395 63<65 695> 559 52<347.947 471.966> 705 52<347.166 472.528>
DStem2: 332 280 237 377 0.307271 -0.951622<-347.49 221.864>
LayerCount: 2
Fore
SplineSet
100 0 m 1
 100 695 l 1
 198 695 l 1
 332 280 l 1
 372 151 386 109 395 65 c 1
 395 695 l 1
 458 695 l 1
 458 0 l 1
 360 0 l 1
 237 377 l 1
 174 578 174 579 163 630 c 1
 163 0 l 1
 100 0 l 1
559 408 m 0
 559 470 600 532 658 532 c 0
 711 532 757 477 757 408 c 0
 757 333 704 289 658 289 c 0
 600 289 559 346 559 408 c 0
560 178 m 1
 560 228 l 1
 757 228 l 1
 757 178 l 1
 560 178 l 1
611 400 m 2
 611 367 620 341 658 341 c 0
 704 341 705 379 705 403 c 2
 705 408 l 2
 705 450 696 481 658 481 c 0
 619 481 611 446 611 409 c 2
 611 400 l 2
EndSplineSet
EndChar

StartChar: uni2052
Encoding: 8274 8274 343
Width: 525
Flags: HW
TeX: 750 0
HStem: -0 118<328.432 445.558> 632 118<78.4219 195.484>
VStem: 78 118<632.283 749.644> 328 118<0.59024 117.535>
DStem2: 64 37 102 23 0.460017 0.88791<-17.1442 799.452>
LayerCount: 2
Fore
SplineSet
59 20 m 0
 59 26 61 32 64 37 c 2
 422 728 l 2
 424 731 432 749 446 749 c 0
 456 749 465 740 465 730 c 0
 465 722 459 712 455 704 c 2
 102 23 l 2
 98 15 91 1 78 1 c 0
 68 1 59 10 59 20 c 0
78 660 m 2
 78 722 l 2
 78 740 87 750 105 750 c 2
 166 750 l 2
 185 750 196 746 196 722 c 0
 196 702 196 682 196 662 c 0
 196 633 181 632 168 632 c 2
 106 632 l 2
 89 632 78 637 78 660 c 2
328 29 m 2
 328 90 l 2
 328 108 337 118 355 118 c 2
 416 118 l 2
 444 118 446 105 446 90 c 2
 446 30 l 2
 446 14 443 1 418 -0 c 1
 356 -0 l 1
 330 1 328 14 328 29 c 2
EndSplineSet
EndChar

StartChar: estimated
Encoding: 8494 8494 344
Width: 700
Flags: HW
TeX: 694 0
HStem: -8 50<283.07 537.774> 361 40<110 605> 656 51<270.761 467.249>
VStem: 39 68<234.375 361 401 471.103>
LayerCount: 2
Fore
SplineSet
39 350 m 0
 39 548 185 707 367 707 c 0
 506 707 670 632 670 361 c 1
 107 361 l 1
 107 351 l 2
 107 189 218 42 384 42 c 0
 511 42 609 86 660 111 c 1
 664 56 l 1
 561 8 467 -8 382 -8 c 0
 177 -8 39 164 39 350 c 0
110 401 m 1
 605 401 l 1
 587 629 437 656 366 656 c 0
 264 656 140 582 110 401 c 1
EndSplineSet
EndChar

StartChar: openbullet
Encoding: 9702 9702 345
Width: 525
Flags: HW
TeX: 470 -59
HStem: 60 40<184.536 338.58> 428 40<185.852 338.57>
VStem: 58 40<187.871 341.011> 426 40<186.989 341.245>
LayerCount: 2
Fore
SplineSet
58 264 m 0
 58 383 156 468 262 468 c 0
 370 468 466 382 466 264 c 0
 466 145 369 60 262 60 c 0
 154 60 58 146 58 264 c 0
98 264 m 0
 98 180 165 100 262 100 c 0
 348 100 426 169 426 264 c 0
 426 361 347 428 262 428 c 0
 177 428 98 359 98 264 c 0
EndSplineSet
EndChar

StartChar: uni2120
Encoding: 8480 8480 346
Width: 700
Flags: HW
TeX: 750 0
ItalicCorrection: 524
HStem: 375 50<26.3189 265.489> 483 21G<510.5 529> 556 50<97.7881 264.712> 700 50<97.7399 318.486>
VStem: 25 65<612.389 692.894> 271 65<430.661 550.882> 375 65<360.352 607> 608 65<360.602 607>
LayerCount: 2
Fore
SplineSet
25 651 m 0
 25 743 82 750 148 750 c 2
 283 750 l 2
 299 750 308 749 319 735 c 1
 321 730 l 1
 322 723 l 1
 319 700 293 700 282 700 c 2
 158 700 l 2
 154 700 150 699 146 699 c 2
 142 699 l 2
 115 699 113 698 97 692 c 1
 93 681 90 677 90 653 c 0
 90 630 93 625 97 614 c 1
 114 608 119 606 129 606 c 0
 132 606 137 607 142 607 c 0
 146 607 149 606 155 606 c 2
 208 606 l 2
 242 606 293 604 320 565 c 0
 337 541 336 511 336 488 c 0
 336 464 337 416 292 391 c 0
 265 376 234 375 204 375 c 2
 65 375 l 2
 38 375 26 388 26 400 c 0
 26 409 31 417 42 422 c 0
 51 426 61 425 70 425 c 2
 201 425 l 2
 257 425 271 429 271 489 c 0
 271 543 266 556 207 556 c 2
 130 556 l 1
 47 558 25 594 25 651 c 0
375 393 m 2
 375 727 l 2
 375 737 373 766 407 766 c 0
 435 766 431 763 524 578 c 1
 612 755 608 749 614 755 c 0
 621 762 631 766 641 766 c 0
 670 766 673 743 673 732 c 2
 673 393 l 2
 673 365 654 359 640 359 c 0
 614 359 608 375 608 394 c 2
 608 607 l 1
 607 604 557 503 551 495 c 0
 544 487 534 483 524 483 c 0
 497 483 496 496 440 607 c 1
 440 394 l 2
 440 375 433 359 407 359 c 0
 392 359 375 365 375 393 c 2
EndSplineSet
EndChar

StartChar: uni2045
Encoding: 8261 8261 347
Width: 379
Flags: HW
TeX: 750 222
HStem: -272 50<200.467 316> 239 50<257.083 316> 700 50<173.049 316>
VStem: 84 65<-173.702 182.291 343.993 674.925>
LayerCount: 2
Fore
SplineSet
84 -98 m 2
 84 111 l 2
 84 128 85 145 90 161 c 0
 123 259 248 263 255 264 c 1
 201 266 84 294 84 414 c 2
 84 628 l 2
 84 701 135 749 316 750 c 1
 316 700 l 1
 279 700 l 2
 176 700 148 671 148 627 c 0
 148 623 149 619 149 615 c 2
 149 437 l 2
 149 430 148 422 148 415 c 0
 148 314 247 290 316 289 c 1
 316 239 l 1
 221 238 163 195 151 145 c 0
 148 134 149 122 149 111 c 2
 149 -78 l 2
 149 -85 148 -91 148 -98 c 0
 148 -170 193 -222 276 -222 c 2
 316 -222 l 1
 316 -272 l 1
 231 -271 84 -237 84 -98 c 2
EndSplineSet
EndChar

StartChar: uni2046
Encoding: 8262 8262 348
Width: 379
Flags: HW
TeX: 750 222
HStem: -222 50<62 205.427> 239 50<62 119.797> 700 50<62 205.337>
VStem: 230 64<-146.476 180.234 349.704 674.476>
CounterMasks: 1 e0
LayerCount: 2
Fore
SplineSet
62 -172 m 1
 100 -172 l 2
 203 -172 230 -143 230 -99 c 2
 230 112 l 2
 230 213 130 238 62 239 c 1
 62 289 l 1
 145 290 206 324 224 374 c 0
 229 387 230 401 230 415 c 2
 230 627 l 2
 230 685 179 700 100 700 c 2
 62 700 l 1
 62 750 l 1
 242 749 294 701 294 627 c 2
 294 417 l 2
 294 400 293 383 288 367 c 0
 255 269 129 265 123 264 c 1
 177 262 294 234 294 114 c 2
 294 -99 l 2
 294 -173 244 -221 62 -222 c 1
 62 -172 l 1
EndSplineSet
EndChar

StartChar: cent
Encoding: 162 162 349
Width: 525
Flags: HW
TeX: 555 83
HStem: -7 52<201.996 266 316 412.298> 431 52<201.281 266 316 430.432>
VStem: 46 65<139.367 336.398> 266 50<-83 -5.40607 45 431 484 560>
LayerCount: 2
Fore
SplineSet
46 236 m 0
 46 351 128 467 266 483 c 1
 266 560 l 1
 316 560 l 1
 316 484 l 1
 385 483 425 470 489 442 c 1
 480 387 l 1
 413 420 382 431 316 432 c 1
 316 45 l 1
 390 50 434 72 490 111 c 1
 495 55 l 1
 442 19 389 -3 316 -7 c 1
 316 -83 l 1
 266 -83 l 1
 266 -7 l 1
 133 7 46 118 46 236 c 0
111 237 m 0
 111 143 163 59 266 45 c 1
 266 431 l 1
 170 419 111 340 111 237 c 0
EndSplineSet
EndChar

StartChar: currency
Encoding: 164 164 350
Width: 803
Flags: HW
TeX: 611 0
HStem: -8 40<301.046 498.954> 575 40<301.299 500.738>
VStem: 89 40<203.179 404.625> 673 40<202.21 404.17>
LayerCount: 2
Fore
SplineSet
52 -27 m 0
 52 -13 79 10 167 97 c 1
 167 98 l 1
 116 154 89 229 89 303 c 0
 89 370 112 448 167 509 c 1
 167 510 l 1
 55 621 55 619 52 630 c 1
 50 644 61 653 71 653 c 0
 83 653 86 648 196 538 c 1
 257 593 334 615 401 615 c 0
 468 615 545 593 606 538 c 1
 607 538 l 1
 711 642 719 653 731 653 c 0
 742 653 750 643 750 633 c 0
 750 622 754 628 635 509 c 1
 686 453 713 378 713 303 c 0
 713 215 678 148 635 98 c 1
 721 12 750 -9 750 -26 c 0
 750 -31 748 -35 744 -40 c 1
 741 -42 737 -46 732 -46 c 2
 731 -46 l 2
 720 -46 721 -44 607 70 c 1
 606 70 l 1
 550 19 475 -8 400 -8 c 0
 312 -8 245 27 195 70 c 1
 75 -51 86 -44 70 -46 c 1
 60 -46 52 -35 52 -27 c 0
129 304 m 0
 129 150 255 32 400 32 c 0
 545 32 673 148 673 304 c 0
 673 458 546 575 402 575 c 0
 254 575 129 456 129 304 c 0
EndSplineSet
EndChar

StartChar: yen
Encoding: 165 165 351
Width: 675
Flags: HW
TeX: 694 0
ItalicCorrection: 26
HStem: 0 21G<303 372> 200 50<-20.8709 303 372 695.772> 412 51<-20.5594 170 292 393 505 695.612> 675 20G<3 102.397 581.603 672>
VStem: 303 69<0 200 250 278>
DStem2: 88 695 3 695 0.583997 -0.811756<0 236.215 348.862 434.885> 342 342 372 278 0.583997 0.811756<0 86.6068 193.414 434.885>
LayerCount: 2
Fore
SplineSet
-21 225 m 0
 -21 248 -1 250 12 250 c 2
 303 250 l 1
 303 278 l 1
 207 412 l 1
 18 412 l 2
 4 412 -21 412 -21 437 c 0
 -21 444 -18 462 10 463 c 1
 170 463 l 1
 3 695 l 1
 88 695 l 1
 255 463 l 1
 429 463 l 1
 596 695 l 1
 672 695 l 1
 505 463 l 1
 665 463 l 1
 693 462 696 444 696 437 c 0
 696 414 674 412 661 412 c 2
 468 412 l 1
 372 278 l 1
 372 250 l 1
 656 250 l 2
 663 250 671 251 678 249 c 0
 688 246 696 236 696 225 c 0
 696 202 676 199 663 199 c 0
 661 199 659 200 657 200 c 2
 372 200 l 1
 372 0 l 1
 303 0 l 1
 303 200 l 1
 18 200 l 2
 16 200 15 199 12 199 c 0
 -1 199 -21 202 -21 225 c 0
292 412 m 1
 342 342 l 1
 393 412 l 1
 292 412 l 1
EndSplineSet
EndChar

StartChar: brokenbar
Encoding: 166 166 352
Width: 175
Flags: HW
TeX: 750 222
VStem: 67 40<-220.982 176.925 351.019 748.983>
LayerCount: 2
Fore
SplineSet
67 149 m 2
 67 169 76 177 86 177 c 0
 107 177 107 151 107 150 c 2
 107 -193 l 2
 107 -217 95 -221 87 -221 c 0
 66 -221 67 -196 67 -195 c 2
 67 149 l 2
67 378 m 2
 67 721 l 2
 67 746 81 749 87 749 c 0
 107 749 107 725 107 723 c 2
 107 379 l 2
 107 354 93 351 87 351 c 0
 66 351 67 377 67 378 c 2
EndSplineSet
EndChar

StartChar: dieresis.ts1
Encoding: 62030 62030 353
Width: 525
Flags: HW
TeX: 694 0
HStem: 620 75<122 197 326 401>
VStem: 122 75<620 695> 326 75<620 695>
LayerCount: 2
Fore
SplineSet
122 620 m 1
 122 695 l 1
 197 695 l 1
 197 620 l 1
 122 620 l 1
326 620 m 1
 326 695 l 1
 401 695 l 1
 401 620 l 1
 326 620 l 1
EndSplineSet
EndChar

StartChar: copyright
Encoding: 169 169 354
Width: 1091
Flags: HW
TeX: 750 222
HStem: -239 40<425.272 669.126> -17 53<499.451 736.127> 450 53<500.058 726.117> 727 40<425.453 664.074>
VStem: 58 40<134.185 391.802> 277 70<162.205 321.093> 992 40<134.445 393.074>
LayerCount: 2
Fore
SplineSet
277 243 m 0
 277 385 425 503 620 503 c 0
 692 503 734 491 772 479 c 1
 760 410 l 1
 728 428 692 450 619 450 c 0
 453 450 347 344 347 243 c 0
 347 139 453 36 622 36 c 0
 704 36 730 53 779 81 c 1
 784 22 l 1
 730 -4 704 -17 620 -17 c 0
 419 -17 277 106 277 243 c 0
EndSplineSet
Refer: 301 9675 S 1 0 0 1 0 0 3
EndChar

StartChar: ordfeminine
Encoding: 170 170 355
Width: 467
Flags: HW
TeX: 750 0
HStem: 285 50<33.2605 432.75> 367 50<121.187 245.251> 485 30<143.385 288> 715 47<132.109 257.354>
VStem: 55 63<423.304 451> 288 65<375 419 436.976 485 515 681.504>
LayerCount: 2
Fore
SplineSet
33 309 m 0
 33 333 56 335 65 335 c 2
 398 335 l 2
 411 335 433 333 433 309 c 0
 433 301 429 284 400 284 c 0
 397 284 395 285 392 285 c 2
 64 285 l 1
 35 286 33 303 33 309 c 0
55 447 m 0
 55 482 94 491 117 497 c 0
 173 511 231 515 288 515 c 1
 288 574 l 2
 288 635 273 715 214 715 c 0
 145 715 107 677 87 659 c 1
 82 715 l 1
 121 744 158 762 217 762 c 0
 292 762 353 690 353 577 c 2
 353 375 l 1
 289 375 l 1
 289 419 l 1
 279 409 239 367 135 367 c 0
 75 367 55 420 55 447 c 0
118 446 m 1
 122 429 136 417 188 417 c 0
 234 417 272 430 284 458 c 0
 288 466 288 476 288 485 c 1
 226 485 133 478 120 457 c 1
 118 451 l 1
 118 446 l 1
EndSplineSet
EndChar

StartChar: copyleft
Encoding: 61713 61713 356
Width: 1091
Flags: HW
TeX: 750 222
HStem: -239 40<425.272 669.126> -17 53<353.651 592.974> 450 53<365.643 592.167> 727 40<425.453 664.074>
VStem: 58 40<134.185 391.802> 743 70<164.05 322.6> 992 40<134.445 393.074>
LayerCount: 2
Fore
SplineSet
306 22 m 1
 311 81 l 1
 360 53 385 36 468 36 c 0
 634 36 743 137 743 243 c 0
 743 353 627 450 471 450 c 0
 398 450 362 427 330 410 c 1
 318 479 l 1
 369 495 408 503 469 503 c 0
 673 503 813 379 813 243 c 0
 813 106 671 -17 470 -17 c 0
 387 -17 359 -4 306 22 c 1
EndSplineSet
Refer: 301 9675 S 1 0 0 1 0 0 3
EndChar

StartChar: logicalnot
Encoding: 172 172 357
Width: 642
Flags: HW
TeX: 430 0
HStem: 320 40<59.0174 543>
VStem: 543 40<104.017 320>
LayerCount: 2
Fore
SplineSet
59 340 m 0
 59 362 83 360 92 360 c 2
 555 360 l 2
 582 360 583 343 583 330 c 2
 583 135 l 2
 583 127 583 104 563 104 c 0
 546 104 543 120 543 134 c 2
 543 320 l 1
 88 320 l 2
 63 320 59 331 59 340 c 0
EndSplineSet
EndChar

StartChar: uni2117
Encoding: 8471 8471 358
Width: 1091
Flags: HW
TeX: 750 222
HStem: -239 40<425.272 669.126> 0 21G<335 404> 191 52<404 710.256> 433 53<404 711.533> 727 40<425.453 664.074>
VStem: 58 40<134.185 391.802> 335 69<0 191 243 433> 771 65<289.618 385.669> 992 40<134.445 393.074>
LayerCount: 2
Fore
SplineSet
335 0 m 1
 335 486 l 1
 530 486 l 2
 544 486 559 487 573 487 c 0
 775 487 836 393 836 338 c 0
 836 279 769 191 576 191 c 2
 404 191 l 1
 404 0 l 1
 335 0 l 1
404 243 m 1
 584 243 l 2
 739 243 771 304 771 338 c 0
 771 371 744 404 687 421 c 0
 646 433 603 433 560 433 c 2
 404 433 l 1
 404 243 l 1
EndSplineSet
Refer: 301 9675 S 1 0 0 1 0 0 3
EndChar

StartChar: registered
Encoding: 174 174 359
Width: 1091
Flags: HW
TeX: 750 222
HStem: -239 40<425.272 669.126> -0 21G<335 404 777.461 866> 218 51<404 593> 433 53<404 714.852> 727 40<425.453 664.074>
VStem: 58 40<134.185 391.802> 335 69<0 218 269 433> 992 40<134.445 393.074>
DStem2: 655 224 593 219 0.685669 -0.727914<0 259.732>
LayerCount: 2
Fore
SplineSet
335 -0 m 1
 335 486 l 1
 560 486 l 2
 765 486 836 405 836 351 c 0
 836 326 819 255 655 224 c 1
 866 -0 l 1
 796 -0 l 1
 593 219 l 1
 562 218 l 1
 404 218 l 1
 404 -0 l 1
 335 -0 l 1
404 269 m 1
 557 269 l 2
 649 269 675 273 717 290 c 0
 769 311 769 340 770 351 c 1
 768 371 766 400 688 422 c 0
 651 433 612 433 573 433 c 2
 404 433 l 1
 404 269 l 1
EndSplineSet
Refer: 301 9675 S 1 0 0 1 0 0 3
EndChar

StartChar: degree
Encoding: 176 176 361
Width: 350
Flags: HW
TeX: 694 0
HStem: 462 40<122.917 224.988> 654 40<123.512 224.5>
VStem: 58 40<526.847 628.629> 250 41<527.102 629.327>
LayerCount: 2
Fore
SplineSet
58 578 m 0
 58 643 110 694 174 694 c 0
 243 694 291 638 291 579 c 0
 291 514 239 462 175 462 c 0
 107 462 58 518 58 578 c 0
98 578 m 0
 98 539 129 502 174 502 c 0
 215 502 250 534 250 578 c 0
 250 617 219 654 174 654 c 0
 133 654 98 622 98 578 c 0
EndSplineSet
EndChar

StartChar: plusminus
Encoding: 177 177 362
Width: 642
Flags: HW
TeX: 523 -1
HStem: 89 40<59.0059 301 341 581.855> 331 40<59.0138 301 341 581.986>
VStem: 301 40<129 331 371 612.984>
LayerCount: 2
Fore
SplineSet
59 109 m 0
 59 115 62 121 68 125 c 0
 75 130 85 129 96 129 c 2
 301 129 l 1
 301 331 l 1
 86 331 l 2
 77 331 59 332 59 351 c 0
 59 370 78 371 87 371 c 2
 301 371 l 1
 301 582 l 2
 301 591 300 613 321 613 c 0
 341 613 341 593 341 581 c 2
 341 371 l 1
 554 371 l 2
 563 371 582 370 582 351 c 0
 582 332 563 331 554 331 c 2
 341 331 l 1
 341 129 l 1
 557 129 l 2
 570 129 579 125 582 112 c 1
 582 106 l 1
 581 98 576 90 556 89 c 1
 88 89 l 2
 67 89 59 99 59 109 c 0
EndSplineSet
EndChar

StartChar: twosuperior
Encoding: 178 178 363
Width: 467
Flags: HW
TeX: 750 0
HStem: 347 56<107 413> 714 53<125.774 302.225>
VStem: 347 66<566.308 676.234>
LayerCount: 2
Fore
SplineSet
43 677 m 1
 70 712 113 767 218 767 c 0
 333 767 413 710 413 625 c 0
 413 538 318 519 237 478 c 0
 224 471 211 464 107 403 c 1
 413 403 l 1
 413 347 l 1
 52 347 l 1
 52 403 l 1
 156 466 169 473 182 480 c 0
 251 517 347 543 347 623 c 0
 347 695 263 714 206 714 c 0
 119 714 94 664 76 629 c 1
 43 677 l 1
EndSplineSet
EndChar

StartChar: threesuperior
Encoding: 179 179 364
Width: 467
Flags: HW
TeX: 750 0
HStem: 339 52<105.032 324.295> 536 50<174 286.768> 716 51<143.791 312.845>
VStem: 326 67<620.938 701.348> 352 70<418.606 507.554>
LayerCount: 2
Fore
SplineSet
43 382 m 1
 51 434 l 1
 107 409 162 391 236 391 c 0xe8
 330 391 352 435 352 463 c 0xe8
 352 486 336 507 316 518 c 0
 288 534 255 536 224 536 c 2
 174 536 l 1
 174 586 l 1
 218 590 268 590 302 618 c 0
 316 629 326 646 326 664 c 0
 326 685 312 716 239 716 c 0
 166 716 121 685 86 655 c 1
 58 702 l 1
 107 741 164 767 236 767 c 0
 319 767 393 725 393 664 c 0xf0
 393 595 319 565 312 561 c 1
 412 534 422 482 422 462 c 0
 422 400 349 339 234 339 c 0
 158 339 95 358 43 382 c 1
EndSplineSet
EndChar

StartChar: uni00B5
Encoding: 181 181 366
Width: 517
Flags: HW
TeX: 470 166
HStem: -167 21G<80 145> -8 47<159.7 292.893> -0 21G<372 435> 452 20G<80 145 371 435>
VStem: 80 65<-167 0 53.8751 472> 371 64<0 86 96.9781 472>
LayerCount: 2
Fore
SplineSet
80 -167 m 1
 80 472 l 1
 145 472 l 1
 145 122 l 2
 145 67 154 39 237 39 c 0xdc
 306 39 371 83 371 175 c 2
 371 472 l 1
 435 472 l 1
 435 -0 l 1
 372 -0 l 1xbc
 372 86 l 1
 337 27 270 -8 196 -8 c 0xdc
 177 -8 165 -6 145 -0 c 1xbc
 145 -167 l 1
 80 -167 l 1
EndSplineSet
EndChar

StartChar: paragraph
Encoding: 182 182 367
Width: 642
Flags: HW
TeX: 694 166
HStem: -166 21G<381.5 402 497 513> 655 40<412 485 525 610.766>
VStem: 58 354<383.423 560.893> 372 40<-165.972 244> 485 40<-165.99 655>
LayerCount: 2
Fore
SplineSet
58 470 m 0xe8
 58 579 149 695 333 695 c 2
 581 695 l 2
 601 695 606 691 611 679 c 1
 612 668 608 656 585 655 c 1
 525 655 l 1
 525 -136 l 2
 525 -152 521 -166 505 -166 c 0
 489 -166 485 -153 485 -136 c 2
 485 655 l 1
 412 655 l 1
 412 -128 l 1
 412 -128 412 -166 392 -166 c 0xd8
 371 -166 372 -140 372 -138 c 2
 372 244 l 1xd8
 242 247 58 308 58 470 c 0xe8
EndSplineSet
EndChar

StartChar: periodcentered
Encoding: 183 183 368
Width: 258
Flags: HW
TeX: 470 0
HStem: 218 63<97 160>
VStem: 97 63<218 281>
LayerCount: 2
Fore
SplineSet
97 218 m 1
 97 281 l 1
 160 281 l 1
 160 218 l 1
 97 218 l 1
EndSplineSet
EndChar

StartChar: uni203B
Encoding: 8251 8251 369
Width: 635
Flags: HW
TeX: 523 0
HStem: 0 118<258.432 375.558> 200 119<58.4648 175.371 458.356 575.452> 231 57<296.469 318> 400 119<258.432 375.558>
VStem: 58 118<200.514 318.341> 258 118<0.59024 117.535 400.614 518.535> 458 118<200.527 318.466>
DStem2: 108 497 80 468 0.707107 -0.707107<-35.6585 295.571 336.583 667.106> 81 51 107 20 0.706315 0.707898<-36.4408 294.112 335.168 665.623>
CounterMasks: 1 0e
LayerCount: 2
Fore
SplineSet
58 229 m 2
 58 292 l 2
 58 310 68 319 86 319 c 2
 145 319 l 2xde
 174 319 176 305 176 290 c 2
 176 231 l 2xbe
 176 201 162 201 148 200 c 1
 87 200 l 2
 69 200 58 205 58 229 c 2
59 19 m 1
 60 33 65 34 81 51 c 2
 289 260 l 1
 80 468 l 2
 72 476 59 487 59 499 c 0
 59 507 67 518 78 518 c 0
 90 518 98 507 108 497 c 0
 275 330 297 310 317 288 c 1
 318 288 l 1
 338 310 359 330 527 498 c 0
 537 508 544 518 556 518 c 0
 568 518 575 508 575 499 c 0
 575 486 564 478 553 467 c 2
 345 259 l 1
 367 239 388 217 555 50 c 0
 563 42 575 32 575 20 c 0
 575 10 567 1 556 1 c 0
 544 1 536 12 526 22 c 2
 318 231 l 1
 317 231 l 1xbe
 297 209 275 188 107 20 c 0
 97 10 90 1 79 1 c 0
 63 1 60 15 59 19 c 1
258 29 m 2
 258 90 l 2
 258 108 267 118 285 118 c 2
 346 118 l 2
 374 118 376 105 376 89 c 2
 376 30 l 2
 376 14 373 1 348 0 c 1
 286 0 l 1
 260 1 258 14 258 29 c 2
258 430 m 2
 258 491 l 2
 258 509 267 519 285 519 c 2
 346 519 l 2
 374 519 376 506 376 490 c 0
 376 470 376 450 376 430 c 0
 376 414 373 401 348 400 c 1
 286 400 l 1
 260 401 258 415 258 430 c 2
458 228 m 2
 458 292 l 2
 458 310 468 319 486 319 c 2
 545 319 l 2
 563 319 576 315 576 290 c 0xde
 576 270 576 250 576 230 c 0
 576 200 560 201 548 200 c 1
 487 200 l 2
 470 200 458 204 458 228 c 2
EndSplineSet
EndChar

StartChar: onesuperior
Encoding: 185 185 370
Width: 467
Flags: HW
TeX: 750 0
HStem: 347 51<86 213 278 393> 641 51<76 187.062>
VStem: 213 65<398 675>
LayerCount: 2
Fore
SplineSet
76 641 m 1
 76 692 l 1
 188 693 238 740 262 767 c 1
 278 767 l 1
 278 398 l 1
 393 398 l 1
 393 347 l 1
 86 347 l 1
 86 398 l 1
 213 398 l 1
 213 675 l 1
 177 656 139 641 76 641 c 1
EndSplineSet
EndChar

StartChar: ordmasculine
Encoding: 186 186 371
Width: 467
Flags: HW
TeX: 750 0
HStem: 285 50<33.2605 431.758> 367 52<159.55 306.357> 712 50<159.048 307.045>
VStem: 40 65<478.29 651.933> 361 65<474.493 654.029>
LayerCount: 2
Fore
SplineSet
33 309 m 0
 33 333 56 335 65 335 c 2
 398 335 l 2
 411 335 432 333 432 309 c 0
 432 301 429 284 400 284 c 0
 397 284 395 285 392 285 c 2
 64 285 l 1
 35 286 33 303 33 309 c 0
40 561 m 0
 40 668 122 762 233 762 c 0
 335 762 426 677 426 562 c 0
 426 457 343 367 233 367 c 0
 132 367 40 448 40 561 c 0
105 569 m 0
 105 442 186 419 233 419 c 0
 281 419 361 441 361 570 c 0
 361 683 288 712 233 712 c 0
 177 712 105 684 105 569 c 0
EndSplineSet
EndChar

StartChar: radical
Encoding: 8730 8730 372
Width: 496
Flags: HW
TeX: 750 182
HStem: 695 40<425 545.983>
DStem2: 22 144 58 108 0.564349 0.825536<0 83.5097> 143 321 110 185 0.21243 -0.977176<125.886 278.538> 203 49 213 -65 0.26869 0.963227<0 681.894>
LayerCount: 2
Fore
SplineSet
22 144 m 1
 143 321 l 1
 203 49 l 1
 390 717 l 1
 396 732 405 735 420 735 c 2
 516 735 l 2
 541 735 546 723 546 715 c 0
 546 693 522 695 512 695 c 2
 425 695 l 1
 213 -65 l 2
 208 -81 204 -91 182 -91 c 2
 170 -91 l 1
 110 185 l 1
 58 108 l 1
 22 144 l 1
EndSplineSet
EndChar

StartChar: onequarter
Encoding: 188 188 373
Width: 467
Flags: HW
TeX: 750 166
HStem: -167 21G<260 323> -76 53<100 260 323 437> 272 40<10.278 455.717> 352 50<87 214 279 394> 676 51<77 212.129>
VStem: 214 65<402 693> 263 60<-167 -76 -23 184>
DStem2: 29 -22 100 -23 0.629027 0.777383<43.8836 307.333>
LayerCount: 2
Fore
SplineSet
10 294 m 1
 15 311 27 312 37 312 c 2
 431 312 l 2
 441 312 450 310 456 297 c 1
 457 286 456 272 429 272 c 2
 38 272 l 2
 11 272 11 286 10 294 c 1
29 -22 m 1
 241 240 l 1
 323 240 l 1xfa
 323 -23 l 1
 437 -23 l 1
 437 -76 l 1
 323 -76 l 1
 323 -167 l 1
 260 -167 l 1
 260 -76 l 1
 29 -76 l 1
 29 -22 l 1
77 676 m 1
 77 727 l 1
 249 730 233 767 279 767 c 1xfc
 279 402 l 1
 394 402 l 1
 394 352 l 1
 87 352 l 1
 87 402 l 1
 214 402 l 1
 214 693 l 1
 174 680 140 677 77 676 c 1
100 -23 m 1
 263 -23 l 1xfa
 263 184 l 1
 213 118 l 1
 100 -23 l 1
EndSplineSet
EndChar

StartChar: onehalf
Encoding: 189 189 374
Width: 467
Flags: HW
TeX: 750 166
HStem: -167 53<111 414> 198 51<124.085 313.701> 272 40<10.278 455.717> 352 50<87 214 279 394> 676 51<77 212.129>
VStem: 214 65<402 693> 347 67<58.7508 166.618>
DStem2: 52 -116 111 -114 0.873085 0.487567<52.4872 310.474>
LayerCount: 2
Fore
SplineSet
10 294 m 1
 15 311 27 312 37 312 c 2
 431 312 l 2
 441 312 450 310 456 297 c 1
 457 286 456 272 429 272 c 2
 38 272 l 2
 11 272 11 286 10 294 c 1
44 172 m 1
 96 226 142 249 219 249 c 0
 340 249 414 197 414 120 c 0
 414 33 316 8 239 -35 c 0
 226 -42 213 -51 111 -114 c 1
 414 -114 l 1
 414 -167 l 1
 52 -167 l 1
 52 -116 l 1
 179 -35 l 1
 254 9 347 36 347 119 c 0
 347 189 258 198 206 198 c 0
 125 198 100 157 77 124 c 1
 44 172 l 1
77 676 m 1
 77 727 l 1
 249 730 233 767 279 767 c 1
 279 402 l 1
 394 402 l 1
 394 352 l 1
 87 352 l 1
 87 402 l 1
 214 402 l 1
 214 693 l 1
 174 680 140 677 77 676 c 1
EndSplineSet
EndChar

StartChar: threequarters
Encoding: 190 190 375
Width: 467
Flags: HW
TeX: 750 166
HStem: -167 21G<260 323> -76 53<100 260 323 437> 272 40<10.278 455.717> 335 52<91.2103 322.744> 534 51<175 287.633> 663 21G<74.6596 108> 716 51<138.946 313.808>
VStem: 263 60<-167 -76 -23 184> 327 66<620.907 700.837> 352 70<414.159 505.295>
DStem2: 29 -22 100 -23 0.629027 0.777383<43.8836 307.333>
LayerCount: 2
Fore
SplineSet
10 294 m 1
 15 311 27 312 37 312 c 2
 431 312 l 2
 441 312 450 310 456 297 c 1
 457 286 456 272 429 272 c 2
 38 272 l 2
 11 272 11 286 10 294 c 1
29 -22 m 1
 241 240 l 1
 323 240 l 1
 323 -23 l 1
 437 -23 l 1
 437 -76 l 1
 323 -76 l 1
 323 -167 l 1
 260 -167 l 1
 260 -76 l 1
 29 -76 l 1
 29 -22 l 1
44 370 m 1
 51 422 l 1
 108 402 163 387 237 387 c 0
 328 387 352 431 352 460 c 0xff40
 352 475 343 526 255 533 c 1
 224 534 l 1
 175 534 l 1
 175 585 l 1
 257 592 278 596 303 618 c 0
 316 629 327 646 327 664 c 0
 327 685 312 716 238 716 c 0
 173 716 129 694 87 663 c 1
 58 710 l 1
 108 744 166 767 237 767 c 0
 329 767 393 720 393 663 c 0xff80
 393 596 324 565 312 559 c 1
 387 539 422 500 422 460 c 0
 422 398 352 335 235 335 c 0
 159 335 98 350 44 370 c 1
100 -23 m 1
 263 -23 l 1xff
 263 184 l 1
 213 118 l 1
 100 -23 l 1
EndSplineSet
EndChar

StartChar: Euro.old
Encoding: 62028 62028 376
Width: 817
Flags: HW
TeX: 694 0
HStem: -17 53<440.487 679.126> 273 49<67 140 220 614> 373 49<67 140 220 651> 658 53<440.614 683.485>
VStem: 140 71<322 373> 149 71<422 470.136>
LayerCount: 2
Fore
SplineSet
48 273 m 1
 67 322 l 1
 140 322 l 1
 139 348 l 1
 140 373 l 1xf8
 48 373 l 1
 67 422 l 1
 149 422 l 1
 184 570 342 711 572 711 c 0xf4
 646 711 697 700 758 677 c 1
 733 611 l 1
 696 631 655 658 571 658 c 0
 409 658 263 566 220 422 c 1xf4
 670 422 l 1
 651 373 l 1
 211 373 l 1
 209 347 l 1
 211 322 l 1xf8
 633 322 l 1
 614 273 l 1
 220 273 l 1
 232 240 239 219 263 185 c 0
 332 87 451 36 571 36 c 0
 662 36 686 60 734 97 c 1
 734 39 l 1
 685 2 656 -17 570 -17 c 0
 368 -17 189 103 149 272 c 1xf4
 148 273 l 1
 48 273 l 1
EndSplineSet
EndChar

StartChar: multiply
Encoding: 215 215 377
Width: 642
Flags: HW
TeX: 523 -1
VStem: 292 57<264 280.064>
DStem2: 292 264 320 236 0.707107 0.707107<-213.546 0 41.0122 246.078>
LayerCount: 2
Fore
SplineSet
130 93 m 1
 131 98 l 1
 133 103 l 1
 141 113 l 1
 292 264 l 1
 292 265 l 1
 125 432 131 422 130 438 c 0
 130 446 139 455 149 455 c 2
 151 455 l 2
 161 455 163 450 321 292 c 1
 479 450 479 454 492 454 c 0
 504 454 511 444 511 436 c 0
 511 425 516 431 349 265 c 1
 349 264 l 1
 516 98 510 107 511 90 c 0
 511 81 502 74 493 74 c 0
 492 74 492 73 491 73 c 0
 481 73 478 78 320 236 c 1
 169 85 l 1
 159 76 l 1
 154 74 l 1
 149 74 l 1
 138 76 131 82 130 93 c 1
EndSplineSet
EndChar

StartChar: divide
Encoding: 247 247 378
Width: 642
Flags: HW
TeX: 523 -1
HStem: -10 118<262.248 378.701> 244 40<59.052 581.985> 420 118<262.422 378.684>
VStem: 262 117<-9.55067 107.547 420.333 537.644>
CounterMasks: 1 e0
LayerCount: 2
Fore
SplineSet
59 263 m 0
 59 283 77 284 89 284 c 2
 554 284 l 2
 562 284 582 284 582 264 c 0
 582 253 576 244 555 244 c 2
 86 244 l 2
 66 244 59 253 59 263 c 0
261 78 m 0
 261 108 276 107 290 108 c 1
 349 108 l 2
 377 108 379 95 379 79 c 0
 379 59 379 40 379 20 c 0
 379 3 377 -9 352 -10 c 1
 289 -10 l 1
 263 -9 262 4 262 19 c 0
 262 35 262 51 262 67 c 0
 262 70 261 74 261 78 c 0
262 448 m 2
 262 510 l 2
 262 528 271 538 289 538 c 2
 349 538 l 2
 368 538 379 534 379 510 c 2
 379 463 l 2
 379 459 380 454 380 450 c 0
 380 421 364 420 352 420 c 2
 290 420 l 2
 274 420 262 425 262 448 c 2
EndSplineSet
EndChar

StartChar: cyrflex
Encoding: 63189 63189 380
Width: 525
Flags: HW
TeX: 666 0
HStem: 620 55<179.047 344.642>
VStem: 91 50<537 583.898> 382 51<537 583.898>
LayerCount: 2
Fore
SplineSet
91 537 m 1
 94 629 182 675 262 675 c 0
 343 675 430 629 433 537 c 1
 382 537 l 1
 377 610 292 620 261 620 c 0
 231 620 146 610 141 537 c 1
 91 537 l 1
EndSplineSet
EndChar

StartChar: emdash.cyr
Encoding: 61715 61715 383
Width: 846
Flags: HW
TeX: 472 0
ItalicCorrection: 29
HStem: 267 50<14 830>
LayerCount: 2
Fore
SplineSet
14 267 m 1
 14 317 l 1
 830 317 l 1
 830 267 l 1
 14 267 l 1
EndSplineSet
EndChar

StartChar: afii10050
Encoding: 1168 1168 385
Width: 581
Flags: HW
TeX: 861 0
HStem: -0 21G<98 168> 641 54<168 481>
VStem: 98 70<0 641> 481 56<695 861>
LayerCount: 2
Fore
SplineSet
98 -0 m 1
 98 695 l 1
 481 695 l 1
 481 861 l 1
 537 861 l 1
 537 641 l 1
 168 641 l 1
 168 -0 l 1
 98 -0 l 1
EndSplineSet
EndChar

StartChar: uni0492
Encoding: 1170 1170 386
Width: 567
Flags: HW
TeX: 694 0
HStem: 0 21G<98 168> 336 50<19 98 168 289> 641 54<168 522>
VStem: 98 70<0 336 386 641>
LayerCount: 2
Fore
SplineSet
19 336 m 1
 19 386 l 1
 98 386 l 1
 98 695 l 1
 522 695 l 1
 522 641 l 1
 168 641 l 1
 168 386 l 1
 289 386 l 1
 289 336 l 1
 168 336 l 1
 168 0 l 1
 98 0 l 1
 98 336 l 1
 19 336 l 1
EndSplineSet
EndChar

StartChar: afii10051
Encoding: 1026 1026 387
Width: 871
Flags: HW
TeX: 694 0
HStem: -17 51<481.437 695.373> 0 21G<327 397> 439 50<510.533 703.094> 641 54<37 327 397 686>
VStem: 327 70<0 356.778 369 641> 768 64<115.01 385.4>
LayerCount: 2
Fore
SplineSet
37 641 m 1
 37 695 l 1
 686 695 l 1
 686 641 l 1
 397 641 l 1
 397 369 l 1
 421 413 487 489 621 489 c 0
 820 489 832 385 832 312 c 2
 832 231 l 2
 832 200 832 183 825 153 c 0
 806 77 738 -17 608 -17 c 0xbc
 537 -17 502 -7 470 0 c 1x7c
 485 57 l 1
 521 44 548 34 609 34 c 0xbc
 672 34 768 58 768 224 c 0
 768 235 767 246 767 257 c 2
 767 302 l 2
 767 306 768 312 768 316 c 0
 768 390 725 439 572 439 c 0
 460 439 407 362 398 300 c 0
 396 288 397 276 397 264 c 2
 397 0 l 1
 327 0 l 1x7c
 327 641 l 1
 37 641 l 1
EndSplineSet
EndChar

StartChar: afii10060
Encoding: 1035 1035 388
Width: 802
Flags: HW
TeX: 694 0
HStem: 0 21G<286 356 612 677> 430 51<435.471 571.203> 641 54<38 286 356 662>
VStem: 286 70<0 364.33 376 641> 612 65<0 391.84>
LayerCount: 2
Fore
SplineSet
38 641 m 1
 38 695 l 1
 662 695 l 1
 662 641 l 1
 356 641 l 1
 356 376 l 1
 372 409 422 481 520 481 c 0
 674 481 677 372 677 312 c 2
 677 0 l 1
 612 0 l 1
 612 309 l 1
 611 347 617 430 481 430 c 0
 438 430 356 405 356 262 c 2
 356 0 l 1
 286 0 l 1
 286 641 l 1
 38 641 l 1
EndSplineSet
EndChar

StartChar: uni04BA
Encoding: 1210 1210 389
Width: 704
Flags: HW
TeX: 694 0
HStem: 0 21G<98 168 535 605> 501 50<275.94 462.795> 675 20G<98 168>
VStem: 98 70<0 387.477 455 695> 535 70<0 435.517>
LayerCount: 2
Fore
SplineSet
98 0 m 1
 98 695 l 1
 168 695 l 1
 168 455 l 1
 193 479 259 551 391 551 c 0
 599 551 605 413 605 344 c 2
 605 0 l 1
 535 0 l 1
 535 339 l 2
 535 436 496 501 351 501 c 0
 234 501 179 399 170 315 c 0
 168 300 168 285 168 270 c 2
 168 0 l 1
 98 0 l 1
EndSplineSet
EndChar

StartChar: uni0496
Encoding: 1174 1174 390
Width: 1142
Flags: HW
TeX: 694 166
HStem: -167 21G<1047 1103> 0 21G<43 133.08 537 603> 675 20G<58 159.41 537 603 979.641 1082>
VStem: 537 66<0 224 305 695> 1047 56<-167 0>
DStem2: 43 0 119 0 0.574769 0.818316<43.6825 502.29> 139 695 58 695 0.713036 -0.701127<0 334.704 398.342 557.228> 603 305 603 224 0.713036 0.701127<0 158.173 222.524 556.515> 802 420 757 375 0.574195 -0.818719<11.0036 448.038>
LayerCount: 2
Fore
SplineSet
43 0 m 1
 338 420 l 1
 58 695 l 1
 139 695 l 1
 537 305 l 1
 537 695 l 1
 603 695 l 1
 603 305 l 1
 1000 695 l 1
 1082 695 l 1
 802 420 l 1
 1059 53 l 1
 1103 53 l 1
 1103 -167 l 1
 1047 -167 l 1
 1047 0 l 1
 1020 0 l 1
 757 375 l 1
 756 375 l 1
 603 224 l 1
 603 0 l 1
 537 0 l 1
 537 224 l 1
 383 375 l 1
 119 0 l 1
 43 0 l 1
EndSplineSet
EndChar

StartChar: uni0498
Encoding: 1176 1176 391
Width: 642
Flags: HW
TeX: 694 166
HStem: -38 20G<291.723 351> -17 53<188.094 430.672> 336 50<204 379.25> 658 53<201.113 443.065>
VStem: 504 64<461.355 601.574> 531 66<120.721 250.489>
DStem2: 224 -184 282 -184 0.42079 0.907158<24.4058 182.989>
LayerCount: 2
Fore
SplineSet
52 82 m 1
 81 133 l 1
 147 76 186 36 321 36 c 0
 454 36 531 113 531 186 c 0xf4
 531 254 460 331 338 336 c 1
 204 336 l 1
 204 386 l 1
 279 386 l 2
 306 386 334 385 368 393 c 0
 427 406 504 450 504 525 c 0
 504 632 425 658 326 658 c 0
 202 658 148 612 96 569 c 1
 64 625 l 1
 152 689 222 711 327 711 c 0
 452 711 568 679 568 526 c 0xf8
 568 493 554 402 382 363 c 1
 494 347 597 281 597 185 c 0
 597 91 500 -17 320 -17 c 0
 188 -17 137 12 52 82 c 1
224 -184 m 1
 301 -18 l 1
 351 -18 l 1xf0
 282 -184 l 1
 224 -184 l 1
EndSplineSet
EndChar

StartChar: afii10058
Encoding: 1033 1033 392
Width: 1070
Flags: HW
TeX: 694 0
HStem: 0 53<20 127.746 611 849.014> 335 53<611 849.443> 641 54<288 541>
VStem: 233 55<473.65 641> 541 70<53 335 388 641> 945 66<130.603 257.309>
LayerCount: 2
Fore
SplineSet
20 -0 m 1
 20 53 l 1
 59 53 l 2
 112 53 161 61 197 249 c 0
 230 424 233 561 233 695 c 1
 611 695 l 1
 611 388 l 1
 767 388 l 2
 946 388 1011 272 1011 194 c 0
 1011 116 948 0 765 0 c 2
 541 0 l 1
 541 641 l 1
 288 641 l 1
 288 462 267 303 243 194 c 0
 205 20 142 0 84 -0 c 2
 20 -0 l 1
611 53 m 1
 742 53 l 2
 881 53 945 131 945 194 c 0
 945 250 890 335 739 335 c 2
 611 335 l 1
 611 53 l 1
EndSplineSet
EndChar

StartChar: uni049A
Encoding: 1178 1178 394
Width: 704
Flags: HW
TeX: 694 166
HStem: -167 21G<610 666> -0 21G<100 166> 675 20G<100 166 543.59 645>
VStem: 100 66<0 224 305 695> 610 56<-167 0>
DStem2: 166 305 166 224 0.713036 0.701127<0 158.886 222.524 557.228> 365 420 320 375 0.575655 -0.817692<10.8917 448.037>
LayerCount: 2
Fore
SplineSet
100 -0 m 1
 100 695 l 1
 166 695 l 1
 166 305 l 1
 564 695 l 1
 645 695 l 1
 365 420 l 1
 622 53 l 1
 666 53 l 1
 666 -167 l 1
 610 -167 l 1
 610 -0 l 1
 584 -0 l 1
 320 375 l 1
 166 224 l 1
 166 -0 l 1
 100 -0 l 1
EndSplineSet
EndChar

StartChar: uni04A0
Encoding: 1184 1184 395
Width: 933
Flags: HW
TeX: 694 0
HStem: 0 21G<328 395 797.973 888> 641 54<37 328>
VStem: 328 67<0 224 305 641>
DStem2: 395 305 395 224 0.712303 0.701872<0 158.113 221.751 556.514> 593 420 549 375 0.574769 -0.818316<11.5344 469.567>
LayerCount: 2
Fore
SplineSet
37 641 m 1
 37 695 l 1
 395 695 l 1
 395 305 l 1
 792 695 l 1
 873 695 l 1
 593 420 l 1
 888 0 l 1
 812 0 l 1
 549 375 l 1
 548 375 l 1
 395 224 l 1
 395 0 l 1
 328 0 l 1
 328 641 l 1
 37 641 l 1
EndSplineSet
EndChar

StartChar: uni049C
Encoding: 1180 1180 396
Width: 808
Flags: HW
TeX: 694 0
HStem: 0 21G<100 166 671.038 764> 397 51<166 319 370 389> 675 20G<100 166 643.3 749>
VStem: 100 66<0 397 448 695> 319 51<242 397 448 589>
DStem2: 450 418 389 397 0.600612 -0.799541<0 475.952> 397 448 450 419 0.734803 0.67828<19.2745 364.463>
LayerCount: 2
Fore
SplineSet
100 0 m 1
 100 695 l 1
 166 695 l 1
 166 448 l 1
 319 448 l 1
 319 589 l 1
 370 589 l 1
 370 448 l 1
 397 448 l 1
 665 695 l 1
 749 695 l 1
 450 419 l 1
 450 418 l 1
 764 0 l 1
 686 0 l 1
 389 397 l 1
 370 397 l 1
 370 242 l 1
 319 242 l 1
 319 397 l 1
 166 397 l 1
 166 0 l 1
 100 0 l 1
EndSplineSet
EndChar

StartChar: uni04A2
Encoding: 1186 1186 398
Width: 710
Flags: HW
TeX: 694 166
HStem: -167 21G<615 671> 0 21G<98 168> 335 53<168 535> 675 20G<98 168 535 605>
VStem: 98 70<0 335 388 695> 535 70<52 335 388 695> 615 56<-167 0>
LayerCount: 2
Fore
SplineSet
98 0 m 1
 98 695 l 1
 168 695 l 1
 168 388 l 1
 535 388 l 1
 535 695 l 1
 605 695 l 1
 605 52 l 1
 671 52 l 1
 671 -167 l 1
 615 -167 l 1
 615 0 l 1
 535 0 l 1
 535 335 l 1
 168 335 l 1
 168 0 l 1
 98 0 l 1
EndSplineSet
EndChar

StartChar: uni04A4
Encoding: 1188 1188 399
Width: 933
Flags: HW
TeX: 694 0
HStem: 0 21G<98 168 535 605> 335 53<168 535> 641 54<605 895>
VStem: 98 70<0 335 388 695> 535 70<0 335 388 641>
LayerCount: 2
Fore
SplineSet
98 0 m 1
 98 695 l 1
 168 695 l 1
 168 388 l 1
 535 388 l 1
 535 695 l 1
 895 695 l 1
 895 641 l 1
 605 641 l 1
 605 0 l 1
 535 0 l 1
 535 335 l 1
 168 335 l 1
 168 0 l 1
 98 0 l 1
EndSplineSet
EndChar

StartChar: uni04E8
Encoding: 1256 1256 401
Width: 783
Flags: HW
TeX: 694 0
HStem: -17 53<293.053 486.841> 335 53<129 653> 660 51<293.565 487.666>
VStem: 58 71<226.665 335 388 471.579> 653 71<226.278 335 388 473.59>
AnchorPoint: "above" 391 711 basechar 0
LayerCount: 2
Fore
SplineSet
58 346 m 0
 58 554 213 711 391 711 c 0
 568 711 724 555 724 346 c 0
 724 137 567 -17 391 -17 c 0
 214 -17 58 138 58 346 c 0
129 335 m 1
 127 231 207 36 391 36 c 0
 537 36 645 168 653 335 c 1
 129 335 l 1
129 388 m 1
 653 388 l 1
 636 591 492 660 391 660 c 0
 264 660 143 564 129 388 c 1
EndSplineSet
EndChar

StartChar: uni04AA
Encoding: 1194 1194 402
Width: 671
Flags: HW
TeX: 694 166
HStem: -38 20G<372.843 432> -17 53<317.284 541.56> 658 53<318.047 534.228>
VStem: 81 70<224.935 470.354>
DStem2: 306 -184 363 -184 0.416277 0.909238<23.7278 182.571>
LayerCount: 2
Fore
SplineSet
306 -184 m 1
 382 -18 l 1
 432 -18 l 1
 363 -184 l 1
 306 -184 l 1
EndSplineSet
Refer: 79 67 S 1 0 0 1 0 0 3
EndChar

StartChar: afii10062
Encoding: 1038 1038 403
Width: 675
Flags: HW
TeX: 888 0
ItalicCorrection: 14
HStem: 0 53<162 298.802> 675 20<14 101.091 582.31 659> 739 55<263.175 416.502>
VStem: 169 51<836.186 889> 461 50<836.27 889>
DStem2: 90 695 14 695 0.487476 -0.873137<0 586.646> 445 359 463 245 0.399322 0.916811<-157.696 366.349>
LayerCount: 2
Fore
SplineSet
169 889 m 1
 220 889 l 1
 224 824 284 794 340 794 c 0
 381 794 456 815 461 889 c 1
 511 889 l 1
 508 794 425 739 340 739 c 0
 256 739 172 794 169 889 c 1
EndSplineSet
Refer: 464 1059 S 1 0 0 1 0 0 3
EndChar

StartChar: uni04B0
Encoding: 1200 1200 405
Width: 675
Flags: HW
TeX: 694 0
ItalicCorrection: 26
HStem: 0 21G<302 371> 227 51<147 302 371 526> 675 20G<2 101.391 580.609 671>
VStem: 302 69<0 227>
DStem2: 87 695 2 695 0.583997 -0.811756<0 434.885> 341 342 371 278 0.583997 0.811756<0 434.885>
AnchorPoint: "above" 336 711 basechar 0
LayerCount: 2
Fore
SplineSet
2 695 m 1
 87 695 l 1
 341 342 l 1
 595 695 l 1
 671 695 l 1
 371 278 l 1
 526 278 l 1
 526 227 l 1
 371 227 l 1
 371 0 l 1
 302 0 l 1
 302 227 l 1
 147 227 l 1
 147 278 l 1
 302 278 l 1
 2 695 l 1
EndSplineSet
EndChar

StartChar: uni04B2
Encoding: 1202 1202 406
Width: 675
Flags: HW
TeX: 694 166
HStem: -167 21G<604 659> 0 21G<14 109.717> 675 20G<29 129.636 520.018 615>
VStem: 604 55<-167 0>
DStem2: 14 0 95 0 0.599816 0.800138<48.5851 443.386 525 868.6> 114 695 29 695 0.617071 -0.786907<0 349.07 429.334 812.773>
LayerCount: 2
Fore
SplineSet
14 0 m 1
 293 367 l 1
 29 695 l 1
 114 695 l 1
 329 420 l 1
 535 695 l 1
 615 695 l 1
 365 366 l 1
 615 55 l 1
 659 55 l 1
 659 -167 l 1
 604 -167 l 1
 604 0 l 1
 574 0 l 1
 329 318 l 1
 95 0 l 1
 14 0 l 1
EndSplineSet
EndChar

StartChar: afii10145
Encoding: 1039 1039 407
Width: 704
Flags: HW
TeX: 694 166
HStem: -167 21G<321 382> 0 55<168 321 382 535> 675 20G<98 168 535 605>
VStem: 98 70<55 695> 321 61<-167 0> 535 70<55 695>
CounterMasks: 1 1c
LayerCount: 2
Fore
SplineSet
98 0 m 1
 98 695 l 1
 168 695 l 1
 168 55 l 1
 535 55 l 1
 535 695 l 1
 605 695 l 1
 605 0 l 1
 382 0 l 1
 382 -167 l 1
 321 -167 l 1
 321 0 l 1
 98 0 l 1
EndSplineSet
EndChar

StartChar: uni04B8
Encoding: 1208 1208 408
Width: 704
Flags: HW
TeX: 694 0
HStem: -0 21G<535 605> 307 52<202.695 327 377 535> 675 20G<98 168 535 605>
VStem: 98 70<392.874 695> 327 50<160 307 359 507> 535 70<0 307 359 695>
LayerCount: 2
Fore
SplineSet
98 449 m 2
 98 695 l 1
 168 695 l 1
 168 455 l 2
 168 378 232 359 286 359 c 2
 327 359 l 1
 327 507 l 1
 377 507 l 1
 377 359 l 1
 535 359 l 1
 535 695 l 1
 605 695 l 1
 605 -0 l 1
 535 -0 l 1
 535 307 l 1
 377 307 l 1
 377 160 l 1
 327 160 l 1
 327 307 l 1
 292 307 l 1
 267 308 202 306 138 365 c 0
 100 400 98 428 98 449 c 2
EndSplineSet
EndChar

StartChar: uni04B6
Encoding: 1206 1206 409
Width: 710
Flags: HW
TeX: 694 166
HStem: -167 21G<613 668> 307 52<204.038 535> 675 20G<98 168 535 605>
VStem: 98 70<393.914 695> 535 70<52 307 359 695> 613 55<-167 0>
LayerCount: 2
Fore
SplineSet
98 449 m 2
 98 695 l 1
 168 695 l 1
 168 454 l 2
 168 434 169 422 181 404 c 0
 204 371 243 359 287 359 c 2
 535 359 l 1
 535 695 l 1
 605 695 l 1
 605 52 l 1
 668 52 l 1
 668 -167 l 1
 613 -167 l 1
 613 0 l 1
 535 0 l 1
 535 307 l 1
 287 307 l 2
 259 307 197 311 139 364 c 0
 100 399 98 428 98 449 c 2
EndSplineSet
EndChar

StartChar: afii10053
Encoding: 1028 1028 410
Width: 671
Flags: HW
TeX: 694 0
HStem: -17 53<315.831 541.026> 320 54<152 527> 658 53<315.754 534.091>
VStem: 81 71<226.664 320 374 474.046>
CounterMasks: 1 e0
AnchorPoint: "above" 413 711 basechar 0
LayerCount: 2
Fore
SplineSet
81 347 m 0
 81 536 214 711 413 711 c 0
 501 711 560 693 606 677 c 1
 593 608 l 1
 552 630 503 658 411 658 c 0
 287 658 167 554 152 374 c 1
 527 374 l 1
 527 320 l 1
 152 320 l 1
 168 139 287 36 411 36 c 0
 520 36 554 62 612 97 c 1
 617 39 l 1
 558 6 518 -17 413 -17 c 0
 214 -17 81 158 81 347 c 0
EndSplineSet
EndChar

StartChar: uni04D8
Encoding: 1240 1240 411
Width: 700
Flags: HW
TeX: 694 0
HStem: -17 52<233.948 431.686> 285 48<95 574> 658 53<168.409 420.987>
VStem: 29 66<188.743 285> 578 68<211.094 285 333 473.039>
AnchorPoint: "above" 340 711 basechar 0
LayerCount: 2
Fore
SplineSet
29 333 m 1
 578 333 l 1
 578 346 l 2
 578 502 486 658 326 658 c 2
 325 658 l 2
 208 658 184 644 99 608 c 1
 87 677 l 1
 196 708 213 711 340 711 c 0
 504 711 646 555 646 343 c 0
 646 123 521 -17 334 -17 c 0
 194 -17 29 57 29 333 c 1
95 285 m 1
 95 212 143 35 333 35 c 0
 399 35 547 65 574 285 c 1
 95 285 l 1
EndSplineSet
EndChar

StartChar: afii10059
Encoding: 1034 1034 412
Width: 1065
Flags: HW
TeX: 694 0
HStem: 0 53<605 847.875> 335 53<168 535 606 843.875> 675 20G<98 168 535 605>
VStem: 98 70<0 335 388 695> 535 70<53 335 388 695> 940 66<130.574 257.309>
LayerCount: 2
Fore
SplineSet
98 0 m 1
 98 695 l 1
 168 695 l 1
 168 388 l 1
 535 388 l 1
 535 695 l 1
 605 695 l 1
 605 388 l 1
 761 388 l 2
 941 388 1006 272 1006 194 c 0
 1006 91 912 14 803 2 c 0
 788 0 773 0 758 0 c 2
 535 0 l 1
 535 335 l 1
 168 335 l 1
 168 0 l 1
 98 0 l 1
605 53 m 1
 735 53 l 2
 885 53 940 138 940 194 c 0
 940 250 885 335 734 335 c 2
 606 335 l 1
 605 296 l 1
 605 53 l 1
EndSplineSet
EndChar

StartChar: afii10098
Encoding: 1169 1169 414
Width: 417
Flags: HW
TeX: 611 0
ItalicCorrection: 14
HStem: 0 21G<80 145> 422 50<145 336>
VStem: 80 65<0 422> 336 54<472 561>
LayerCount: 2
Fore
SplineSet
80 0 m 1
 80 472 l 1
 336 472 l 1
 336 561 l 1
 390 561 l 1
 390 422 l 1
 145 422 l 1
 145 0 l 1
 80 0 l 1
EndSplineSet
EndChar

